<?xml version="1.0" standalone="no"?><!DOCTYPE svg PUBLIC "-//W3C//DTD SVG 1.1//EN" "http://www.w3.org/Graphics/SVG/1.1/DTD/svg11.dtd" ><svg xmlns="http://www.w3.org/2000/svg"><metadata></metadata><defs><font id="Font Awesome 5 Free Solid" horiz-adv-x="640"><font-face font-family="Font Awesome 5 Free" font-weight="400" font-stretch="normal" units-per-em="512" panose-1="2 0 5 3 0 0 0 0 0 0" ascent="448" descent="-64" x-height="0" bbox="-12 -70 643 460" underline-thickness="0" underline-position="5" unicode-range="U+f000-f45f" /><missing-glyph horiz-adv-x="0"  /><glyph glyph-name="address-book" unicode="&#xf2b9;" d="M436 288 q5 0 8.5 3.5 q3.5 3.5 3.5 8.5 l0 40 q0 5 -3.5 8.5 q-3.5 3.5 -8.5 3.5 l-20 0 l0 48 q0 20 -14 34 q-14 14 -34 14 l-320 0 q-20 0 -34 -14 q-14 -14 -14 -34 l0 -416 q0 -20 14 -34 q14 -14 34 -14 l320 0 q20 0 34 14 q14 14 14 34 l0 48 l20 0 q5 0 8.5 3.5 q3.5 3.5 3.5 8.5 l0 40 q0 5 -3.5 8.5 q-3.5 3.5 -8.5 3.5 l-20 0 l0 64 l20 0 q5 0 8.5 3.5 q3.5 3.5 3.5 8.5 l0 40 q0 5 -3.5 8.5 q-3.5 3.5 -8.5 3.5 l-20 0 l0 64 l20 0 ZM208 320 q33 0 56.5 -23.5 q23.5 -23.5 23.5 -56.5 q0 -33 -23.5 -56.5 q-23.5 -23.5 -56.5 -23.5 q-33 0 -56.5 23.5 q-23.5 23.5 -23.5 56.5 q0 33 23.5 56.5 q23.5 23.5 56.5 23.5 ZM336 88 q0 -10 -7 -17 q-7 -7 -17 -7 l-208 0 q-10 0 -17 7 q-7 7 -7 17 l0 19 q0 16 10 29 q10 13 26 17 l36 9 q23 -17 53 -18 q32 -1 59 18 l36 -9 q16 -4 26 -17 q10 -13 10 -29 l0 -19 Z" /><glyph glyph-name="address-card" unicode="&#xf2bb;" d="M464 384 l-416 0 q-20 0 -34 -14 q-14 -14 -14 -34 l0 -288 q0 -20 14 -34 q14 -14 34 -14 l416 0 q20 0 34 14 q14 14 14 34 l0 288 q0 20 -14 34 q-14 14 -34 14 ZM176 304 q29 0 49.5 -20.5 q20.5 -20.5 20.5 -49.5 q0 -29 -20.5 -49.5 q-20.5 -20.5 -49.5 -20.5 q-29 0 -49.5 20.5 q-20.5 20.5 -20.5 49.5 q0 29 20.5 49.5 q20.5 20.5 49.5 20.5 ZM288 101 q0 -9 -6 -15 q-6 -6 -15 -6 l-182 0 q-9 0 -15 6 q-6 6 -6 15 l0 16 q0 15 9 26 q9 11 23 15 l31 8 q20 -15 46 -16 q29 -1 52 16 l31 -8 q14 -4 23 -15 q9 -11 9 -26 l0 -16 ZM448 140 q0 -5 -3.5 -8.5 q-3.5 -3.5 -8.5 -3.5 l-104 0 q-5 0 -8.5 3.5 q-3.5 3.5 -3.5 8.5 l0 8 q0 5 3.5 8.5 q3.5 3.5 8.5 3.5 l104 0 q5 0 8.5 -3.5 q3.5 -3.5 3.5 -8.5 l0 -8 ZM448 204 q0 -5 -3.5 -8.5 q-3.5 -3.5 -8.5 -3.5 l-104 0 q-5 0 -8.5 3.5 q-3.5 3.5 -3.5 8.5 l0 8 q0 5 3.5 8.5 q3.5 3.5 8.5 3.5 l104 0 q5 0 8.5 -3.5 q3.5 -3.5 3.5 -8.5 l0 -8 ZM448 268 q0 -5 -3.5 -8.5 q-3.5 -3.5 -8.5 -3.5 l-104 0 q-5 0 -8.5 3.5 q-3.5 3.5 -3.5 8.5 l0 8 q0 5 3.5 8.5 q3.5 3.5 8.5 3.5 l104 0 q5 0 8.5 -3.5 q3.5 -3.5 3.5 -8.5 l0 -8 Z" /><glyph glyph-name="adjust" unicode="&#xf042;" d="M8 192 q0 -67 33.5 -124 q33.5 -57 90.5 -90.5 q57 -33.5 124 -33.5 q67 0 124 33.5 q57 33.5 90.5 90.5 q33.5 57 33.5 124 q0 67 -33.5 124 q-33.5 57 -90.5 90.5 q-57 33.5 -124 33.5 q-67 0 -124 -33.5 q-57 -33.5 -90.5 -90.5 q-33.5 -57 -33.5 -124 ZM256 8 l0 368 q50 0 92.5 -24.5 q42.5 -24.5 67 -67 q24.5 -42.5 24.5 -92.5 q0 -50 -24.5 -92.5 q-24.5 -42.5 -67 -67 q-42.5 -24.5 -92.5 -24.5 Z" /><glyph glyph-name="align-center" unicode="&#xf037;" d="M352 404 l0 -40 q0 -7 -4.5 -11.5 q-4.5 -4.5 -11.5 -4.5 l-224 0 q-7 0 -11.5 4.5 q-4.5 4.5 -4.5 11.5 l0 40 q0 7 4.5 11.5 q4.5 4.5 11.5 4.5 l224 0 q7 0 11.5 -4.5 q4.5 -4.5 4.5 -11.5 ZM16 220 l416 0 q7 0 11.5 4.5 q4.5 4.5 4.5 11.5 l0 40 q0 7 -4.5 11.5 q-4.5 4.5 -11.5 4.5 l-416 0 q-7 0 -11.5 -4.5 q-4.5 -4.5 -4.5 -11.5 l0 -40 q0 -7 4.5 -11.5 q4.5 -4.5 11.5 -4.5 ZM16 -36 l416 0 q7 0 11.5 4.5 q4.5 4.5 4.5 11.5 l0 40 q0 7 -4.5 11.5 q-4.5 4.5 -11.5 4.5 l-416 0 q-7 0 -11.5 -4.5 q-4.5 -4.5 -4.5 -11.5 l0 -40 q0 -7 4.5 -11.5 q4.5 -4.5 11.5 -4.5 ZM336 164 l-224 0 q-7 0 -11.5 -4.5 q-4.5 -4.5 -4.5 -11.5 l0 -40 q0 -7 4.5 -11.5 q4.5 -4.5 11.5 -4.5 l224 0 q7 0 11.5 4.5 q4.5 4.5 4.5 11.5 l0 40 q0 7 -4.5 11.5 q-4.5 4.5 -11.5 4.5 Z" /><glyph glyph-name="align-justify" unicode="&#xf039;" d="M0 364 l0 40 q0 7 4.5 11.5 q4.5 4.5 11.5 4.5 l416 0 q7 0 11.5 -4.5 q4.5 -4.5 4.5 -11.5 l0 -40 q0 -7 -4.5 -11.5 q-4.5 -4.5 -11.5 -4.5 l-416 0 q-7 0 -11.5 4.5 q-4.5 4.5 -4.5 11.5 ZM16 220 l416 0 q7 0 11.5 4.5 q4.5 4.5 4.5 11.5 l0 40 q0 7 -4.5 11.5 q-4.5 4.5 -11.5 4.5 l-416 0 q-7 0 -11.5 -4.5 q-4.5 -4.5 -4.5 -11.5 l0 -40 q0 -7 4.5 -11.5 q4.5 -4.5 11.5 -4.5 ZM16 -36 l416 0 q7 0 11.5 4.5 q4.5 4.5 4.5 11.5 l0 40 q0 7 -4.5 11.5 q-4.5 4.5 -11.5 4.5 l-416 0 q-7 0 -11.5 -4.5 q-4.5 -4.5 -4.5 -11.5 l0 -40 q0 -7 4.5 -11.5 q4.5 -4.5 11.5 -4.5 ZM16 92 l416 0 q7 0 11.5 4.5 q4.5 4.5 4.5 11.5 l0 40 q0 7 -4.5 11.5 q-4.5 4.5 -11.5 4.5 l-416 0 q-7 0 -11.5 -4.5 q-4.5 -4.5 -4.5 -11.5 l0 -40 q0 -7 4.5 -11.5 q4.5 -4.5 11.5 -4.5 Z" /><glyph glyph-name="align-left" unicode="&#xf036;" d="M288 404 l0 -40 q0 -7 -4.5 -11.5 q-4.5 -4.5 -11.5 -4.5 l-256 0 q-7 0 -11.5 4.5 q-4.5 4.5 -4.5 11.5 l0 40 q0 7 4.5 11.5 q4.5 4.5 11.5 4.5 l256 0 q7 0 11.5 -4.5 q4.5 -4.5 4.5 -11.5 ZM0 276 l0 -40 q0 -7 4.5 -11.5 q4.5 -4.5 11.5 -4.5 l416 0 q7 0 11.5 4.5 q4.5 4.5 4.5 11.5 l0 40 q0 7 -4.5 11.5 q-4.5 4.5 -11.5 4.5 l-416 0 q-7 0 -11.5 -4.5 q-4.5 -4.5 -4.5 -11.5 ZM16 -36 l416 0 q7 0 11.5 4.5 q4.5 4.5 4.5 11.5 l0 40 q0 7 -4.5 11.5 q-4.5 4.5 -11.5 4.5 l-416 0 q-7 0 -11.5 -4.5 q-4.5 -4.5 -4.5 -11.5 l0 -40 q0 -7 4.5 -11.5 q4.5 -4.5 11.5 -4.5 ZM272 164 l-256 0 q-7 0 -11.5 -4.5 q-4.5 -4.5 -4.5 -11.5 l0 -40 q0 -7 4.5 -11.5 q4.5 -4.5 11.5 -4.5 l256 0 q7 0 11.5 4.5 q4.5 4.5 4.5 11.5 l0 40 q0 7 -4.5 11.5 q-4.5 4.5 -11.5 4.5 Z" /><glyph glyph-name="align-right" unicode="&#xf038;" d="M160 364 l0 40 q0 7 4.5 11.5 q4.5 4.5 11.5 4.5 l256 0 q7 0 11.5 -4.5 q4.5 -4.5 4.5 -11.5 l0 -40 q0 -7 -4.5 -11.5 q-4.5 -4.5 -11.5 -4.5 l-256 0 q-7 0 -11.5 4.5 q-4.5 4.5 -4.5 11.5 ZM16 220 l416 0 q7 0 11.5 4.5 q4.5 4.5 4.5 11.5 l0 40 q0 7 -4.5 11.5 q-4.5 4.5 -11.5 4.5 l-416 0 q-7 0 -11.5 -4.5 q-4.5 -4.5 -4.5 -11.5 l0 -40 q0 -7 4.5 -11.5 q4.5 -4.5 11.5 -4.5 ZM16 -36 l416 0 q7 0 11.5 4.5 q4.5 4.5 4.5 11.5 l0 40 q0 7 -4.5 11.5 q-4.5 4.5 -11.5 4.5 l-416 0 q-7 0 -11.5 -4.5 q-4.5 -4.5 -4.5 -11.5 l0 -40 q0 -7 4.5 -11.5 q4.5 -4.5 11.5 -4.5 ZM176 92 l256 0 q7 0 11.5 4.5 q4.5 4.5 4.5 11.5 l0 40 q0 7 -4.5 11.5 q-4.5 4.5 -11.5 4.5 l-256 0 q-7 0 -11.5 -4.5 q-4.5 -4.5 -4.5 -11.5 l0 -40 q0 -7 4.5 -11.5 q4.5 -4.5 11.5 -4.5 Z" /><glyph glyph-name="ambulance" unicode="&#xf0f9;" d="M592 448 l-320 0 q-20 0 -34 -14 q-14 -14 -14 -34 l0 -48 l-44 0 q-20 0 -34 -14 l-100 -100 q-14 -14 -14 -34 l0 -108 l-8 0 q-10 0 -17 -7 q-7 -7 -7 -17 l0 -16 q0 -10 7 -17 q7 -7 17 -7 l40 0 q0 -40 28 -68 q28 -28 68 -28 q40 0 68 28 q28 28 28 68 l128 0 q0 -40 28 -68 q28 -28 68 -28 q40 0 68 28 q28 28 28 68 l40 0 q10 0 17 7 q7 7 7 17 l0 344 q0 20 -14 34 q-14 14 -34 14 ZM160 -16 q-20 0 -34 14 q-14 14 -14 34 q0 20 14 34 q14 14 34 14 q20 0 34 -14 q14 -14 14 -34 q0 -20 -14 -34 q-14 -14 -34 -14 ZM224 192 l-144 0 l0 12 l100 100 l44 0 l0 -112 ZM480 -16 q-20 0 -34 14 q-14 14 -14 34 q0 20 14 34 q14 14 34 14 q20 0 34 -14 q14 -14 14 -34 q0 -20 -14 -34 q-14 -14 -34 -14 ZM512 272 l0 -32 q0 -5 -3.5 -8.5 q-3.5 -3.5 -8.5 -3.5 l-56 0 l0 -56 q0 -5 -3.5 -8.5 q-3.5 -3.5 -8.5 -3.5 l-32 0 q-5 0 -8.5 3.5 q-3.5 3.5 -3.5 8.5 l0 56 l-56 0 q-5 0 -8.5 3.5 q-3.5 3.5 -3.5 8.5 l0 32 q0 5 3.5 8.5 q3.5 3.5 8.5 3.5 l56 0 l0 56 q0 5 3.5 8.5 q3.5 3.5 8.5 3.5 l32 0 q5 0 8.5 -3.5 q3.5 -3.5 3.5 -8.5 l0 -56 l56 0 q5 0 8.5 -3.5 q3.5 -3.5 3.5 -8.5 Z" /><glyph glyph-name="american-sign-language-interpreting" unicode="&#xf2a3;" d="M291 259 q-16 7 -33 8 q-17 1 -32 -4 q31 0 52.5 -13.5 q21.5 -13.5 32.5 -37.5 q7 -13 -1 -25.5 q-8 -12.5 -22 -12.5 q14 0 22 -12.5 q8 -12.5 1 -25.5 q-11 -23 -32.5 -37 q-21.5 -14 -47.5 -14 l-94 9 l-67 -33 q-7 -4 -14 -1.5 q-7 2.5 -10 8.5 l-44 89 q-3 7 -1 13.5 q2 6.5 8 10.5 l58 33 l41 74 q5 43 25.5 81 q20.5 38 54.5 66 q8 7 19 6 q11 -1 18 -9.5 q7 -8.5 6 -19.5 q-1 -11 -9 -18 q-20 -17 -33 -36 q34 23 74 28 q11 2 20 -5 q9 -7 10.5 -18 q1.5 -11 -5.5 -19.5 q-7 -8.5 -18 -10.5 q-23 -2 -44 -15 q20 5 43.5 2 q23.5 -3 44.5 -13 q10 -5 13.5 -15.5 q3.5 -10.5 -1.5 -20.5 q-5 -10 -15.5 -13.5 q-10.5 -3.5 -19.5 1.5 ZM263 189 q-4 10 -13 15.5 q-9 5.5 -19 5.5 q-15 0 -25.5 -10.5 q-10.5 -10.5 -10 -25.5 q0.5 -15 11 -25 q10.5 -10 24.5 -10 q10 0 19 5.5 q9 5.5 13 14.5 q4 7 10 11 q6 4 14 4 q-8 0 -14 4.5 q-6 4.5 -10 10.5 ZM638 227 q3 -7 1 -13.5 q-2 -6.5 -8 -10.5 l-58 -33 l-41 -74 q-5 -43 -25.5 -81 q-20.5 -38 -54.5 -66 q-8 -7 -19 -6 q-11 1 -18 9.5 q-7 8.5 -6 19.5 q1 11 9 18 q20 17 33 36 q-34 -23 -74 -28 q-9 -2 -19 4.5 q-10 6.5 -11.5 18 q-1.5 11.5 5.5 20 q7 8.5 18 10.5 q23 2 44 15 q-20 -5 -43.5 -2 q-23.5 3 -44.5 13 q-10 5 -13.5 15.5 q-3.5 10.5 1.5 20.5 q5 10 15.5 13.5 q10.5 3.5 19.5 -1.5 q16 -8 33 -8.5 q17 -0.5 32 4.5 q-31 0 -52.5 13.5 q-21.5 13.5 -32.5 37.5 q-7 13 1 25.5 q8 12.5 22 12.5 q-14 0 -22 12.5 q-8 12.5 -1 25.5 q11 23 32.5 37 q21.5 14 49.5 14 l92 -9 l67 33 q7 4 14 1.5 q7 -2.5 10 -8.5 l44 -89 ZM409 245 q-10 0 -19 -5.5 q-9 -5.5 -13 -14.5 q-4 -7 -10 -11 q-6 -4 -14 -4 q8 0 14 -4.5 q6 -4.5 10 -11.5 q4 -9 13 -14.5 q9 -5.5 19 -5.5 q15 0 25.5 10.5 q10.5 10.5 10 25.5 q-0.5 15 -11 25 q-10.5 10 -24.5 10 Z" /><glyph glyph-name="anchor" unicode="&#xf13d;" d="M13 96 l32 0 q11 -49 49 -87 q36 -35 88 -54 q52 -19 106 -19 q54 0 106 19 q52 19 88 54 q38 38 49 87 l32 0 q8 0 11 7.5 q3 7.5 -2 12.5 l-68 68 q-3 3 -8 3 q-5 0 -8 -3 l-68 -68 q-5 -5 -2 -12.5 q3 -7.5 11 -7.5 l35 0 q-14 -39 -57 -65 q-39 -23 -87 -29 l0 190 l52 0 q5 0 8.5 3.5 q3.5 3.5 3.5 8.5 l0 40 q0 5 -3.5 8.5 q-3.5 3.5 -8.5 3.5 l-52 0 l0 5 q28 10 46 35 q18 25 18 56 q0 39 -27.5 67 q-27.5 28 -67.5 29 q-40 1 -68.5 -27.5 q-28.5 -28.5 -28.5 -68.5 q0 -31 18 -56 q18 -25 46 -35 l0 -5 l-52 0 q-5 0 -8.5 -3.5 q-3.5 -3.5 -3.5 -8.5 l0 -40 q0 -5 3.5 -8.5 q3.5 -3.5 8.5 -3.5 l52 0 l0 -190 q-48 6 -87 29 q-43 26 -57 65 l35 0 q8 0 11 7.5 q3 7.5 -2 12.5 l-68 68 q-3 3 -8 3 q-5 0 -8 -3 l-68 -68 q-5 -5 -2 -12.5 q3 -7.5 11 -7.5 ZM288 384 q13 0 22.5 -9.5 q9.5 -9.5 9.5 -22.5 q0 -13 -9.5 -22.5 q-9.5 -9.5 -22.5 -9.5 q-13 0 -22.5 9.5 q-9.5 9.5 -9.5 22.5 q0 13 9.5 22.5 q9.5 9.5 22.5 9.5 Z" /><glyph glyph-name="angle-double-down" unicode="&#xf103;" d="M143 192 l-136 136 q-7 7 -7 17 q0 10 7 17 l23 22 q7 7 17 7 q10 0 17 -7 l96 -96 l96 96 q7 7 17 7 q10 0 17 -7 l23 -22 q7 -7 7 -17 q0 -10 -7 -17 l-136 -136 q-7 -7 -17 -7 q-10 0 -17 7 ZM177 0 l136 136 q7 7 7 17 q0 10 -7 17 l-23 22 q-7 7 -17 7 q-10 0 -16 -7 l-97 -96 l-96 96 q-7 7 -17 7 q-10 0 -17 -7 l-23 -22 q-7 -7 -7 -17 q0 -10 7 -17 l136 -136 q7 -7 17 -7 q10 0 17 7 Z" /><glyph glyph-name="angle-double-left" unicode="&#xf100;" d="M224 209 l136 136 q7 7 17 7 q10 0 17 -7 l22 -23 q7 -7 7 -17 q0 -10 -7 -16 l-96 -97 l96 -96 q7 -7 7 -17 q0 -10 -7 -17 l-22 -23 q-7 -7 -17 -7 q-10 0 -17 7 l-136 136 q-7 7 -7 17 q0 10 7 17 ZM32 175 l136 -136 q7 -7 17 -7 q10 0 17 7 l22 23 q7 7 7 17 q0 10 -7 17 l-96 96 l96 96 q7 7 7 17 q0 10 -7 17 l-22 23 q-7 7 -17 7 q-10 0 -17 -7 l-136 -136 q-7 -7 -7 -17 q0 -10 7 -17 Z" /><glyph glyph-name="angle-double-right" unicode="&#xf101;" d="M224 175 l-136 -136 q-7 -7 -17 -7 q-10 0 -17 7 l-22 23 q-7 7 -7 17 q0 10 7 17 l96 96 l-96 96 q-7 7 -7 17 q0 10 7 17 l22 23 q7 7 17 7 q10 0 17 -7 l136 -136 q7 -7 7 -17 q0 -10 -7 -17 ZM416 209 l-136 136 q-7 7 -17 7 q-10 0 -17 -7 l-22 -23 q-7 -7 -7 -17 q0 -10 7 -16 l96 -97 l-96 -96 q-7 -7 -7 -17 q0 -10 7 -17 l22 -23 q7 -7 17 -7 q10 0 17 7 l136 136 q7 7 7 17 q0 10 -7 17 Z" /><glyph glyph-name="angle-double-up" unicode="&#xf102;" d="M177 192 l136 -136 q7 -7 7 -17 q0 -10 -7 -17 l-23 -22 q-7 -7 -17 -7 q-10 0 -16 7 l-97 96 l-96 -96 q-7 -7 -17 -7 q-10 0 -17 7 l-23 22 q-7 7 -7 17 q0 10 7 17 l136 136 q7 7 17 7 q10 0 17 -7 ZM143 384 l-136 -136 q-7 -7 -7 -17 q0 -10 7 -17 l23 -22 q7 -7 17 -7 q10 0 17 7 l96 96 l96 -96 q7 -7 17 -7 q10 0 17 7 l23 22 q7 7 7 17 q0 10 -7 17 l-136 136 q-7 7 -17 7 q-10 0 -17 -7 Z" /><glyph glyph-name="angle-down" unicode="&#xf107;" d="M143 96 l-136 136 q-7 7 -7 17 q0 10 7 17 l23 22 q7 7 17 7 q10 0 17 -7 l96 -96 l96 96 q7 7 17 7 q10 0 17 -7 l23 -22 q7 -7 7 -17 q0 -10 -7 -17 l-136 -136 q-7 -7 -17 -7 q-10 0 -17 7 Z" /><glyph glyph-name="angle-left" unicode="&#xf104;" d="M32 209 l136 136 q7 7 17 7 q10 0 17 -7 l22 -23 q7 -7 7 -17 q0 -10 -7 -16 l-96 -97 l96 -96 q7 -7 7 -17 q0 -10 -7 -17 l-22 -23 q-7 -7 -17 -7 q-10 0 -17 7 l-136 136 q-7 7 -7 17 q0 10 7 17 Z" /><glyph glyph-name="angle-right" unicode="&#xf105;" d="M224 175 l-136 -136 q-7 -7 -17 -7 q-10 0 -17 7 l-22 23 q-7 7 -7 17 q0 10 7 17 l96 96 l-96 96 q-7 7 -7 17 q0 10 7 17 l22 23 q7 7 17 7 q10 0 17 -7 l136 -136 q7 -7 7 -17 q0 -10 -7 -17 Z" /><glyph glyph-name="angle-up" unicode="&#xf106;" d="M177 288 l136 -136 q7 -7 7 -17 q0 -10 -7 -17 l-23 -22 q-7 -7 -17 -7 q-10 0 -16 7 l-97 96 l-96 -96 q-7 -7 -17 -7 q-10 0 -17 7 l-23 22 q-7 7 -7 17 q0 10 7 17 l136 136 q7 7 17 7 q10 0 17 -7 Z" /><glyph glyph-name="archive" unicode="&#xf187;" d="M488 320 l-464 0 q-10 0 -17 7 q-7 7 -7 17 l0 48 q0 10 7 17 q7 7 17 7 l464 0 q10 0 17 -7 q7 -7 7 -17 l0 -48 q0 -10 -7 -17 q-7 -7 -17 -7 ZM480 -8 l0 272 q0 10 -7 17 q-7 7 -17 7 l-400 0 q-10 0 -17 -7 q-7 -7 -7 -17 l0 -272 q0 -10 7 -17 q7 -7 17 -7 l400 0 q10 0 17 7 q7 7 7 17 ZM308 192 l-104 0 q-5 0 -8.5 3.5 q-3.5 3.5 -3.5 8.5 l0 8 q0 5 3.5 8.5 q3.5 3.5 8.5 3.5 l104 0 q5 0 8.5 -3.5 q3.5 -3.5 3.5 -8.5 l0 -8 q0 -5 -3.5 -8.5 q-3.5 -3.5 -8.5 -3.5 Z" /><glyph glyph-name="arrow-alt-circle-down" unicode="&#xf358;" d="M504 192 q0 -67 -33.5 -124 q-33.5 -57 -90.5 -90.5 q-57 -33.5 -124 -33.5 q-67 0 -124 33.5 q-57 33.5 -90.5 90.5 q-33.5 57 -33.5 124 q0 67 33.5 124 q33.5 57 90.5 90.5 q57 33.5 124 33.5 q67 0 124 -33.5 q57 -33.5 90.5 -90.5 q33.5 -57 33.5 -124 ZM212 308 l0 -116 l-71 0 q-8 0 -11 -7.5 q-3 -7.5 3 -12.5 l115 -115 q3 -3 8 -3 q5 0 8 3 l115 115 q6 5 3 12.5 q-3 7.5 -11 7.5 l-71 0 l0 116 q0 5 -3.5 8.5 q-3.5 3.5 -8.5 3.5 l-64 0 q-5 0 -8.5 -3.5 q-3.5 -3.5 -3.5 -8.5 Z" /><glyph glyph-name="arrow-alt-circle-left" unicode="&#xf359;" d="M256 -56 q-67 0 -124 33.5 q-57 33.5 -90.5 90.5 q-33.5 57 -33.5 124 q0 67 33.5 124 q33.5 57 90.5 90.5 q57 33.5 124 33.5 q67 0 124 -33.5 q57 -33.5 90.5 -90.5 q33.5 -57 33.5 -124 q0 -67 -33.5 -124 q-33.5 -57 -90.5 -90.5 q-57 -33.5 -124 -33.5 ZM372 236 l-116 0 l0 71 q0 8 -7.5 11 q-7.5 3 -12.5 -3 l-115 -114 q-3 -4 -3 -9 q0 -5 3 -8 l115 -115 q5 -6 12.5 -3 q7.5 3 7.5 11 l0 71 l116 0 q5 0 8.5 3.5 q3.5 3.5 3.5 8.5 l0 64 q0 5 -3.5 8.5 q-3.5 3.5 -8.5 3.5 Z" /><glyph glyph-name="arrow-alt-circle-right" unicode="&#xf35a;" d="M256 440 q67 0 124 -33.5 q57 -33.5 90.5 -90.5 q33.5 -57 33.5 -124 q0 -67 -33.5 -124 q-33.5 -57 -90.5 -90.5 q-57 -33.5 -124 -33.5 q-67 0 -124 33.5 q-57 33.5 -90.5 90.5 q-33.5 57 -33.5 124 q0 67 33.5 124 q33.5 57 90.5 90.5 q57 33.5 124 33.5 ZM140 148 l116 0 l0 -71 q0 -8 7.5 -11 q7.5 -3 13.5 3 l114 115 q3 3 3 8 q0 5 -3 8 l-114 115 q-6 6 -13.5 3 q-7.5 -3 -7.5 -11 l0 -71 l-116 0 q-5 0 -8.5 -3.5 q-3.5 -3.5 -3.5 -8.5 l0 -64 q0 -5 3.5 -8.5 q3.5 -3.5 8.5 -3.5 Z" /><glyph glyph-name="arrow-alt-circle-up" unicode="&#xf35b;" d="M8 192 q0 67 33.5 124 q33.5 57 90.5 90.5 q57 33.5 124 33.5 q67 0 124 -33.5 q57 -33.5 90.5 -90.5 q33.5 -57 33.5 -124 q0 -67 -33.5 -124 q-33.5 -57 -90.5 -90.5 q-57 -33.5 -124 -33.5 q-67 0 -124 33.5 q-57 33.5 -90.5 90.5 q-33.5 57 -33.5 124 ZM300 76 l0 116 l71 0 q8 0 11 7.5 q3 7.5 -3 13.5 l-114 114 q-4 3 -9 3 q-5 0 -8 -3 l-115 -114 q-6 -6 -3 -13.5 q3 -7.5 11 -7.5 l71 0 l0 -116 q0 -5 3.5 -8.5 q3.5 -3.5 8.5 -3.5 l64 0 q5 0 8.5 3.5 q3.5 3.5 3.5 8.5 Z" /><glyph glyph-name="arrow-circle-down" unicode="&#xf0ab;" d="M504 192 q0 -67 -33.5 -124 q-33.5 -57 -90.5 -90.5 q-57 -33.5 -124 -33.5 q-67 0 -124 33.5 q-57 33.5 -90.5 90.5 q-33.5 57 -33.5 124 q0 67 33.5 124 q33.5 57 90.5 90.5 q57 33.5 124 33.5 q67 0 124 -33.5 q57 -33.5 90.5 -90.5 q33.5 -57 33.5 -124 ZM360 221 l-72 -76 l0 183 q0 10 -7 17 q-7 7 -17 7 l-16 0 q-10 0 -17 -7 q-7 -7 -7 -17 l0 -183 l-72 76 q-7 7 -17.5 7 q-10.5 0 -17.5 -7 l-11 -11 q-7 -7 -7 -17 q0 -10 7 -17 l133 -132 q7 -7 17 -7 q10 0 17 7 l133 132 q7 7 7 17 q0 10 -7 17 l-11 11 q-7 7 -17.5 7 q-10.5 0 -17.5 -7 Z" /><glyph glyph-name="arrow-circle-left" unicode="&#xf0a8;" d="M256 -56 q-67 0 -124 33.5 q-57 33.5 -90.5 90.5 q-33.5 57 -33.5 124 q0 67 33.5 124 q33.5 57 90.5 90.5 q57 33.5 124 33.5 q67 0 124 -33.5 q57 -33.5 90.5 -90.5 q33.5 -57 33.5 -124 q0 -67 -33.5 -124 q-33.5 -57 -90.5 -90.5 q-57 -33.5 -124 -33.5 ZM285 88 l-76 72 l183 0 q10 0 17 7 q7 7 7 17 l0 16 q0 10 -7 17 q-7 7 -17 7 l-183 0 l76 72 q7 7 7 17.5 q0 10.5 -7 17.5 l-11 11 q-7 7 -17 7 q-10 0 -17 -7 l-132 -133 q-7 -7 -7 -17 q0 -10 7 -17 l132 -133 q7 -7 17 -7 q10 0 17 7 l11 11 q7 7 7 17.5 q0 10.5 -7 17.5 Z" /><glyph glyph-name="arrow-circle-right" unicode="&#xf0a9;" d="M256 440 q67 0 124 -33.5 q57 -33.5 90.5 -90.5 q33.5 -57 33.5 -124 q0 -67 -33.5 -124 q-33.5 -57 -90.5 -90.5 q-57 -33.5 -124 -33.5 q-67 0 -124 33.5 q-57 33.5 -90.5 90.5 q-33.5 57 -33.5 124 q0 67 33.5 124 q33.5 57 90.5 90.5 q57 33.5 124 33.5 ZM227 296 l76 -72 l-183 0 q-10 0 -17 -7 q-7 -7 -7 -17 l0 -16 q0 -10 7 -17 q7 -7 17 -7 l183 0 l-76 -72 q-7 -7 -7 -17.5 q0 -10.5 7 -17.5 l11 -11 q7 -7 17 -7 q10 0 17 7 l132 133 q7 7 7 17 q0 10 -7 17 l-132 133 q-7 7 -17 7 q-10 0 -17 -7 l-11 -11 q-7 -7 -7 -17.5 q0 -10.5 7 -17.5 Z" /><glyph glyph-name="arrow-circle-up" unicode="&#xf0aa;" d="M8 192 q0 67 33.5 124 q33.5 57 90.5 90.5 q57 33.5 124 33.5 q67 0 124 -33.5 q57 -33.5 90.5 -90.5 q33.5 -57 33.5 -124 q0 -67 -33.5 -124 q-33.5 -57 -90.5 -90.5 q-57 -33.5 -124 -33.5 q-67 0 -124 33.5 q-57 33.5 -90.5 90.5 q-33.5 57 -33.5 124 ZM152 163 l72 76 l0 -183 q0 -10 7 -17 q7 -7 17 -7 l16 0 q10 0 17 7 q7 7 7 17 l0 183 l72 -76 q7 -7 17.5 -7 q10.5 0 17.5 7 l11 11 q7 7 7 17 q0 10 -7 17 l-133 132 q-7 7 -17 7 q-10 0 -17 -7 l-133 -132 q-7 -7 -7 -17 q0 -10 7 -17 l11 -11 q7 -7 17.5 -7 q10.5 0 17.5 7 Z" /><glyph glyph-name="arrow-down" unicode="&#xf063;" d="M413 226 l22 -23 q7 -7 7 -17 q0 -10 -7 -17 l-194 -194 q-7 -7 -17 -7 q-10 0 -17 7 l-194 194 q-7 7 -7 17 q0 10 7 17 l22 23 q7 7 17 6.5 q10 -0.5 17 -7.5 l115 -120 l0 287 q0 10 7 17 q7 7 17 7 l32 0 q10 0 17 -7 q7 -7 7 -17 l0 -287 l115 120 q7 7 17 7.5 q10 0.5 17 -6.5 Z" /><glyph glyph-name="arrow-left" unicode="&#xf060;" d="M258 3 l-23 -22 q-7 -7 -17 -7 q-10 0 -17 7 l-194 194 q-7 7 -7 17 q0 10 7 17 l194 194 q7 7 17 7 q10 0 17 -7 l23 -22 q7 -7 6.5 -17 q-0.5 -10 -7.5 -17 l-120 -115 l287 0 q10 0 17 -7 q7 -7 7 -17 l0 -32 q0 -10 -7 -17 q-7 -7 -17 -7 l-287 0 l120 -115 q7 -7 7.5 -17 q0.5 -10 -6.5 -17 Z" /><glyph glyph-name="arrow-right" unicode="&#xf061;" d="M191 381 l22 22 q7 7 17 7 q10 0 17 -7 l194 -194 q7 -7 7 -17 q0 -10 -7 -17 l-194 -194 q-7 -7 -17 -7 q-10 0 -17 7 l-22 22 q-8 7 -7.5 17 q0.5 10 7.5 17 l120 115 l-287 0 q-10 0 -17 7 q-7 7 -7 17 l0 32 q0 10 7 17 q7 7 17 7 l287 0 l-120 115 q-7 7 -7.5 17 q-0.5 10 7.5 17 Z" /><glyph glyph-name="arrow-up" unicode="&#xf062;" d="M35 159 l-22 22 q-7 7 -7 17 q0 10 7 17 l194 194 q7 7 17 7 q10 0 17 -7 l194 -194 q7 -7 7 -17 q0 -10 -7 -17 l-22 -22 q-7 -8 -17 -7.5 q-10 0.5 -17 7.5 l-115 120 l0 -287 q0 -10 -7 -17 q-7 -7 -17 -7 l-32 0 q-10 0 -17 7 q-7 7 -7 17 l0 287 l-115 -120 q-7 -7 -17 -7.5 q-10 -0.5 -17 7.5 Z" /><glyph glyph-name="arrows-alt-h" unicode="&#xf337;" d="M378 278 l0 -46 l-244 0 l0 46 q0 10 -7 17 q-7 7 -17 7 q-10 0 -17 -7 l-86 -86 q-7 -7 -7 -17 q0 -10 7 -17 l86 -86 q7 -7 17 -7 q10 0 17 7 q7 7 7 17 l0 46 l244 0 l0 -46 q0 -10 7 -17 q7 -7 17 -7 q10 0 17 7 l86 86 q7 7 7 17 q0 10 -7 17 l-86 86 q-7 7 -17 7 q-10 0 -17 -7 q-7 -7 -7 -17 Z" /><glyph glyph-name="arrows-alt-v" unicode="&#xf338;" d="M214 70 l-46 0 l0 244 l46 0 q10 0 17 7 q7 7 7 17 q0 10 -7 17 l-86 86 q-7 7 -17 7 q-10 0 -17 -7 l-86 -86 q-7 -7 -7 -17 q0 -10 7 -17 q7 -7 17 -7 l46 0 l0 -244 l-46 0 q-10 0 -17 -7 q-7 -7 -7 -17 q0 -10 7 -17 l86 -86 q7 -7 17 -7 q10 0 17 7 l86 86 q7 7 7 17 q0 10 -7 17 q-7 7 -17 7 Z" /><glyph glyph-name="arrows-alt" unicode="&#xf0b2;" d="M352 22 l-79 -79 q-7 -7 -17 -7 q-10 0 -17 7 l-79 79 q-7 8 -7 17.5 q0 9.5 7 16.5 q7 7 17 7 l51 0 l0 101 l-101 0 l0 -51 q0 -10 -7 -17 q-7 -7 -16.5 -7 q-9.5 0 -17.5 7 l-79 79 q-7 7 -7 17 q0 10 7 17 l79 79 q8 8 17.5 7.5 q9.5 -0.5 16.5 -7 q7 -6.5 7 -17.5 l0 -51 l101 0 l0 101 l-51 0 q-11 0 -17.5 7 q-6.5 7 -7 16.5 q-0.5 9.5 7.5 17.5 l79 79 q7 7 17 7 q10 0 17 -7 l79 -79 q7 -8 7 -17.5 q0 -9.5 -7 -16.5 q-7 -7 -17 -7 l-51 0 l0 -101 l101 0 l0 51 q0 10 7 17 q7 7 16.5 7 q9.5 0 17.5 -7 l79 -79 q7 -7 7 -17 q0 -10 -7 -17 l-79 -79 q-8 -8 -17.5 -7.5 q-9.5 0.5 -16.5 7 q-7 6.5 -7 17.5 l0 51 l-101 0 l0 -101 l51 0 q11 0 17.5 -7 q6.5 -7 7 -16.5 q0.5 -9.5 -7.5 -17.5 Z" /><glyph glyph-name="assistive-listening-systems" unicode="&#xf2a2;" d="M216 188 q0 -12 -8 -20 q-8 -8 -20 -8 q-12 0 -20 8 q-8 8 -8 20 q0 33 23.5 56.5 q23.5 23.5 56.5 23.5 q33 0 56.5 -23.5 q23.5 -23.5 23.5 -56.5 q0 -12 -8 -20 q-8 -8 -20 -8 q-12 0 -20 8 q-8 8 -8 19 q0 11 -7 18 q-7 7 -17 7 q-10 0 -17 -7 q-7 -7 -7 -17 ZM240 364 q-48 0 -88.5 -23.5 q-40.5 -23.5 -64 -64 q-23.5 -40.5 -23.5 -88.5 q0 -12 8 -20 q8 -8 20 -8 q12 0 20 8 q8 8 8 20 q0 33 16 60.5 q16 27.5 43.5 43.5 q27.5 16 60.5 16 q33 0 60.5 -16 q27.5 -16 43.5 -43.5 q16 -27.5 16 -60.5 q0 -25 -11 -44 q-7 -11 -25 -28.5 q-18 -17.5 -25 -28.5 q-11 -18 -11 -43 l0 0 q0 -22 -15 -37 q-15 -15 -37 -15 q-12 0 -20 -8 q-8 -8 -8 -20 q0 -12 8 -20 q8 -8 20 -8 q29 0 54 14.5 q25 14.5 39.5 39.5 q14.5 25 14.5 54 q0 8 7 18 q4 5 16 17 q23 23 32 40 q17 29 17 69 q0 48 -23.5 88.5 q-23.5 40.5 -64 64 q-40.5 23.5 -88.5 23.5 ZM160 128 q-13 0 -22.5 -9.5 q-9.5 -9.5 -9.5 -22.5 q0 -13 9.5 -22.5 q9.5 -9.5 22.5 -9.5 q13 0 22.5 9.5 q9.5 9.5 9.5 22.5 q0 13 -9.5 22.5 q-9.5 9.5 -22.5 9.5 ZM32 0 q-13 0 -22.5 -9.5 q-9.5 -9.5 -9.5 -22.5 q0 -13 9.5 -22.5 q9.5 -9.5 22.5 -9.5 q13 0 22.5 9.5 q9.5 9.5 9.5 22.5 q0 13 -9.5 22.5 q-9.5 9.5 -22.5 9.5 ZM512 188 q0 2 0 5 q-1 56 -24.5 107.5 q-23.5 51.5 -64.5 89.5 q-41 38 -95 56 q-11 4 -21.5 -1 q-10.5 -5 -14 -16 q-3.5 -11 1.5 -21.5 q5 -10.5 16 -14.5 q64 -22 104.5 -77.5 q40.5 -55.5 41.5 -123.5 l0 -4 q0 -12 8 -20 q8 -8 20 -8 q12 0 20 8 q8 8 8 20 ZM153 9 l-80 80 l-34 -34 l80 -80 l34 34 Z" /><glyph glyph-name="asterisk" unicode="&#xf069;" d="M478 114 l-142 78 l142 78 q9 5 11.5 14.5 q2.5 9.5 -2.5 18.5 l-19 34 q-5 9 -15 11.5 q-10 2.5 -18 -3.5 l-139 -84 l3 162 q1 11 -6 18 q-7 7 -18 7 l-38 0 q-11 0 -18 -7 q-7 -7 -6 -18 l3 -162 l-139 84 q-8 6 -18 3.5 q-10 -2.5 -15 -11.5 l-19 -34 q-5 -9 -2.5 -18.5 q2.5 -9.5 11.5 -14.5 l142 -78 l-142 -78 q-9 -5 -11.5 -14.5 q-2.5 -9.5 2.5 -18.5 l19 -34 q5 -9 15 -11.5 q10 -2.5 18 3.5 l139 84 l-3 -162 q-1 -11 6 -18 q7 -7 18 -7 l38 0 q11 0 18 7 q7 7 6 18 l-3 162 l139 -84 q8 -6 18 -3.5 q10 2.5 15 11.5 l19 34 q5 9 2.5 18.5 q-2.5 9.5 -11.5 14.5 Z" /><glyph glyph-name="at" unicode="&#xf1fa;" d="M256 440 q-67 0 -124 -33.5 q-57 -33.5 -90.5 -90.5 q-33.5 -57 -33.5 -124 q0 -67 33.5 -124 q33.5 -57 90.5 -90.5 q57 -33.5 124 -33.5 q74 0 135 40 q9 6 11 16.5 q2 10.5 -5 19.5 l-10 12 q-6 7 -15 8.5 q-9 1.5 -17 -3.5 q-45 -29 -99 -29 q-50 0 -92 25 q-42 25 -67 67 q-25 42 -25 92 q0 50 25 92 q25 42 67 67 q42 25 92.5 25 q50.5 0 92.5 -19 q42 -19 66 -54 q25 -37 25 -87 q0 -31 -15 -55 q-17 -26 -43 -29 q-12 1 -15 9 q-2 6 1 21 l24 121 q2 12 -5 20.5 q-7 8.5 -19 8.5 l-45 0 q-5 0 -9 -3.5 q-4 -3.5 -4 -8.5 l0 0 q-18 22 -60 22 q-37 0 -69 -19.5 q-32 -19.5 -50.5 -54 q-18.5 -34.5 -18.5 -78.5 q0 -49 26 -77.5 q26 -28.5 70 -28.5 q20 0 41 11 q21 11 34 28 q6 -23 28 -30 q12 -4 43 -4 l0 0 q76 0 116 45 q34 39 34 102 q0 67 -34 119 q-32 49 -88.5 77 q-56.5 28 -125.5 28 ZM234 136 q-16 0 -26 10.5 q-10 10.5 -10 29.5 q0 32 19 54 q17 19 40 19 q17 0 26 -11 q9 -11 9 -31 q0 -20 -9 -38 q-9 -15 -22.5 -24 q-13.5 -9 -26.5 -9 Z" /><glyph glyph-name="audio-description" unicode="&#xf29e;" d="M163 209 l9 -30 l-26 0 l9 30 l4 16 l4 -16 ZM329 241 l-14 0 l0 -98 l14 0 q23 0 35 12.5 q12 12.5 12 36.5 q0 24 -12.5 36.5 q-12.5 12.5 -34.5 12.5 ZM512 336 l0 -288 q0 -20 -14 -34 q-14 -14 -34 -14 l-416 0 q-20 0 -34 14 q-14 14 -14 34 l0 288 q0 20 14 34 q14 14 34 14 l416 0 q20 0 34 -14 q14 -14 14 -34 ZM245 112 l-57 168 q-2 8 -11 8 l-36 0 q-8 0 -11 -8 l-57 -168 q-2 -6 1.5 -11 q3.5 -5 9.5 -5 l29 0 q4 0 7.5 2.5 q3.5 2.5 4.5 6.5 l8 30 l52 0 l8 -30 q3 -9 12 -9 l29 0 q6 0 9.5 5 q3.5 5 1.5 11 ZM430 192 q0 45 -26.5 70.5 q-26.5 25.5 -72.5 25.5 l-57 0 q-5 0 -8.5 -3.5 q-3.5 -3.5 -3.5 -8.5 l0 -168 q0 -5 3.5 -8.5 q3.5 -3.5 8.5 -3.5 l57 0 q46 0 72.5 26 q26.5 26 26.5 70 Z" /><glyph glyph-name="backward" unicode="&#xf04a;" d="M12 167 l192 -160 q9 -8 21.5 -7 q12.5 1 21.5 10 q9 9 9 22 l0 320 q0 13 -9 22 q-9 9 -21.5 10 q-12.5 1 -21.5 -7 l-192 -160 q-12 -10 -12 -25 q0 -15 11 -25 l1 0 ZM268 167 l192 -160 q9 -8 21.5 -7 q12.5 1 21.5 10 q9 9 9 22 l0 320 q0 13 -9 22 q-9 9 -21.5 10 q-12.5 1 -21.5 -7 l-192 -160 q-12 -10 -12 -25 q0 -15 12 -25 Z" /><glyph glyph-name="balance-scale" unicode="&#xf24e;" d="M352 0 l168 0 q10 0 17 -7 q7 -7 7 -17 l0 -16 q0 -10 -7 -17 q-7 -7 -17 -7 l-400 0 q-10 0 -17 7 q-7 7 -7 17 l0 16 q0 10 7 17 q7 7 17 7 l168 0 l0 295 q-18 7 -30 22.5 q-12 15.5 -16 34.5 l-122 0 q-10 0 -17 7 q-7 7 -7 17 l0 16 q0 10 7 17 q7 7 17 7 l136 0 q11 15 28 23.5 q17 8.5 36 8.5 q19 0 36 -8.5 q17 -8.5 28 -23.5 l136 0 q10 0 17 -7 q7 -7 7 -17 l0 -16 q0 -10 -7 -17 q-7 -7 -17 -7 l-122 0 q-4 -19 -16 -34.5 q-12 -15.5 -30 -22.5 l0 -295 ZM640 112 q0 0 0 1 q0 9 -5 20 q-5 11 -34 68 l-46 93 q-9 17 -26 23 q-17 6 -34 0 q-17 -6 -26 -23 l-45 -90 q-30 -60 -35 -71.5 q-5 -11.5 -5 -19.5 l0 -1 q0 -22 17 -40 q17 -18 46.5 -29 q29.5 -11 64.5 -11 q35 0 64.5 11 q29.5 11 46.5 29 q17 18 17 40 l0 0 ZM512 272 l72 -144 l-144 0 l72 144 ZM256 112 q0 0 0 1 q0 9 -5 20 q-5 11 -34 68 l-46 93 q-9 17 -26 23 q-17 6 -34 0 q-17 -6 -26 -23 l-45 -90 q-30 -60 -35 -71.5 q-5 -11.5 -5 -19.5 l0 -1 q0 -22 17 -40 q17 -18 46.5 -29 q29.5 -11 64.5 -11 q35 0 64.5 11 q29.5 11 46.5 29 q17 18 17 40 l0 0 ZM128 272 l72 -144 l-144 0 l72 144 Z" /><glyph glyph-name="ban" unicode="&#xf05e;" d="M256 440 q-67 0 -124 -33.5 q-57 -33.5 -90.5 -90.5 q-33.5 -57 -33.5 -124 q0 -67 33.5 -124 q33.5 -57 90.5 -90.5 q57 -33.5 124 -33.5 q67 0 124 33.5 q57 33.5 90.5 90.5 q33.5 57 33.5 124 q0 67 -33.5 124 q-33.5 57 -90.5 90.5 q-57 33.5 -124 33.5 ZM386 322 q32 -32 45 -73.5 q13 -41.5 6.5 -84.5 q-6.5 -43 -30.5 -78 l-257 257 q35 24 78 30.5 q43 6.5 84.5 -6.5 q41.5 -13 73.5 -45 ZM126 62 q-32 32 -45 73.5 q-13 41.5 -6.5 84.5 q6.5 43 30.5 78 l257 -257 q-35 -24 -78 -30.5 q-43 -6.5 -84.5 6.5 q-41.5 13 -73.5 45 Z" /><glyph glyph-name="barcode" unicode="&#xf02a;" d="M0 0 l0 384 l18 0 l0 -384 l-18 0 ZM27 0 l0 384 l9 0 l0 -384 l-9 0 ZM54 0 l0 384 l9 0 l0 -384 l-9 0 ZM99 0 l0 384 l9 0 l0 -384 l-9 0 ZM135 0 l0 384 l18 0 l0 -384 l-18 0 ZM180 0 l0 384 l9 0 l0 -384 l-9 0 ZM198 0 l0 384 l9 0 l0 -384 l-9 0 ZM216 0 l0 384 l9 0 l0 -384 l-9 0 ZM251 0 l0 384 l18 0 l0 -384 l-18 0 ZM296 0 l0 384 l18 0 l0 -384 l-18 0 ZM332 0 l0 384 l18 0 l0 -384 l-18 0 ZM368 0 l0 384 l18 0 l0 -384 l-18 0 ZM395 0 l0 384 l18 0 l0 -384 l-18 0 ZM440 0 l0 384 l27 0 l0 -384 l-27 0 ZM476 0 l0 384 l9 0 l0 -384 l-9 0 ZM494 0 l0 384 l18 0 l0 -384 l-18 0 Z" /><glyph glyph-name="bars" unicode="&#xf0c9;" d="M16 316 l416 0 q7 0 11.5 4.5 q4.5 4.5 4.5 11.5 l0 40 q0 7 -4.5 11.5 q-4.5 4.5 -11.5 4.5 l-416 0 q-7 0 -11.5 -4.5 q-4.5 -4.5 -4.5 -11.5 l0 -40 q0 -7 4.5 -11.5 q4.5 -4.5 11.5 -4.5 ZM16 156 l416 0 q7 0 11.5 4.5 q4.5 4.5 4.5 11.5 l0 40 q0 7 -4.5 11.5 q-4.5 4.5 -11.5 4.5 l-416 0 q-7 0 -11.5 -4.5 q-4.5 -4.5 -4.5 -11.5 l0 -40 q0 -7 4.5 -11.5 q4.5 -4.5 11.5 -4.5 ZM16 -4 l416 0 q7 0 11.5 4.5 q4.5 4.5 4.5 11.5 l0 40 q0 7 -4.5 11.5 q-4.5 4.5 -11.5 4.5 l-416 0 q-7 0 -11.5 -4.5 q-4.5 -4.5 -4.5 -11.5 l0 -40 q0 -7 4.5 -11.5 q4.5 -4.5 11.5 -4.5 Z" /><glyph glyph-name="baseball-ball" unicode="&#xf433;" d="M369 84 l28 14 q17 -34 44 -61 q26 33 40.5 72.5 q14.5 39.5 14.5 82.5 q0 43 -14 82.5 q-14 39.5 -40 72.5 q-28 -27 -44 -60 l-29 14 q19 38 51 69 q-34 33 -78.5 51.5 q-44.5 18.5 -93.5 18.5 q-49 0 -93.5 -18.5 q-44.5 -18.5 -78.5 -51.5 q32 -30 51 -68 l-29 -15 q-16 33 -44 60 q-26 -33 -40 -72.5 q-14 -39.5 -14 -82.5 q0 -43 14 -82.5 q14 -39.5 40 -72.5 q28 28 45 61 l29 -14 q-20 -39 -52 -70 q34 -33 78.5 -51.5 q44.5 -18.5 93.5 -18.5 q49 0 93.5 18.5 q44.5 18.5 78.5 51.5 q-33 31 -52 70 l1 0 ZM140 116 l-30 10 q11 34 10 69 q-1 34 -11 65 l31 10 q11 -36 12 -74 q1 -41 -12 -80 ZM357 270 l30 -10 q-10 -32 -11 -65 q-1 -36 10 -70 l-30 -9 q-13 39 -12 80 q1 38 12 73 l1 1 Z" /><glyph glyph-name="basketball-ball" unicode="&#xf434;" d="M212 438 q-69 -10 -122 -54 l78 -77 q42 54 44 131 ZM248 226 l158 158 q-63 52 -146 56 q-1 -48 -15.5 -91 q-14.5 -43 -42.5 -77 l46 -46 ZM56 350 q-44 -53 -54 -122 q77 2 132 45 l-78 77 ZM328 146 q34 27 77 42 q43 15 91 16 q-4 83 -56 146 l-158 -158 l46 -46 ZM248 158 l-158 -158 q31 -26 68.5 -40 q37.5 -14 77.5 -16 q1 48 16 91 q15 43 42 77 l-46 46 ZM440 34 q44 53 54 122 q-77 -2 -132 -44 l78 -78 ZM168 238 q-34 -28 -77 -43 q-43 -15 -91 -15 q4 -83 56 -146 l158 158 l-46 46 ZM284 -54 q69 10 122 54 l-77 78 q-43 -55 -45 -132 Z" /><glyph glyph-name="bath" unicode="&#xf2cd;" d="M488 192 l-408 0 l0 144 q0 13 9.5 22.5 q9.5 9.5 22.5 9.5 q18 0 27 -15 q-13 -19 -11 -42.5 q2 -23.5 18 -40.5 q-3 -3 -3 -8 q0 -5 3 -8 l12 -12 q3 -3 8 -3 q5 0 9 3 l95 95 q3 4 3 9 q0 5 -3 8 l-12 12 q-3 3 -8 3 q-5 0 -8 -3 q-13 12 -30.5 16 q-17.5 4 -33.5 0 q-11 15 -28.5 24.5 q-17.5 9.5 -37.5 9.5 q-33 0 -56.5 -23.5 q-23.5 -23.5 -23.5 -56.5 l0 -144 l-8 0 q-10 0 -17 -7 q-7 -7 -7 -17 l0 -16 q0 -10 7 -17 q7 -7 17 -7 l8 0 l0 -32 q0 -21 8.5 -39.5 q8.5 -18.5 23.5 -32.5 l0 -32 q0 -10 7 -17 q7 -7 17 -7 l16 0 q10 0 17 7 q7 7 7 17 l0 8 l256 0 l0 -8 q0 -10 7 -17 q7 -7 17 -7 l16 0 q10 0 17 7 q7 7 7 17 l0 32 q15 14 23.5 32.5 q8.5 18.5 8.5 39.5 l0 32 l8 0 q10 0 17 7 q7 7 7 17 l0 16 q0 10 -7 17 q-7 7 -17 7 Z" /><glyph glyph-name="battery-empty" unicode="&#xf244;" d="M544 288 l0 -64 l32 0 l0 -64 l-32 0 l0 -64 l-480 0 l0 192 l480 0 ZM560 352 l-512 0 q-20 0 -34 -14 q-14 -14 -14 -34 l0 -224 q0 -20 14 -34 q14 -14 34 -14 l512 0 q20 0 34 14 q14 14 14 34 l0 16 l8 0 q10 0 17 7 q7 7 7 17 l0 144 q0 10 -7 17 q-7 7 -17 7 l-8 0 l0 16 q0 20 -14 34 q-14 14 -34 14 Z" /><glyph glyph-name="battery-full" unicode="&#xf240;" d="M544 288 l0 -64 l32 0 l0 -64 l-32 0 l0 -64 l-480 0 l0 192 l480 0 ZM560 352 l-512 0 q-20 0 -34 -14 q-14 -14 -14 -34 l0 -224 q0 -20 14 -34 q14 -14 34 -14 l512 0 q20 0 34 14 q14 14 14 34 l0 16 l8 0 q10 0 17 7 q7 7 7 17 l0 144 q0 10 -7 17 q-7 7 -17 7 l-8 0 l0 16 q0 20 -14 34 q-14 14 -34 14 ZM512 256 l-416 0 l0 -128 l416 0 l0 128 Z" /><glyph glyph-name="battery-half" unicode="&#xf242;" d="M544 288 l0 -64 l32 0 l0 -64 l-32 0 l0 -64 l-480 0 l0 192 l480 0 ZM560 352 l-512 0 q-20 0 -34 -14 q-14 -14 -14 -34 l0 -224 q0 -20 14 -34 q14 -14 34 -14 l512 0 q20 0 34 14 q14 14 14 34 l0 16 l8 0 q10 0 17 7 q7 7 7 17 l0 144 q0 10 -7 17 q-7 7 -17 7 l-8 0 l0 16 q0 20 -14 34 q-14 14 -34 14 ZM320 256 l-224 0 l0 -128 l224 0 l0 128 Z" /><glyph glyph-name="battery-quarter" unicode="&#xf243;" d="M544 288 l0 -64 l32 0 l0 -64 l-32 0 l0 -64 l-480 0 l0 192 l480 0 ZM560 352 l-512 0 q-20 0 -34 -14 q-14 -14 -14 -34 l0 -224 q0 -20 14 -34 q14 -14 34 -14 l512 0 q20 0 34 14 q14 14 14 34 l0 16 l8 0 q10 0 17 7 q7 7 7 17 l0 144 q0 10 -7 17 q-7 7 -17 7 l-8 0 l0 16 q0 20 -14 34 q-14 14 -34 14 ZM224 256 l-128 0 l0 -128 l128 0 l0 128 Z" /><glyph glyph-name="battery-three-quarters" unicode="&#xf241;" d="M544 288 l0 -64 l32 0 l0 -64 l-32 0 l0 -64 l-480 0 l0 192 l480 0 ZM560 352 l-512 0 q-20 0 -34 -14 q-14 -14 -14 -34 l0 -224 q0 -20 14 -34 q14 -14 34 -14 l512 0 q20 0 34 14 q14 14 14 34 l0 16 l8 0 q10 0 17 7 q7 7 7 17 l0 144 q0 10 -7 17 q-7 7 -17 7 l-8 0 l0 16 q0 20 -14 34 q-14 14 -34 14 ZM416 256 l-320 0 l0 -128 l320 0 l0 128 Z" /><glyph glyph-name="bed" unicode="&#xf236;" d="M552 160 q10 0 17 -7 q7 -7 7 -17 l0 -136 l-96 0 l0 64 l-384 0 l0 -64 l-96 0 l0 360 q0 10 7 17 q7 7 17 7 l48 0 q10 0 17 -7 q7 -7 7 -17 l0 -200 l456 0 ZM192 352 q-33 0 -56.5 -23.5 q-23.5 -23.5 -23.5 -56.5 q0 -33 23.5 -56.5 q23.5 -23.5 56.5 -23.5 q33 0 56.5 23.5 q23.5 23.5 23.5 56.5 q0 33 -23.5 56.5 q-23.5 23.5 -56.5 23.5 ZM576 224 q0 40 -28 68 q-28 28 -68 28 l-168 0 q-10 0 -17 -7 q-7 -7 -7 -17 l0 -104 l288 0 l0 32 Z" /><glyph glyph-name="beer" unicode="&#xf0fc;" d="M368 352 l-48 0 l0 40 q0 10 -7 17 q-7 7 -17 7 l-272 0 q-10 0 -17 -7 q-7 -7 -7 -17 l0 -400 q0 -10 7 -17 q7 -7 17 -7 l272 0 q10 0 17 7 q7 7 7 17 l0 42 l81 36 q21 10 34 29.5 q13 19.5 13 43.5 l0 129 q0 33 -23.5 56.5 q-23.5 23.5 -56.5 23.5 ZM384 143 q0 -10 -9 -14 l-55 -25 l0 184 l48 0 q7 0 11.5 -4.5 q4.5 -4.5 4.5 -11.5 l0 -129 ZM208 64 q-7 0 -11.5 4.5 q-4.5 4.5 -4.5 11.5 l0 224 q0 7 4.5 11.5 q4.5 4.5 11.5 4.5 q7 0 11.5 -4.5 q4.5 -4.5 4.5 -11.5 l0 -224 q0 -7 -4.5 -11.5 q-4.5 -4.5 -11.5 -4.5 ZM112 64 q-7 0 -11.5 4.5 q-4.5 4.5 -4.5 11.5 l0 224 q0 7 4.5 11.5 q4.5 4.5 11.5 4.5 q7 0 11.5 -4.5 q4.5 -4.5 4.5 -11.5 l0 -224 q0 -7 -4.5 -11.5 q-4.5 -4.5 -11.5 -4.5 Z" /><glyph glyph-name="bell-slash" unicode="&#xf1f6;" d="M78 82 q-14 -15 -14 -34.5 q0 -19.5 13.5 -33.5 q13.5 -14 34.5 -14 l112 0 q0 -27 18.5 -45.5 q18.5 -18.5 45.5 -18.5 q27 0 45.5 18.5 q18.5 18.5 18.5 45.5 l33 0 l-257 227 q-1 -45 -9 -76 q-7 -26 -19 -44 q-7 -10 -22 -25 ZM264 0 q0 -10 7 -17 q7 -7 17 -7 q3 0 5.5 -2.5 q2.5 -2.5 2.5 -5.5 q0 -3 -2.5 -5.5 q-2.5 -2.5 -5.5 -2.5 q-17 0 -28.5 11.5 q-11.5 11.5 -11.5 28.5 l16 0 ZM570 -44 l-11 -12 q-7 -7 -17 -8 q-10 -1 -17 6 l-517 452 q-7 6 -8 16 q-1 10 6 18 l11 12 q7 7 17 8 q10 1 17 -6 l114 -100 q18 22 43 36.5 q25 14.5 54 19.5 q-6 8 -6 18 q0 13 9.5 22.5 q9.5 9.5 22.5 9.5 q13 0 22.5 -9.5 q9.5 -9.5 9.5 -22.5 q0 -10 -6 -18 q38 -6 68.5 -28.5 q30.5 -22.5 48 -56.5 q17.5 -34 17.5 -73 q0 -50 8 -84 q7 -28 19 -47 q7 -12 23 -27 q18 -18 13 -42 l57 -50 q7 -6 8 -16 q1 -10 -6 -18 Z" /><glyph glyph-name="bell" unicode="&#xf0f3;" d="M434 82 q-16 15 -23 27 q-12 19 -19 47 q-8 34 -8 84 q0 39 -17.5 73 q-17.5 34 -48 56.5 q-30.5 22.5 -68.5 28.5 q6 8 6 18 q0 13 -9.5 22.5 q-9.5 9.5 -22.5 9.5 q-13 0 -22.5 -9.5 q-9.5 -9.5 -9.5 -22.5 q0 -10 6 -18 q-38 -6 -68.5 -28.5 q-30.5 -22.5 -48 -56.5 q-17.5 -34 -17.5 -73 q0 -50 -8 -84 q-7 -28 -19 -47 q-7 -12 -22 -27 q-15 -15 -15 -34.5 q0 -19.5 13.5 -33.5 q13.5 -14 34.5 -14 l112 0 q0 -27 18.5 -45.5 q18.5 -18.5 45.5 -18.5 q27 0 45.5 18.5 q18.5 18.5 18.5 45.5 l112 0 q21 0 34.5 14 q13.5 14 13.5 33.5 q0 19.5 -14 34.5 ZM224 -24 q3 0 5.5 -2.5 q2.5 -2.5 2.5 -5.5 q0 -3 -2.5 -5.5 q-2.5 -2.5 -5.5 -2.5 q-17 0 -28.5 11.5 q-11.5 11.5 -11.5 28.5 l16 0 q0 -10 7 -17 q7 -7 17 -7 Z" /><glyph glyph-name="bicycle" unicode="&#xf206;" d="M513 256 q-25 0 -47 -8 l-78 125 q-7 11 -20 11 l-64 0 q-7 0 -11.5 -4.5 q-4.5 -4.5 -4.5 -11.5 l0 -16 q0 -7 4.5 -11.5 q4.5 -4.5 11.5 -4.5 l51 0 l15 -24 l-114 0 l0 16 q0 7 -4.5 11.5 q-4.5 4.5 -11.5 4.5 l-87 0 q-11 0 -18 -7 q-7 -7 -7 -17 q0 -10 7 -17 q7 -7 17 -7 l49 0 l-30 -48 q-20 8 -43 8 q-34 0 -63.5 -17 q-29.5 -17 -47 -46.5 q-17.5 -29.5 -17.5 -64 q0 -34.5 17 -64 q17 -29.5 46.5 -47 q29.5 -17.5 64.5 -17.5 q44 0 78.5 27 q34.5 27 45.5 69 l52 0 q13 0 20 11 l86 139 l15 -24 q-19 -18 -30 -42.5 q-11 -24.5 -11 -51.5 q0 -34 17.5 -63.5 q17.5 -29.5 46.5 -47 q29 -17.5 63 -17.5 q34 0 63.5 16.5 q29.5 16.5 47 45.5 q17.5 29 18.5 64 q1 35 -16.5 65 q-17.5 30 -47 47.5 q-29.5 17.5 -63.5 17.5 ZM187 182 q15 -16 19 -38 l-43 0 l24 38 ZM128 48 q-33 0 -56.5 23.5 q-23.5 23.5 -23.5 56.5 q0 33 23.5 56.5 q23.5 23.5 56.5 23.5 q9 0 17 -2 l-45 -73 q-8 -12 -1 -24.5 q7 -12.5 21 -12.5 l81 0 q-9 -22 -29 -35 q-20 -13 -44 -13 ZM291 144 l-36 0 q-6 48 -42 80 l24 40 l128 0 l-74 -120 ZM508 48 q-31 2 -53 24 q-22 22 -23 53 q-1 31 19 55 l45 -71 q3 -6 9.5 -7.5 q6.5 -1.5 12.5 1.5 l13 9 q6 3 7.5 9.5 q1.5 6.5 -1.5 12.5 l-45 72 q10 2 20 2 q33 0 56.5 -23.5 q23.5 -23.5 23.5 -57 q0 -33.5 -25 -57.5 q-25 -24 -59 -22 Z" /><glyph glyph-name="binoculars" unicode="&#xf1e5;" d="M192 344 l-96 0 l0 48 q0 10 7 17 q7 7 17 7 l48 0 q10 0 17 -7 q7 -7 7 -17 l0 -48 ZM416 392 q0 10 -7 17 q-7 7 -17 7 l-48 0 q-10 0 -17 -7 q-7 -7 -7 -17 l0 -48 l96 0 l0 48 ZM0 -8 q0 -10 7 -17 q7 -7 17 -7 l120 0 q10 0 17 7 q7 7 7 17 l0 16 l-168 0 l0 -16 ZM88 320 q-10 0 -17 -7 q-7 -7 -7 -17 q0 -32 -9 -60 q-5 -18 -19 -49 q-18 -38 -25 -62 q-11 -41 -11 -93 l168 0 l0 104 q0 10 7 17 q7 7 17 7 l0 160 l-104 0 ZM344 -8 q0 -10 7 -17 q7 -7 17 -7 l120 0 q10 0 17 7 q7 7 7 17 l0 16 l-168 0 l0 -16 ZM216 320 l0 -160 l80 0 l0 160 l-80 0 ZM344 32 l168 0 q0 52 -11 93 q-7 24 -25 62 q-14 31 -19 49 q-9 28 -9 60 q0 10 -7 17 q-7 7 -17 7 l-104 0 l0 -160 q10 0 17 -7 q7 -7 7 -17 l0 -104 Z" /><glyph glyph-name="birthday-cake" unicode="&#xf1fd;" d="M448 64 q-8 0 -16 4 q-4 3 -12 9 q-11 9 -18 13 q-13 6 -28.5 6 q-15.5 0 -28.5 -6 q-7 -4 -18 -13 q-8 -6 -13 -9 q-7 -4 -15 -4 q-8 0 -16 4 q-4 2 -13 9 q-10 9 -18 13 q-12 6 -28 6 q-16 0 -28 -6 q-7 -4 -18 -13 q-9 -7 -13 -9 q-7 -4 -15.5 -4 q-8.5 0 -15.5 4 q-5 3 -13 9 q-11 9 -18 13 q-12 6 -28 6 q-16 0 -29 -6 q-7 -4 -18 -13 q-8 -6 -12 -9 q-8 -4 -16 -4 l0 80 q0 20 14 34 q14 14 34 14 l16 0 l0 144 l64 0 l0 -144 l64 0 l0 144 l64 0 l0 -144 l64 0 l0 144 l64 0 l0 -144 l16 0 q20 0 34 -14 q14 -14 14 -34 l0 -80 ZM448 -64 l-448 0 l0 96 q16 0 28 6 q7 4 18 13 q8 6 13 9 q7 4 15.5 4 q8.5 0 15.5 -4 q5 -3 13 -9 q11 -9 18 -13 q12 -6 28 -6 q16 0 29 6 q7 4 18 13 q8 7 13 9 q7 4 15 4 q8 0 16 -4 q4 -3 12 -9 q11 -9 18 -13 q13 -6 29 -6 q16 0 28 6 q7 4 18 13 q8 6 13 9 q7 4 15.5 4 q8.5 0 15.5 -4 q4 -2 13 -9 q10 -9 18 -13 q12 -6 28 -6 l0 -96 ZM96 352 q-13 0 -22.5 9.5 q-9.5 9.5 -9.5 22.5 q0 10 4 16 q3 5 11 11.5 q8 6.5 11 12.5 q6 9 6 24 q10 0 21 -18.5 q11 -18.5 11 -37.5 q0 -19 -9 -29.5 q-9 -10.5 -23 -10.5 ZM224 352 q-13 0 -22.5 9.5 q-9.5 9.5 -9.5 22.5 q0 10 4 16 q3 5 11 11.5 q8 6.5 11 12.5 q6 9 6 24 q10 0 21 -18.5 q11 -18.5 11 -37.5 q0 -19 -9 -29.5 q-9 -10.5 -23 -10.5 ZM352 352 q-13 0 -22.5 9.5 q-9.5 9.5 -9.5 22.5 q0 10 4 16 q3 5 11 11.5 q8 6.5 11 12.5 q6 9 6 24 q10 0 21 -18.5 q11 -18.5 11 -37.5 q0 -19 -9 -29.5 q-9 -10.5 -23 -10.5 Z" /><glyph glyph-name="blind" unicode="&#xf29d;" d="M380 -63 q-3 -2 -6 -1 q-3 1 -5 4 l-125 206 q8 3 13 10 l126 -208 q2 -3 1 -6 q-1 -3 -4 -5 ZM143 134 l-33 -90 l36 -88 q5 -12 17.5 -17.5 q12.5 -5.5 24.5 -0.5 q12 5 17.5 17.5 q5.5 12.5 0.5 24.5 l-63 154 ZM96 360 q18 0 31 13 q13 13 13 31 q0 18 -13 31 q-13 13 -31 13 q-18 0 -31 -13 q-13 -13 -13 -31 q0 -18 13 -31 q13 -13 31 -13 ZM251 191 l-120 152 q-7 9 -19 9 l0 0 l-32 0 q-12 0 -19 -9 l-61 -79 l0 -95 q0 -11 7 -18 q7 -7 17 -7 q10 0 17 7 q7 7 7 17 l0 80 l16 20 l0 -140 l-54 -149 q-5 -13 1 -25 q6 -12 18.5 -16.5 q12.5 -4.5 24.5 1.5 q12 6 16 18 l66 181 l0 108 l-31 39 q-3 4 0 6 q3 2 6 -1 l102 -129 q7 -8 16.5 -9 q9.5 -1 17.5 5 q8 6 9 16 q1 10 -5 18 Z" /><glyph glyph-name="bold" unicode="&#xf032;" d="M305 204 q25 14 39 39.5 q14 25.5 14 56.5 q0 36 -18 64 q-18 28 -50 40 q-18 7 -38 10 q-17 2 -42 2 l-186 0 q-7 0 -11.5 -4.5 q-4.5 -4.5 -4.5 -11.5 l0 -33 q0 -7 4.5 -11.5 q4.5 -4.5 11.5 -4.5 l33 0 l0 -319 l-33 0 q-7 0 -11.5 -4.5 q-4.5 -4.5 -4.5 -11.5 l0 -32 q0 -7 4.5 -11.5 q4.5 -4.5 11.5 -4.5 l196 0 q40 0 67 8 q39 11 64 44.5 q25 33.5 25 77.5 q0 39 -19 67 q-19 28 -52 39 ZM142 347 l68 0 q23 0 37 -7 q12 -6 18.5 -19 q6.5 -13 6.5 -30 q0 -26 -14 -41.5 q-14 -15.5 -39 -15.5 l-77 0 l0 113 ZM255 42 q-12 -5 -32 -5 l-81 0 l0 129 l85 0 q29 0 46 -17 q17 -17 17 -46 q0 -21 -9.5 -38 q-9.5 -17 -25.5 -23 Z" /><glyph glyph-name="bolt" unicode="&#xf0e7;" d="M296 288 l-115 0 l34 130 q3 11 -4 20.5 q-7 9.5 -19 9.5 l-136 0 q-9 0 -16 -6 q-7 -6 -8 -15 l-32 -240 q-1 -11 6 -19 q7 -8 18 -8 l119 0 l-46 -194 q-3 -12 4 -21 q7 -9 19 -9 q14 0 21 12 l176 304 q7 12 0 24 q-7 12 -21 12 Z" /><glyph glyph-name="bomb" unicode="&#xf1e2;" d="M441 360 l-52 -52 l26 -27 q7 -7 7 -17 q0 -10 -7 -17 l-17 -17 q18 -41 18 -86 q0 -56 -28 -104 q-28 -48 -75.5 -76 q-47.5 -28 -104.5 -28 q-57 0 -104.5 28 q-47.5 28 -75.5 75.5 q-28 47.5 -28 104.5 q0 57 28 104.5 q28 47.5 75.5 75.5 q47.5 28 104.5 28 q45 0 86 -18 l17 17 q7 7 17 7 q10 0 17 -7 l26 -26 l52 52 l18 -17 ZM500 388 l-24 0 q-5 0 -8.5 -3.5 q-3.5 -3.5 -3.5 -8.5 q0 -5 3.5 -8.5 q3.5 -3.5 8.5 -3.5 l24 0 q5 0 8.5 3.5 q3.5 3.5 3.5 8.5 q0 5 -3.5 8.5 q-3.5 3.5 -8.5 3.5 ZM440 448 q-5 0 -8.5 -3.5 q-3.5 -3.5 -3.5 -8.5 l0 -24 q0 -5 3.5 -8.5 q3.5 -3.5 8.5 -3.5 q5 0 8.5 3.5 q3.5 3.5 3.5 8.5 l0 24 q0 5 -3.5 8.5 q-3.5 3.5 -8.5 3.5 ZM474 393 l17 17 q3 4 3 8.5 q0 4.5 -3.5 8.5 q-3.5 4 -8.5 4 q-5 0 -8 -4 l-17 -17 q-4 -4 -4 -8.5 q0 -4.5 4 -8.5 q4 -4 8.5 -4 q4.5 0 8.5 4 ZM406 393 q4 -4 9 -4 q5 0 8.5 4 q3.5 4 3.5 8.5 q0 4.5 -4 8.5 l-17 17 q-3 4 -8 4 q-5 0 -8.5 -4 q-3.5 -4 -3.5 -8.5 q0 -4.5 3 -8.5 l17 -17 ZM474 359 q-4 4 -9 4 q-5 0 -8.5 -4 q-3.5 -4 -3.5 -8.5 q0 -4.5 4 -8.5 l17 -17 q3 -4 8 -4 q5 0 8.5 4 q3.5 4 3.5 8.5 q0 4.5 -3 8.5 l-17 17 ZM112 176 q0 26 19 45 q19 19 45 19 q7 0 11.5 4.5 q4.5 4.5 4.5 11.5 q0 7 -4.5 11.5 q-4.5 4.5 -11.5 4.5 q-40 0 -68 -28 q-28 -28 -28 -68 q0 -7 4.5 -11.5 q4.5 -4.5 11.5 -4.5 q7 0 11.5 4.5 q4.5 4.5 4.5 11.5 Z" /><glyph glyph-name="book" unicode="&#xf02d;" d="M448 88 l0 336 q0 10 -7 17 q-7 7 -17 7 l-328 0 q-40 0 -68 -28 q-28 -28 -28 -68 l0 -320 q0 -40 28 -68 q28 -28 68 -28 l328 0 q10 0 17 7 q7 7 7 17 l0 16 q0 11 -9 19 q-3 11 -3 37 q0 26 3 37 q9 7 9 19 ZM128 314 q0 2 2 4 q2 2 4 2 l212 0 q2 0 4 -2 q2 -2 2 -4 l0 -20 q0 -2 -2 -4 q-2 -2 -4 -2 l-212 0 q-2 0 -4 2 q-2 2 -2 4 l0 20 ZM128 250 q0 2 2 4 q2 2 4 2 l212 0 q2 0 4 -2 q2 -2 2 -4 l0 -20 q0 -2 -2 -4 q-2 -2 -4 -2 l-212 0 q-2 0 -4 2 q-2 2 -2 4 l0 20 ZM381 0 l-285 0 q-13 0 -22.5 9.5 q-9.5 9.5 -9.5 22.5 q0 13 9.5 22.5 q9.5 9.5 22.5 9.5 l285 0 q-1 -13 -1 -32 q0 -19 1 -32 Z" /><glyph glyph-name="bookmark" unicode="&#xf02e;" d="M0 -64 l0 464 q0 20 14 34 q14 14 34 14 l288 0 q20 0 34 -14 q14 -14 14 -34 l0 -464 l-192 112 l-192 -112 Z" /><glyph glyph-name="bowling-ball" unicode="&#xf436;" d="M248 440 q-67 0 -124 -33.5 q-57 -33.5 -90.5 -90.5 q-33.5 -57 -33.5 -124 q0 -67 33.5 -124 q33.5 -57 90.5 -90.5 q57 -33.5 124 -33.5 q67 0 124 33.5 q57 33.5 90.5 90.5 q33.5 57 33.5 124 q0 67 -33.5 124 q-33.5 57 -90.5 90.5 q-57 33.5 -124 33.5 ZM120 256 q-13 0 -22.5 9.5 q-9.5 9.5 -9.5 22.5 q0 13 9.5 22.5 q9.5 9.5 22.5 9.5 q13 0 22.5 -9.5 q9.5 -9.5 9.5 -22.5 q0 -13 -9.5 -22.5 q-9.5 -9.5 -22.5 -9.5 ZM184 352 q0 13 9.5 22.5 q9.5 9.5 22.5 9.5 q13 0 22.5 -9.5 q9.5 -9.5 9.5 -22.5 q0 -13 -9.5 -22.5 q-9.5 -9.5 -22.5 -9.5 q-13 0 -22.5 9.5 q-9.5 9.5 -9.5 22.5 ZM232 208 q-13 0 -22.5 9.5 q-9.5 9.5 -9.5 22.5 q0 13 9.5 22.5 q9.5 9.5 22.5 9.5 q13 0 22.5 -9.5 q9.5 -9.5 9.5 -22.5 q0 -13 -9.5 -22.5 q-9.5 -9.5 -22.5 -9.5 Z" /><glyph glyph-name="braille" unicode="&#xf2a1;" d="M128 192 q0 -27 -18.5 -45.5 q-18.5 -18.5 -45.5 -18.5 q-27 0 -45.5 18.5 q-18.5 18.5 -18.5 45.5 q0 27 18.5 45.5 q18.5 18.5 45.5 18.5 q27 0 45.5 -18.5 q18.5 -18.5 18.5 -45.5 ZM64 64 q-13 0 -22.5 -9.5 q-9.5 -9.5 -9.5 -22.5 q0 -13 9.5 -22.5 q9.5 -9.5 22.5 -9.5 q13 0 22.5 9.5 q9.5 9.5 9.5 22.5 q0 13 -9.5 22.5 q-9.5 9.5 -22.5 9.5 ZM64 416 q-27 0 -45.5 -18.5 q-18.5 -18.5 -18.5 -45.5 q0 -27 18.5 -45.5 q18.5 -18.5 45.5 -18.5 q27 0 45.5 18.5 q18.5 18.5 18.5 45.5 q0 27 -18.5 45.5 q-18.5 18.5 -45.5 18.5 ZM224 224 q-13 0 -22.5 -9.5 q-9.5 -9.5 -9.5 -22.5 q0 -13 9.5 -22.5 q9.5 -9.5 22.5 -9.5 q13 0 22.5 9.5 q9.5 9.5 9.5 22.5 q0 13 -9.5 22.5 q-9.5 9.5 -22.5 9.5 ZM224 64 q-13 0 -22.5 -9.5 q-9.5 -9.5 -9.5 -22.5 q0 -13 9.5 -22.5 q9.5 -9.5 22.5 -9.5 q13 0 22.5 9.5 q9.5 9.5 9.5 22.5 q0 13 -9.5 22.5 q-9.5 9.5 -22.5 9.5 ZM224 416 q-27 0 -45.5 -18.5 q-18.5 -18.5 -18.5 -45.5 q0 -27 18.5 -45.5 q18.5 -18.5 45.5 -18.5 q27 0 45.5 18.5 q18.5 18.5 18.5 45.5 q0 27 -18.5 45.5 q-18.5 18.5 -45.5 18.5 ZM448 224 q-13 0 -22.5 -9.5 q-9.5 -9.5 -9.5 -22.5 q0 -13 9.5 -22.5 q9.5 -9.5 22.5 -9.5 q13 0 22.5 9.5 q9.5 9.5 9.5 22.5 q0 13 -9.5 22.5 q-9.5 9.5 -22.5 9.5 ZM448 64 q-13 0 -22.5 -9.5 q-9.5 -9.5 -9.5 -22.5 q0 -13 9.5 -22.5 q9.5 -9.5 22.5 -9.5 q13 0 22.5 9.5 q9.5 9.5 9.5 22.5 q0 13 -9.5 22.5 q-9.5 9.5 -22.5 9.5 ZM448 416 q-27 0 -45.5 -18.5 q-18.5 -18.5 -18.5 -45.5 q0 -27 18.5 -45.5 q18.5 -18.5 45.5 -18.5 q27 0 45.5 18.5 q18.5 18.5 18.5 45.5 q0 27 -18.5 45.5 q-18.5 18.5 -45.5 18.5 ZM608 224 q-13 0 -22.5 -9.5 q-9.5 -9.5 -9.5 -22.5 q0 -13 9.5 -22.5 q9.5 -9.5 22.5 -9.5 q13 0 22.5 9.5 q9.5 9.5 9.5 22.5 q0 13 -9.5 22.5 q-9.5 9.5 -22.5 9.5 ZM608 64 q-13 0 -22.5 -9.5 q-9.5 -9.5 -9.5 -22.5 q0 -13 9.5 -22.5 q9.5 -9.5 22.5 -9.5 q13 0 22.5 9.5 q9.5 9.5 9.5 22.5 q0 13 -9.5 22.5 q-9.5 9.5 -22.5 9.5 ZM608 384 q-13 0 -22.5 -9.5 q-9.5 -9.5 -9.5 -22.5 q0 -13 9.5 -22.5 q9.5 -9.5 22.5 -9.5 q13 0 22.5 9.5 q9.5 9.5 9.5 22.5 q0 13 -9.5 22.5 q-9.5 9.5 -22.5 9.5 Z" /><glyph glyph-name="briefcase" unicode="&#xf0b1;" d="M320 160 l192 0 l0 -144 q0 -20 -14 -34 q-14 -14 -34 -14 l-416 0 q-20 0 -34 14 q-14 14 -14 34 l0 144 l192 0 l0 -20 q0 -5 3.5 -8.5 q3.5 -3.5 8.5 -3.5 l104 0 q5 0 8.5 3.5 q3.5 3.5 3.5 8.5 l0 20 ZM512 272 l0 -80 l-512 0 l0 80 q0 20 14 34 q14 14 34 14 l80 0 l0 48 q0 20 14 34 q14 14 34 14 l160 0 q20 0 34 -14 q14 -14 14 -34 l0 -48 l80 0 q20 0 34 -14 q14 -14 14 -34 ZM320 352 l-128 0 l0 -32 l128 0 l0 32 Z" /><glyph glyph-name="bug" unicode="&#xf188;" d="M512 159 q0 -13 -10 -22 q-10 -9 -23 -9 l-55 0 l0 -16 q0 -32 -14 -61 l61 -60 q9 -10 9 -23 q0 -13 -9.5 -22.5 q-9.5 -9.5 -22.5 -9.5 q-13 0 -23 9 l-54 55 q-40 -32 -91 -32 l0 244 q0 5 -3.5 8.5 q-3.5 3.5 -8.5 3.5 l-24 0 q-5 0 -8.5 -3.5 q-3.5 -3.5 -3.5 -8.5 l0 -244 q-51 0 -91 32 l-54 -55 q-10 -9 -23 -9 q-13 0 -22.5 9.5 q-9.5 9.5 -9.5 22.5 q0 13 9 23 l61 60 q-14 29 -14 61 l0 16 l-55 0 q-13 0 -23 9 q-10 9 -10 22.5 q0 13.5 9.5 23 q9.5 9.5 22.5 9.5 l56 0 l0 59 l-47 46 q-9 10 -9 23 q0 13 9.5 22.5 q9.5 9.5 22.5 9.5 q13 0 23 -9 l54 -55 l230 0 l54 55 q10 9 23 9 q13 0 22.5 -9.5 q9.5 -9.5 9.5 -22.5 q0 -13 -9 -23 l-47 -46 l0 -59 l56 0 q13 0 22.5 -9.5 q9.5 -9.5 9.5 -23.5 ZM257 448 q-30 0 -56 -15 q-26 -15 -41 -41 q-15 -26 -15 -56 l224 0 q0 30 -15 56 q-15 26 -41 41 q-26 15 -56 15 Z" /><glyph glyph-name="building" unicode="&#xf1ad;" d="M436 -32 l-20 0 l0 456 q0 10 -7 17 q-7 7 -17 7 l-336 0 q-10 0 -17 -7 q-7 -7 -7 -17 l0 -456 l-20 0 q-5 0 -8.5 -3.5 q-3.5 -3.5 -3.5 -8.5 l0 -20 l448 0 l0 20 q0 5 -3.5 8.5 q-3.5 3.5 -8.5 3.5 ZM128 372 q0 5 3.5 8.5 q3.5 3.5 8.5 3.5 l40 0 q5 0 8.5 -3.5 q3.5 -3.5 3.5 -8.5 l0 -40 q0 -5 -3.5 -8.5 q-3.5 -3.5 -8.5 -3.5 l-40 0 q-5 0 -8.5 3.5 q-3.5 3.5 -3.5 8.5 l0 40 ZM128 276 q0 5 3.5 8.5 q3.5 3.5 8.5 3.5 l40 0 q5 0 8.5 -3.5 q3.5 -3.5 3.5 -8.5 l0 -40 q0 -5 -3.5 -8.5 q-3.5 -3.5 -8.5 -3.5 l-40 0 q-5 0 -8.5 3.5 q-3.5 3.5 -3.5 8.5 l0 40 ZM180 128 l-40 0 q-5 0 -8.5 3.5 q-3.5 3.5 -3.5 8.5 l0 40 q0 5 3.5 8.5 q3.5 3.5 8.5 3.5 l40 0 q5 0 8.5 -3.5 q3.5 -3.5 3.5 -8.5 l0 -40 q0 -5 -3.5 -8.5 q-3.5 -3.5 -8.5 -3.5 ZM256 -32 l-64 0 l0 84 q0 5 3.5 8.5 q3.5 3.5 8.5 3.5 l40 0 q5 0 8.5 -3.5 q3.5 -3.5 3.5 -8.5 l0 -84 ZM320 140 q0 -5 -3.5 -8.5 q-3.5 -3.5 -8.5 -3.5 l-40 0 q-5 0 -8.5 3.5 q-3.5 3.5 -3.5 8.5 l0 40 q0 5 3.5 8.5 q3.5 3.5 8.5 3.5 l40 0 q5 0 8.5 -3.5 q3.5 -3.5 3.5 -8.5 l0 -40 ZM320 236 q0 -5 -3.5 -8.5 q-3.5 -3.5 -8.5 -3.5 l-40 0 q-5 0 -8.5 3.5 q-3.5 3.5 -3.5 8.5 l0 40 q0 5 3.5 8.5 q3.5 3.5 8.5 3.5 l40 0 q5 0 8.5 -3.5 q3.5 -3.5 3.5 -8.5 l0 -40 ZM320 332 q0 -5 -3.5 -8.5 q-3.5 -3.5 -8.5 -3.5 l-40 0 q-5 0 -8.5 3.5 q-3.5 3.5 -3.5 8.5 l0 40 q0 5 3.5 8.5 q3.5 3.5 8.5 3.5 l40 0 q5 0 8.5 -3.5 q3.5 -3.5 3.5 -8.5 l0 -40 Z" /><glyph glyph-name="bullhorn" unicode="&#xf0a1;" d="M576 224 q0 15 -9 27.5 q-9 12.5 -23 17.5 l0 115 q0 27 -18.5 45.5 q-18.5 18.5 -45.5 18.5 l-9 -8 q-43 -37 -69 -55 q-42 -30 -85 -46 q-51 -19 -109 -19 l-160 0 q-20 0 -34 -14 q-14 -14 -14 -34 l0 -96 q0 -20 14 -34 q14 -14 34 -14 l43 0 q-11 -39 -5 -81 q4 -25 19 -72 l5 -14 q3 -9 10 -13 q16 -10 45.5 -11.5 q29.5 -1.5 48.5 6.5 q12 5 14.5 17.5 q2.5 12.5 -7.5 21.5 q-15 15 -20 28 q-7 16 0 33 q3 6 -1 12 q-12 18 -3.5 41 q8.5 23 32.5 31 q52 -3 99 -22 q39 -16 79 -45 q23 -17 64 -52 l9 -8 q27 0 45.5 18.5 q18.5 18.5 18.5 45.5 l0 115 q14 5 23 17.5 q9 12.5 9 27.5 ZM480 84 q-50 42 -95 65 q-62 32 -129 40 l0 70 q67 8 129 40 q45 23 95 65 l0 -280 Z" /><glyph glyph-name="bullseye" unicode="&#xf140;" d="M256 376 q50 0 92.5 -24.5 q42.5 -24.5 67 -67 q24.5 -42.5 24.5 -92.5 q0 -50 -24.5 -92.5 q-24.5 -42.5 -67 -67 q-42.5 -24.5 -92.5 -24.5 q-50 0 -92.5 24.5 q-42.5 24.5 -67 67 q-24.5 42.5 -24.5 92.5 q0 50 24.5 92.5 q24.5 42.5 67 67 q42.5 24.5 92.5 24.5 ZM256 440 q-67 0 -124 -33.5 q-57 -33.5 -90.5 -90.5 q-33.5 -57 -33.5 -124 q0 -67 33.5 -124 q33.5 -57 90.5 -90.5 q57 -33.5 124 -33.5 q67 0 124 33.5 q57 33.5 90.5 90.5 q33.5 57 33.5 124 q0 67 -33.5 124 q-33.5 57 -90.5 90.5 q-57 33.5 -124 33.5 ZM256 256 q26 0 45 -19 q19 -19 19 -45 q0 -26 -19 -45 q-19 -19 -45 -19 q-26 0 -45 19 q-19 19 -19 45 q0 26 19 45 q19 19 45 19 ZM256 320 q-35 0 -64.5 -17 q-29.5 -17 -46.5 -46.5 q-17 -29.5 -17 -64.5 q0 -35 17 -64.5 q17 -29.5 46.5 -46.5 q29.5 -17 64.5 -17 q35 0 64.5 17 q29.5 17 46.5 46.5 q17 29.5 17 64.5 q0 35 -17 64.5 q-17 29.5 -46.5 46.5 q-29.5 17 -64.5 17 Z" /><glyph glyph-name="bus" unicode="&#xf207;" d="M512 296 l0 -80 q0 -10 -7 -17 q-7 -7 -17 -7 l-8 0 l0 -168 q0 -10 -7 -17 q-7 -7 -17 -7 l-8 0 l0 -40 q0 -10 -7 -17 q-7 -7 -17 -7 l-48 0 q-10 0 -17 7 q-7 7 -7 17 l0 40 l-192 0 l0 -40 q0 -10 -7 -17 q-7 -7 -17 -7 l-48 0 q-10 0 -17 7 q-7 7 -7 17 l0 40 l-8 0 q-10 0 -17 7 q-7 7 -7 17 l0 168 l-8 0 q-10 0 -17 7 q-7 7 -7 17 l0 80 q0 10 7 17 q7 7 17 7 l8 0 l0 48 q0 22 30 40 q30 18 81.5 29 q51.5 11 112.5 11 q61 0 112.5 -11 q51.5 -11 81.5 -29 q30 -18 30 -40 l0 -48 l8 0 q10 0 17 -7 q7 -7 7 -17 ZM112 128 q-17 0 -28.5 -11.5 q-11.5 -11.5 -11.5 -28.5 q0 -17 11.5 -28.5 q11.5 -11.5 28.5 -11.5 q17 0 28.5 11.5 q11.5 11.5 11.5 28.5 q0 17 -11.5 28.5 q-11.5 11.5 -28.5 11.5 ZM400 128 q-17 0 -28.5 -11.5 q-11.5 -11.5 -11.5 -28.5 q0 -17 11.5 -28.5 q11.5 -11.5 28.5 -11.5 q17 0 28.5 11.5 q11.5 11.5 11.5 28.5 q0 17 -11.5 28.5 q-11.5 11.5 -28.5 11.5 ZM432 184 l0 144 q0 10 -7 17 q-7 7 -17 7 l-304 0 q-10 0 -17 -7 q-7 -7 -7 -17 l0 -144 q0 -10 7 -17 q7 -7 17 -7 l304 0 q10 0 17 7 q7 7 7 17 Z" /><glyph glyph-name="calculator" unicode="&#xf1ec;" d="M0 -16 l0 416 q0 20 14 34 q14 14 34 14 l352 0 q20 0 34 -14 q14 -14 14 -34 l0 -416 q0 -20 -14 -34 q-14 -14 -34 -14 l-352 0 q-20 0 -34 14 q-14 14 -14 34 ZM384 268 l0 104 q0 5 -3.5 8.5 q-3.5 3.5 -8.5 3.5 l-296 0 q-5 0 -8.5 -3.5 q-3.5 -3.5 -3.5 -8.5 l0 -104 q0 -5 3.5 -8.5 q3.5 -3.5 8.5 -3.5 l296 0 q5 0 8.5 3.5 q3.5 3.5 3.5 8.5 ZM128 140 l0 40 q0 5 -3.5 8.5 q-3.5 3.5 -8.5 3.5 l-40 0 q-5 0 -8.5 -3.5 q-3.5 -3.5 -3.5 -8.5 l0 -40 q0 -5 3.5 -8.5 q3.5 -3.5 8.5 -3.5 l40 0 q5 0 8.5 3.5 q3.5 3.5 3.5 8.5 ZM384 12 l0 168 q0 5 -3.5 8.5 q-3.5 3.5 -8.5 3.5 l-40 0 q-5 0 -8.5 -3.5 q-3.5 -3.5 -3.5 -8.5 l0 -168 q0 -5 3.5 -8.5 q3.5 -3.5 8.5 -3.5 l40 0 q5 0 8.5 3.5 q3.5 3.5 3.5 8.5 ZM128 12 l0 40 q0 5 -3.5 8.5 q-3.5 3.5 -8.5 3.5 l-40 0 q-5 0 -8.5 -3.5 q-3.5 -3.5 -3.5 -8.5 l0 -40 q0 -5 3.5 -8.5 q3.5 -3.5 8.5 -3.5 l40 0 q5 0 8.5 3.5 q3.5 3.5 3.5 8.5 ZM256 140 l0 40 q0 5 -3.5 8.5 q-3.5 3.5 -8.5 3.5 l-40 0 q-5 0 -8.5 -3.5 q-3.5 -3.5 -3.5 -8.5 l0 -40 q0 -5 3.5 -8.5 q3.5 -3.5 8.5 -3.5 l40 0 q5 0 8.5 3.5 q3.5 3.5 3.5 8.5 ZM256 12 l0 40 q0 5 -3.5 8.5 q-3.5 3.5 -8.5 3.5 l-40 0 q-5 0 -8.5 -3.5 q-3.5 -3.5 -3.5 -8.5 l0 -40 q0 -5 3.5 -8.5 q3.5 -3.5 8.5 -3.5 l40 0 q5 0 8.5 3.5 q3.5 3.5 3.5 8.5 Z" /><glyph glyph-name="calendar-alt" unicode="&#xf073;" d="M436 288 l-424 0 q-5 0 -8.5 3.5 q-3.5 3.5 -3.5 8.5 l0 36 q0 20 14 34 q14 14 34 14 l48 0 l0 52 q0 5 3.5 8.5 q3.5 3.5 8.5 3.5 l40 0 q5 0 8.5 -3.5 q3.5 -3.5 3.5 -8.5 l0 -52 l128 0 l0 52 q0 5 3.5 8.5 q3.5 3.5 8.5 3.5 l40 0 q5 0 8.5 -3.5 q3.5 -3.5 3.5 -8.5 l0 -52 l48 0 q20 0 34 -14 q14 -14 14 -34 l0 -36 q0 -5 -3.5 -8.5 q-3.5 -3.5 -8.5 -3.5 ZM12 256 l424 0 q5 0 8.5 -3.5 q3.5 -3.5 3.5 -8.5 l0 -260 q0 -20 -14 -34 q-14 -14 -34 -14 l-352 0 q-20 0 -34 14 q-14 14 -14 34 l0 260 q0 5 3.5 8.5 q3.5 3.5 8.5 3.5 ZM128 52 q0 5 -3.5 8.5 q-3.5 3.5 -8.5 3.5 l-40 0 q-5 0 -8.5 -3.5 q-3.5 -3.5 -3.5 -8.5 l0 -40 q0 -5 3.5 -8.5 q3.5 -3.5 8.5 -3.5 l40 0 q5 0 8.5 3.5 q3.5 3.5 3.5 8.5 l0 40 ZM128 180 q0 5 -3.5 8.5 q-3.5 3.5 -8.5 3.5 l-40 0 q-5 0 -8.5 -3.5 q-3.5 -3.5 -3.5 -8.5 l0 -40 q0 -5 3.5 -8.5 q3.5 -3.5 8.5 -3.5 l40 0 q5 0 8.5 3.5 q3.5 3.5 3.5 8.5 l0 40 ZM256 52 q0 5 -3.5 8.5 q-3.5 3.5 -8.5 3.5 l-40 0 q-5 0 -8.5 -3.5 q-3.5 -3.5 -3.5 -8.5 l0 -40 q0 -5 3.5 -8.5 q3.5 -3.5 8.5 -3.5 l40 0 q5 0 8.5 3.5 q3.5 3.5 3.5 8.5 l0 40 ZM256 180 q0 5 -3.5 8.5 q-3.5 3.5 -8.5 3.5 l-40 0 q-5 0 -8.5 -3.5 q-3.5 -3.5 -3.5 -8.5 l0 -40 q0 -5 3.5 -8.5 q3.5 -3.5 8.5 -3.5 l40 0 q5 0 8.5 3.5 q3.5 3.5 3.5 8.5 l0 40 ZM384 52 q0 5 -3.5 8.5 q-3.5 3.5 -8.5 3.5 l-40 0 q-5 0 -8.5 -3.5 q-3.5 -3.5 -3.5 -8.5 l0 -40 q0 -5 3.5 -8.5 q3.5 -3.5 8.5 -3.5 l40 0 q5 0 8.5 3.5 q3.5 3.5 3.5 8.5 l0 40 ZM384 180 q0 5 -3.5 8.5 q-3.5 3.5 -8.5 3.5 l-40 0 q-5 0 -8.5 -3.5 q-3.5 -3.5 -3.5 -8.5 l0 -40 q0 -5 3.5 -8.5 q3.5 -3.5 8.5 -3.5 l40 0 q5 0 8.5 3.5 q3.5 3.5 3.5 8.5 l0 40 Z" /><glyph glyph-name="calendar-check" unicode="&#xf274;" d="M436 288 l-424 0 q-5 0 -8.5 3.5 q-3.5 3.5 -3.5 8.5 l0 36 q0 20 14 34 q14 14 34 14 l48 0 l0 52 q0 5 3.5 8.5 q3.5 3.5 8.5 3.5 l40 0 q5 0 8.5 -3.5 q3.5 -3.5 3.5 -8.5 l0 -52 l128 0 l0 52 q0 5 3.5 8.5 q3.5 3.5 8.5 3.5 l40 0 q5 0 8.5 -3.5 q3.5 -3.5 3.5 -8.5 l0 -52 l48 0 q20 0 34 -14 q14 -14 14 -34 l0 -36 q0 -5 -3.5 -8.5 q-3.5 -3.5 -8.5 -3.5 ZM12 256 l424 0 q5 0 8.5 -3.5 q3.5 -3.5 3.5 -8.5 l0 -260 q0 -20 -14 -34 q-14 -14 -34 -14 l-352 0 q-20 0 -34 14 q-14 14 -14 34 l0 260 q0 5 3.5 8.5 q3.5 3.5 8.5 3.5 ZM345 160 l-28 28 q-3 4 -8 4 q-5 0 -9 -3 l-106 -106 l-46 47 q-3 3 -8 3 q-5 0 -9 -3 l-28 -28 q-4 -4 -4 -9 q0 -5 4 -8 l82 -84 q4 -3 9 -3 q5 0 8 3 l143 142 q4 4 4 9 q0 5 -4 8 Z" /><glyph glyph-name="calendar-minus" unicode="&#xf272;" d="M436 288 l-424 0 q-5 0 -8.5 3.5 q-3.5 3.5 -3.5 8.5 l0 36 q0 20 14 34 q14 14 34 14 l48 0 l0 52 q0 5 3.5 8.5 q3.5 3.5 8.5 3.5 l40 0 q5 0 8.5 -3.5 q3.5 -3.5 3.5 -8.5 l0 -52 l128 0 l0 52 q0 5 3.5 8.5 q3.5 3.5 8.5 3.5 l40 0 q5 0 8.5 -3.5 q3.5 -3.5 3.5 -8.5 l0 -52 l48 0 q20 0 34 -14 q14 -14 14 -34 l0 -36 q0 -5 -3.5 -8.5 q-3.5 -3.5 -8.5 -3.5 ZM12 256 l424 0 q5 0 8.5 -3.5 q3.5 -3.5 3.5 -8.5 l0 -260 q0 -20 -14 -34 q-14 -14 -34 -14 l-352 0 q-20 0 -34 14 q-14 14 -14 34 l0 260 q0 5 3.5 8.5 q3.5 3.5 8.5 3.5 ZM316 64 q5 0 8.5 3.5 q3.5 3.5 3.5 8.5 l0 40 q0 5 -3.5 8.5 q-3.5 3.5 -8.5 3.5 l-184 0 q-5 0 -8.5 -3.5 q-3.5 -3.5 -3.5 -8.5 l0 -40 q0 -5 3.5 -8.5 q3.5 -3.5 8.5 -3.5 l184 0 Z" /><glyph glyph-name="calendar-plus" unicode="&#xf271;" d="M436 288 l-424 0 q-5 0 -8.5 3.5 q-3.5 3.5 -3.5 8.5 l0 36 q0 20 14 34 q14 14 34 14 l48 0 l0 52 q0 5 3.5 8.5 q3.5 3.5 8.5 3.5 l40 0 q5 0 8.5 -3.5 q3.5 -3.5 3.5 -8.5 l0 -52 l128 0 l0 52 q0 5 3.5 8.5 q3.5 3.5 8.5 3.5 l40 0 q5 0 8.5 -3.5 q3.5 -3.5 3.5 -8.5 l0 -52 l48 0 q20 0 34 -14 q14 -14 14 -34 l0 -36 q0 -5 -3.5 -8.5 q-3.5 -3.5 -8.5 -3.5 ZM12 256 l424 0 q5 0 8.5 -3.5 q3.5 -3.5 3.5 -8.5 l0 -260 q0 -20 -14 -34 q-14 -14 -34 -14 l-352 0 q-20 0 -34 14 q-14 14 -14 34 l0 260 q0 5 3.5 8.5 q3.5 3.5 8.5 3.5 ZM328 116 q0 5 -3.5 8.5 q-3.5 3.5 -8.5 3.5 l-60 0 l0 60 q0 5 -3.5 8.5 q-3.5 3.5 -8.5 3.5 l-40 0 q-5 0 -8.5 -3.5 q-3.5 -3.5 -3.5 -8.5 l0 -60 l-60 0 q-5 0 -8.5 -3.5 q-3.5 -3.5 -3.5 -8.5 l0 -40 q0 -5 3.5 -8.5 q3.5 -3.5 8.5 -3.5 l60 0 l0 -60 q0 -5 3.5 -8.5 q3.5 -3.5 8.5 -3.5 l40 0 q5 0 8.5 3.5 q3.5 3.5 3.5 8.5 l0 60 l60 0 q5 0 8.5 3.5 q3.5 3.5 3.5 8.5 l0 40 Z" /><glyph glyph-name="calendar-times" unicode="&#xf273;" d="M436 288 l-424 0 q-5 0 -8.5 3.5 q-3.5 3.5 -3.5 8.5 l0 36 q0 20 14 34 q14 14 34 14 l48 0 l0 52 q0 5 3.5 8.5 q3.5 3.5 8.5 3.5 l40 0 q5 0 8.5 -3.5 q3.5 -3.5 3.5 -8.5 l0 -52 l128 0 l0 52 q0 5 3.5 8.5 q3.5 3.5 8.5 3.5 l40 0 q5 0 8.5 -3.5 q3.5 -3.5 3.5 -8.5 l0 -52 l48 0 q20 0 34 -14 q14 -14 14 -34 l0 -36 q0 -5 -3.5 -8.5 q-3.5 -3.5 -8.5 -3.5 ZM12 256 l424 0 q5 0 8.5 -3.5 q3.5 -3.5 3.5 -8.5 l0 -260 q0 -20 -14 -34 q-14 -14 -34 -14 l-352 0 q-20 0 -34 14 q-14 14 -14 34 l0 260 q0 5 3.5 8.5 q3.5 3.5 8.5 3.5 ZM269 96 l48 48 q4 4 4 9 q0 5 -4 8 l-28 28 q-3 4 -8 4 q-5 0 -9 -4 l-48 -48 l-48 48 q-4 4 -9 4 q-5 0 -8 -4 l-28 -28 q-4 -3 -4 -8 q0 -5 4 -9 l48 -48 l-48 -48 q-4 -4 -4 -9 q0 -5 4 -8 l28 -28 q3 -4 8 -4 q5 0 9 4 l48 48 l48 -48 q4 -4 9 -4 q5 0 8 4 l28 28 q4 3 4 8 q0 5 -4 9 l-48 48 Z" /><glyph glyph-name="calendar" unicode="&#xf133;" d="M12 256 l424 0 q5 0 8.5 -3.5 q3.5 -3.5 3.5 -8.5 l0 -260 q0 -20 -14 -34 q-14 -14 -34 -14 l-352 0 q-20 0 -34 14 q-14 14 -14 34 l0 260 q0 5 3.5 8.5 q3.5 3.5 8.5 3.5 ZM448 300 l0 36 q0 20 -14 34 q-14 14 -34 14 l-48 0 l0 52 q0 5 -3.5 8.5 q-3.5 3.5 -8.5 3.5 l-40 0 q-5 0 -8.5 -3.5 q-3.5 -3.5 -3.5 -8.5 l0 -52 l-128 0 l0 52 q0 5 -3.5 8.5 q-3.5 3.5 -8.5 3.5 l-40 0 q-5 0 -8.5 -3.5 q-3.5 -3.5 -3.5 -8.5 l0 -52 l-48 0 q-20 0 -34 -14 q-14 -14 -14 -34 l0 -36 q0 -5 3.5 -8.5 q3.5 -3.5 8.5 -3.5 l424 0 q5 0 8.5 3.5 q3.5 3.5 3.5 8.5 Z" /><glyph glyph-name="camera-retro" unicode="&#xf083;" d="M48 416 q-20 0 -34 -14 q-14 -14 -14 -34 l0 -352 q0 -20 14 -34 q14 -14 34 -14 l416 0 q20 0 34 14 q14 14 14 34 l0 352 q0 20 -14 34 q-14 14 -34 14 l-416 0 ZM48 384 l106 0 q2 0 4 -2 q2 -2 2 -4 l0 -20 q0 -2 -2 -4 q-2 -2 -4 -2 l-116 0 q-2 0 -4 2 q-2 2 -2 4 l0 10 q0 7 4.5 11.5 q4.5 4.5 11.5 4.5 ZM474 288 l-436 0 q-2 0 -4 2 q-2 2 -2 4 l0 36 q0 2 2 4 q2 2 4 2 l138 0 l30 45 q2 3 5 3 l253 0 q7 0 11.5 -4.5 q4.5 -4.5 4.5 -11.5 l0 -74 q0 -2 -2 -4 q-2 -2 -4 -2 ZM256 24 q-33 0 -60.5 16 q-27.5 16 -43.5 43.5 q-16 27.5 -16 60.5 q0 33 16 60.5 q16 27.5 43.5 43.5 q27.5 16 60.5 16 q33 0 60.5 -16 q27.5 -16 43.5 -43.5 q16 -27.5 16 -60.5 q0 -33 -16 -60.5 q-16 -27.5 -43.5 -43.5 q-27.5 -16 -60.5 -16 ZM256 232 q-36 0 -62 -26 q-26 -26 -26 -62 q0 -36 26 -62 q26 -26 62 -26 q36 0 62 26 q26 26 26 62 q0 36 -26 62 q-26 26 -62 26 ZM208 128 q-7 0 -11.5 4.5 q-4.5 4.5 -4.5 11.5 q0 26 19 45 q19 19 45 19 q7 0 11.5 -4.5 q4.5 -4.5 4.5 -11.5 q0 -7 -4.5 -11.5 q-4.5 -4.5 -11.5 -4.5 q-13 0 -22.5 -9.5 q-9.5 -9.5 -9.5 -22.5 q0 -7 -4.5 -11.5 q-4.5 -4.5 -11.5 -4.5 Z" /><glyph glyph-name="camera" unicode="&#xf030;" d="M512 304 l0 -288 q0 -20 -14 -34 q-14 -14 -34 -14 l-416 0 q-20 0 -34 14 q-14 14 -14 34 l0 288 q0 20 14 34 q14 14 34 14 l88 0 l12 33 q6 14 18 22.5 q12 8.5 27 8.5 l126 0 q15 0 27 -8.5 q12 -8.5 18 -22.5 l12 -33 l88 0 q20 0 34 -14 q14 -14 14 -34 ZM376 160 q0 33 -16 60.5 q-16 27.5 -43.5 43.5 q-27.5 16 -60.5 16 q-33 0 -60.5 -16 q-27.5 -16 -43.5 -43.5 q-16 -27.5 -16 -60.5 q0 -33 16 -60.5 q16 -27.5 43.5 -43.5 q27.5 -16 60.5 -16 q33 0 60.5 16 q27.5 16 43.5 43.5 q16 27.5 16 60.5 ZM344 160 q0 -36 -26 -62 q-26 -26 -62 -26 q-36 0 -62 26 q-26 26 -26 62 q0 36 26 62 q26 26 62 26 q36 0 62 -26 q26 -26 26 -62 Z" /><glyph glyph-name="car" unicode="&#xf1b9;" d="M500 280 l-55 0 l-8 21 q-14 37 -47 60 q-33 23 -73 23 l-122 0 q-40 0 -73 -23 q-33 -23 -47 -60 l-8 -21 l-55 0 q-6 0 -9.5 -5 q-3.5 -5 -1.5 -11 l8 -24 q2 -8 11 -8 l29 0 l0 0 q-15 -9 -24 -23.5 q-9 -14.5 -9 -32.5 l0 -48 q0 -24 16 -42 l0 -62 q0 -10 7 -17 q7 -7 17 -7 l48 0 q10 0 17 7 q7 7 7 17 l0 40 l256 0 l0 -40 q0 -10 7 -17 q7 -7 17 -7 l48 0 q10 0 17 7 q7 7 7 17 l0 62 q16 18 16 42 l0 48 q0 18 -9 32.5 q-9 14.5 -24 23.5 l0 0 l29 0 q9 0 11 8 l8 24 q2 6 -1.5 11 q-3.5 5 -9.5 5 ZM135 278 q7 19 23.5 30.5 q16.5 11.5 36.5 11.5 l122 0 q20 0 36.5 -11.5 q16.5 -11.5 23.5 -30.5 l15 -38 l-272 0 l15 38 ZM88 120 q-13 0 -22.5 9.5 q-9.5 9.5 -9.5 22.5 q0 13 9.5 22.5 q9.5 9.5 22.5 9.5 q13 0 30.5 -17.5 q17.5 -17.5 17.5 -30.5 q0 -11 -15 -14 q-9 -2 -29 -2 l-4 0 ZM424 120 q-1 0 -4 0 q-20 0 -29 2 q-15 3 -15 14 q0 13 17.5 30.5 q17.5 17.5 30.5 17.5 q13 0 22.5 -9.5 q9.5 -9.5 9.5 -22.5 q0 -13 -9.5 -22.5 q-9.5 -9.5 -22.5 -9.5 Z" /><glyph glyph-name="caret-down" unicode="&#xf0d7;" d="M31 256 l258 0 q13 0 18 -12.5 q5 -12.5 -4 -21.5 l-129 -129 q-6 -6 -14 -6 q-8 0 -14 6 l-129 129 q-9 9 -4 21.5 q5 12.5 18 12.5 Z" /><glyph glyph-name="caret-left" unicode="&#xf0d9;" d="M192 321 l0 -258 q0 -13 -12.5 -18 q-12.5 -5 -21.5 4 l-129 129 q-6 6 -6 14 q0 8 6 14 l129 129 q9 9 21.5 4 q12.5 -5 12.5 -18 Z" /><glyph glyph-name="caret-right" unicode="&#xf0da;" d="M0 63 l0 258 q0 13 12.5 18 q12.5 5 21.5 -4 l129 -129 q6 -6 6 -14 q0 -8 -6 -14 l-129 -129 q-9 -9 -21.5 -4 q-12.5 5 -12.5 18 Z" /><glyph glyph-name="caret-square-down" unicode="&#xf150;" d="M448 368 l0 -352 q0 -20 -14 -34 q-14 -14 -34 -14 l-352 0 q-20 0 -34 14 q-14 14 -14 34 l0 352 q0 20 14 34 q14 14 34 14 l352 0 q20 0 34 -14 q14 -14 14 -34 ZM93 228 l123 -123 q3 -4 8 -4 q5 0 9 4 l123 123 q5 5 2 12.5 q-3 7.5 -11 7.5 l-246 0 q-8 0 -11 -7.5 q-3 -7.5 3 -12.5 Z" /><glyph glyph-name="caret-square-left" unicode="&#xf191;" d="M400 -32 l-352 0 q-20 0 -34 14 q-14 14 -14 34 l0 352 q0 20 14 34 q14 14 34 14 l352 0 q20 0 34 -14 q14 -14 14 -34 l0 -352 q0 -20 -14 -34 q-14 -14 -34 -14 ZM260 324 l-124 -124 q-3 -3 -3 -8 q0 -5 3 -8 l124 -124 q5 -5 12.5 -2 q7.5 3 7.5 11 l0 246 q0 8 -7.5 11 q-7.5 3 -12.5 -2 Z" /><glyph glyph-name="caret-square-right" unicode="&#xf152;" d="M48 416 l352 0 q20 0 34 -14 q14 -14 14 -34 l0 -352 q0 -20 -14 -34 q-14 -14 -34 -14 l-352 0 q-20 0 -34 14 q-14 14 -14 34 l0 352 q0 20 14 34 q14 14 34 14 ZM188 60 l124 124 q3 3 3 8 q0 5 -3 8 l-124 124 q-5 5 -12.5 2 q-7.5 -3 -7.5 -11 l0 -246 q0 -8 7.5 -11 q7.5 -3 12.5 2 Z" /><glyph glyph-name="caret-square-up" unicode="&#xf151;" d="M0 16 l0 352 q0 20 14 34 q14 14 34 14 l352 0 q20 0 34 -14 q14 -14 14 -34 l0 -352 q0 -20 -14 -34 q-14 -14 -34 -14 l-352 0 q-20 0 -34 14 q-14 14 -14 34 ZM356 156 l-124 124 q-3 3 -8 3 q-5 0 -8 -3 l-124 -124 q-5 -5 -2 -12.5 q3 -7.5 11 -7.5 l246 0 q8 0 11 7.5 q3 7.5 -2 12.5 Z" /><glyph glyph-name="caret-up" unicode="&#xf0d8;" d="M289 96 l-258 0 q-13 0 -18 12.5 q-5 12.5 4 21.5 l129 129 q6 6 14 6 q8 0 14 -6 l129 -129 q9 -9 4 -21.5 q-5 -12.5 -18 -12.5 Z" /><glyph glyph-name="cart-arrow-down" unicode="&#xf218;" d="M505 128 l-293 0 l6 -32 l269 0 q11 0 18 -9 q7 -9 5 -20 l-6 -25 q15 -7 23.5 -20.5 q8.5 -13.5 8.5 -29.5 q0 -23 -16.5 -39.5 q-16.5 -16.5 -39.5 -16.5 q-23 0 -39 16 q-16 16 -17 39.5 q-1 23.5 17 40.5 l-210 0 q17 -16 17 -40 q0 -24 -17.5 -40.5 q-17.5 -16.5 -41.5 -15.5 q-21 1 -36.5 16.5 q-15.5 15.5 -16.5 36.5 q-1 16 7 30 q8 14 21 22 l-70 343 l-70 0 q-10 0 -17 7 q-7 7 -7 17 l0 16 q0 10 7 17 q7 7 17 7 l103 0 q8 0 14.5 -5.5 q6.5 -5.5 8.5 -13.5 l9 -45 l393 0 q12 0 19 -9 q7 -9 4 -20 l-47 -208 q-2 -9 -8.5 -14 q-6.5 -5 -14.5 -5 ZM403 256 l-43 0 l0 60 q0 5 -3.5 8.5 q-3.5 3.5 -8.5 3.5 l-24 0 q-5 0 -8.5 -3.5 q-3.5 -3.5 -3.5 -8.5 l0 -60 l-43 0 q-8 0 -11 -7.5 q-3 -7.5 2 -12.5 l68 -68 q3 -3 8 -3 q5 0 8 3 l68 68 q5 5 2 12.5 q-3 7.5 -11 7.5 Z" /><glyph glyph-name="cart-plus" unicode="&#xf217;" d="M505 128 l-293 0 l6 -32 l269 0 q11 0 18 -9 q7 -9 5 -20 l-6 -25 q15 -7 23.5 -20.5 q8.5 -13.5 8.5 -29.5 q0 -23 -16.5 -39.5 q-16.5 -16.5 -39.5 -16.5 q-23 0 -39 16 q-16 16 -17 39.5 q-1 23.5 17 40.5 l-210 0 q17 -16 17 -40 q0 -24 -17.5 -40.5 q-17.5 -16.5 -41.5 -15.5 q-21 1 -36.5 16.5 q-15.5 15.5 -16.5 36.5 q-1 16 7 30 q8 14 21 22 l-70 343 l-70 0 q-10 0 -17 7 q-7 7 -7 17 l0 16 q0 10 7 17 q7 7 17 7 l103 0 q8 0 14.5 -5.5 q6.5 -5.5 8.5 -13.5 l9 -45 l393 0 q12 0 19 -9 q7 -9 4 -20 l-47 -208 q-2 -9 -8.5 -14 q-6.5 -5 -14.5 -5 ZM408 280 l-48 0 l0 40 q0 7 -4.5 11.5 q-4.5 4.5 -11.5 4.5 l-16 0 q-7 0 -11.5 -4.5 q-4.5 -4.5 -4.5 -11.5 l0 -40 l-48 0 q-7 0 -11.5 -4.5 q-4.5 -4.5 -4.5 -11.5 l0 -16 q0 -7 4.5 -11.5 q4.5 -4.5 11.5 -4.5 l48 0 l0 -40 q0 -7 4.5 -11.5 q4.5 -4.5 11.5 -4.5 l16 0 q7 0 11.5 4.5 q4.5 4.5 4.5 11.5 l0 40 l48 0 q7 0 11.5 4.5 q4.5 4.5 4.5 11.5 l0 16 q0 7 -4.5 11.5 q-4.5 4.5 -11.5 4.5 Z" /><glyph glyph-name="certificate" unicode="&#xf0a3;" d="M459 192 l46 45 q10 10 6 23.5 q-4 13.5 -17 16.5 l-63 16 l18 62 q4 14 -6 24 q-10 10 -24 6 l-62 -18 l-16 63 q-3 13 -16.5 17 q-13.5 4 -23.5 -6 l-45 -47 l-45 47 q-9 10 -23 6.5 q-14 -3.5 -17 -17.5 l-16 -63 l-62 18 q-14 4 -24 -6 q-10 -10 -6 -24 l18 -62 l-63 -16 q-13 -3 -17 -16.5 q-4 -13.5 6 -23.5 l46 -45 l-46 -45 q-10 -10 -6 -23.5 q4 -13.5 17 -16.5 l63 -16 l-18 -62 q-4 -14 6 -24 q10 -10 24 -6 l62 18 l16 -63 q3 -14 16.5 -17.5 q13.5 -3.5 23.5 6.5 l45 46 l45 -46 q9 -10 23 -6.5 q14 3.5 17 17.5 l16 63 l62 -18 q14 -4 24 6 q10 10 6 24 l-18 62 l63 16 q13 3 17 16.5 q4 13.5 -6 23.5 l-46 45 Z" /><glyph glyph-name="chart-area" unicode="&#xf1fe;" d="M500 64 q5 0 8.5 -3.5 q3.5 -3.5 3.5 -8.5 l0 -40 q0 -5 -3.5 -8.5 q-3.5 -3.5 -8.5 -3.5 l-488 0 q-5 0 -8.5 3.5 q-3.5 3.5 -3.5 8.5 l0 360 q0 5 3.5 8.5 q3.5 3.5 8.5 3.5 l40 0 q5 0 8.5 -3.5 q3.5 -3.5 3.5 -8.5 l0 -308 l436 0 ZM373 289 l-85 -57 l-85 114 q-4 5 -10.5 4.5 q-6.5 -0.5 -9.5 -5.5 l-87 -145 l0 -104 l384 0 l-90 188 q-2 5 -7.5 6.5 q-5.5 1.5 -9.5 -2.5 l0 1 Z" /><glyph glyph-name="chart-bar" unicode="&#xf080;" d="M500 64 q5 0 8.5 -3.5 q3.5 -3.5 3.5 -8.5 l0 -40 q0 -5 -3.5 -8.5 q-3.5 -3.5 -8.5 -3.5 l-488 0 q-5 0 -8.5 3.5 q-3.5 3.5 -3.5 8.5 l0 360 q0 5 3.5 8.5 q3.5 3.5 8.5 3.5 l40 0 q5 0 8.5 -3.5 q3.5 -3.5 3.5 -8.5 l0 -308 l436 0 ZM192 108 l0 72 q0 5 -3.5 8.5 q-3.5 3.5 -8.5 3.5 l-40 0 q-5 0 -8.5 -3.5 q-3.5 -3.5 -3.5 -8.5 l0 -72 q0 -5 3.5 -8.5 q3.5 -3.5 8.5 -3.5 l40 0 q5 0 8.5 3.5 q3.5 3.5 3.5 8.5 ZM384 108 l0 136 q0 5 -3.5 8.5 q-3.5 3.5 -8.5 3.5 l-40 0 q-5 0 -8.5 -3.5 q-3.5 -3.5 -3.5 -8.5 l0 -136 q0 -5 3.5 -8.5 q3.5 -3.5 8.5 -3.5 l40 0 q5 0 8.5 3.5 q3.5 3.5 3.5 8.5 ZM288 108 l0 200 q0 5 -3.5 8.5 q-3.5 3.5 -8.5 3.5 l-40 0 q-5 0 -8.5 -3.5 q-3.5 -3.5 -3.5 -8.5 l0 -200 q0 -5 3.5 -8.5 q3.5 -3.5 8.5 -3.5 l40 0 q5 0 8.5 3.5 q3.5 3.5 3.5 8.5 ZM480 108 l0 232 q0 5 -3.5 8.5 q-3.5 3.5 -8.5 3.5 l-40 0 q-5 0 -8.5 -3.5 q-3.5 -3.5 -3.5 -8.5 l0 -232 q0 -5 3.5 -8.5 q3.5 -3.5 8.5 -3.5 l40 0 q5 0 8.5 3.5 q3.5 3.5 3.5 8.5 Z" /><glyph glyph-name="chart-line" unicode="&#xf201;" d="M500 64 q5 0 8.5 -3.5 q3.5 -3.5 3.5 -8.5 l0 -40 q0 -5 -3.5 -8.5 q-3.5 -3.5 -8.5 -3.5 l-488 0 q-5 0 -8.5 3.5 q-3.5 3.5 -3.5 8.5 l0 360 q0 5 3.5 8.5 q3.5 3.5 8.5 3.5 l40 0 q5 0 8.5 -3.5 q3.5 -3.5 3.5 -8.5 l0 -308 l436 0 ZM456 352 l-112 0 q-10 0 -17 -7 q-7 -7 -7 -17 q0 -10 7 -17 l33 -33 l-72 -73 l-56 56 q-3 3 -8 3 q-5 0 -9 -3 l-119 -118 q-3 -3 -3 -8 q0 -5 3 -9 l29 -29 q3 -4 8 -4 q5 0 9 4 l82 82 l55 -56 q4 -3 9 -3 q5 0 8 3 l110 109 l33 -33 q7 -7 17 -7 q10 0 17 7 q7 7 7 17 l0 112 q0 10 -7 17 q-7 7 -17 7 Z" /><glyph glyph-name="chart-pie" unicode="&#xf200;" d="M288 436 l0 -228 l228 0 q5 0 8.5 4 q3.5 4 3.5 9 q-3 60 -34 111 q-31 51 -82 82 q-51 31 -111 34 q-5 0 -9 -3.5 q-4 -3.5 -4 -8.5 ZM553 160 q5 0 8.5 -4 q3.5 -4 3.5 -9 q-2 -40 -17.5 -78 q-15.5 -38 -43.5 -69 q-4 -4 -9 -4.5 q-5 -0.5 -9 3.5 l-161 161 l228 0 ZM401 15 q4 -4 3.5 -9 q-0.5 -5 -3.5 -8 q-33 -30 -74.5 -46 q-41.5 -16 -86.5 -16 q-65 0 -120 32.5 q-55 32.5 -87.5 87.5 q-32.5 55 -32.5 119 q0 64 30.5 118 q30.5 54 82.5 86.5 q52 32.5 114 36.5 q5 0 9 -3.5 q4 -3.5 4 -8.5 l0 -228 l161 -161 Z" /><glyph glyph-name="check-circle" unicode="&#xf058;" d="M504 192 q0 -67 -33.5 -124 q-33.5 -57 -90.5 -90.5 q-57 -33.5 -124 -33.5 q-67 0 -124 33.5 q-57 33.5 -90.5 90.5 q-33.5 57 -33.5 124 q0 67 33.5 124 q33.5 57 90.5 90.5 q57 33.5 124 33.5 q67 0 124 -33.5 q57 -33.5 90.5 -90.5 q33.5 -57 33.5 -124 ZM227 61 l184 184 q5 4 5 11 q0 7 -5 11 l-22 23 q-5 5 -11.5 5 q-6.5 0 -11.5 -5 l-150 -150 l-70 70 q-5 5 -11.5 5 q-6.5 0 -11.5 -5 l-22 -23 q-5 -4 -5 -11 q0 -7 5 -11 l104 -104 q4 -5 11 -5 q7 0 11 5 Z" /><glyph glyph-name="check-square" unicode="&#xf14a;" d="M400 -32 l-352 0 q-20 0 -34 14 q-14 14 -14 34 l0 352 q0 20 14 34 q14 14 34 14 l352 0 q20 0 34 -14 q14 -14 14 -34 l0 -352 q0 -20 -14 -34 q-14 -14 -34 -14 ZM195 66 l184 184 q5 5 5 11.5 q0 6.5 -5 11.5 l-22 22 q-5 5 -11.5 5 q-6.5 0 -11.5 -5 l-150 -150 l-70 70 q-5 5 -11.5 5 q-6.5 0 -11.5 -5 l-22 -22 q-5 -5 -5 -11.5 q0 -6.5 5 -11.5 l104 -104 q4 -5 11 -5 q7 0 11 5 Z" /><glyph glyph-name="check" unicode="&#xf00c;" d="M174 9 l-167 166 q-7 7 -7 18 q0 11 7 18 l37 36 q7 8 17.5 8 q10.5 0 18.5 -8 l112 -112 l240 240 q8 8 18.5 8 q10.5 0 17.5 -8 l37 -36 q7 -7 7 -18 q0 -11 -7 -18 l-295 -294 q-7 -8 -18 -8 q-11 0 -18 8 Z" /><glyph glyph-name="chess-bishop" unicode="&#xf43a;" d="M123 370 q-12 4 -19.5 14.5 q-7.5 10.5 -7.5 23.5 q0 17 11.5 28.5 q11.5 11.5 28.5 11.5 l48 0 q16 0 28 -11.5 q12 -11.5 12 -28.5 q0 -13 -7.5 -23.5 q-7.5 -10.5 -19.5 -14.5 q36 -25 68 -82 l-120 -120 q-2 -2 -2 -4.5 q0 -2.5 2 -4.5 l14 -14 q2 -2 4.5 -2 q2.5 0 4.5 2 l113 113 q29 -63 29 -114 q0 -38 -16 -59 q-13 -19 -42 -27 l0 -58 l-184 0 l0 58 q-29 8 -42 27 q-16 21 -16 59 q0 38 17 85 q16 44 42.5 83 q26.5 39 53.5 58 ZM320 -52 l0 24 q0 5 -3.5 8.5 q-3.5 3.5 -8.5 3.5 l-296 0 q-5 0 -8.5 -3.5 q-3.5 -3.5 -3.5 -8.5 l0 -24 q0 -5 3.5 -8.5 q3.5 -3.5 8.5 -3.5 l296 0 q5 0 8.5 3.5 q3.5 3.5 3.5 8.5 Z" /><glyph glyph-name="chess-board" unicode="&#xf43c;" d="M256 192 l0 -64 l-64 0 l0 64 l64 0 ZM256 448 l-64 0 l0 -64 l64 0 l0 64 ZM256 192 l64 0 l0 64 l-64 0 l0 -64 ZM384 448 l-64 0 l0 -64 l64 0 l0 64 ZM384 -64 l64 0 l0 64 l-64 0 l0 -64 ZM512 0 l0 64 l-64 0 l0 -64 l64 0 ZM128 -64 l64 0 l0 64 l-64 0 l0 -64 ZM128 448 l-64 0 l0 -64 l64 0 l0 64 ZM512 256 l0 64 l-64 0 l0 -64 l64 0 ZM512 128 l0 64 l-64 0 l0 -64 l64 0 ZM0 -64 l64 0 l0 64 l-64 0 l0 -64 ZM0 384 l0 -64 l64 0 l0 64 l-64 0 ZM0 256 l0 -64 l64 0 l0 64 l-64 0 ZM0 128 l0 -64 l64 0 l0 64 l-64 0 ZM256 -64 l64 0 l0 64 l-64 0 l0 -64 ZM192 64 l0 -64 l64 0 l0 64 l-64 0 ZM256 256 l0 64 l-64 0 l0 -64 l64 0 ZM64 64 l0 -64 l64 0 l0 64 l-64 0 ZM128 192 l-64 0 l0 -64 l64 0 l0 64 ZM384 64 l64 0 l0 64 l-64 0 l0 -64 ZM512 448 l-64 0 l0 -64 l64 0 l0 64 ZM384 192 l64 0 l0 64 l-64 0 l0 -64 ZM384 384 l0 -64 l64 0 l0 64 l-64 0 ZM320 64 l0 -64 l64 0 l0 64 l-64 0 ZM128 128 l0 -64 l64 0 l0 64 l-64 0 ZM256 128 l0 -64 l64 0 l0 64 l-64 0 ZM192 256 l-64 0 l0 -64 l64 0 l0 64 ZM128 320 l-64 0 l0 -64 l64 0 l0 64 ZM320 128 l64 0 l0 64 l-64 0 l0 -64 ZM192 320 l0 64 l-64 0 l0 -64 l64 0 ZM320 320 l0 64 l-64 0 l0 -64 l64 0 ZM320 256 l64 0 l0 64 l-64 0 l0 -64 Z" /><glyph glyph-name="chess-king" unicode="&#xf43f;" d="M416 -28 l0 -24 q0 -5 -3.5 -8.5 q-3.5 -3.5 -8.5 -3.5 l-360 0 q-5 0 -8.5 3.5 q-3.5 3.5 -3.5 8.5 l0 24 q0 5 3.5 8.5 q3.5 3.5 8.5 3.5 l360 0 q5 0 8.5 -3.5 q3.5 -3.5 3.5 -8.5 ZM408 296 l-160 0 l0 48 l50 0 q2 0 4 2 q2 2 2 4 l0 36 q0 2 -2 4 q-2 2 -4 2 l-50 0 l0 50 q0 2 -2 4 q-2 2 -4 2 l-36 0 q-2 0 -4 -2 q-2 -2 -2 -4 l0 -50 l-50 0 q-2 0 -4 -2 q-2 -2 -2 -4 l0 -36 q0 -2 2 -4 q2 -2 4 -2 l50 0 l0 -48 l-160 0 q-21 0 -33 -17 q-12 -17 -5 -36 l86 -243 l272 0 l86 243 q7 19 -5 36 q-12 17 -33 17 Z" /><glyph glyph-name="chess-knight" unicode="&#xf441;" d="M352 224 l0 -224 l-320 0 l0 47 q0 22 12 41.5 q12 19.5 32 29.5 l57 29 q13 6 20 17.5 q7 11.5 7 25.5 l0 50 l-22 -11 q-10 -5 -13 -16 l-12 -47 q-1 -6 -7 -8 l-29 -12 q-5 -2 -10 0 l-60 27 q-7 3 -7 11 l0 158 q0 10 7 17 l9 9 l-14 28 q-2 4 -2 8.5 q0 4.5 3.5 8 q3.5 3.5 8.5 3.5 l148 0 q52 0 96 -26 q44 -26 70 -70 q26 -44 26 -96 ZM372 -16 l-360 0 q-5 0 -8.5 -3.5 q-3.5 -3.5 -3.5 -8.5 l0 -24 q0 -5 3.5 -8.5 q3.5 -3.5 8.5 -3.5 l360 0 q5 0 8.5 3.5 q3.5 3.5 3.5 8.5 l0 24 q0 5 -3.5 8.5 q-3.5 3.5 -8.5 3.5 ZM52 320 q-8 0 -14 -6 q-6 -6 -6 -14 q0 -8 6 -14 q6 -6 14 -6 q8 0 14 6 q6 6 6 14 q0 8 -6 14 q-6 6 -14 6 Z" /><glyph glyph-name="chess-pawn" unicode="&#xf443;" d="M264 0 l-208 0 l9 9 q12 12 21 29 q13 24 21 54 q9 38 9 84 l-32 0 q-5 0 -8.5 3.5 q-3.5 3.5 -3.5 8.5 l0 24 q0 5 3.5 8.5 q3.5 3.5 8.5 3.5 l40 0 q-22 10 -35 30.5 q-13 20.5 -13 45.5 q0 35 24.5 59.5 q24.5 24.5 59.5 24.5 q35 0 59.5 -24.5 q24.5 -24.5 24.5 -59.5 q0 -25 -13 -45.5 q-13 -20.5 -35 -30.5 l40 0 q5 0 8.5 -3.5 q3.5 -3.5 3.5 -8.5 l0 -24 q0 -5 -3.5 -8.5 q-3.5 -3.5 -8.5 -3.5 l-32 0 q0 -59 16 -105 q11 -32 28 -55 q9 -11 16 -16 l0 0 ZM292 -16 l-264 0 q-5 0 -8.5 -3.5 q-3.5 -3.5 -3.5 -8.5 l0 -24 q0 -5 3.5 -8.5 q3.5 -3.5 8.5 -3.5 l264 0 q5 0 8.5 3.5 q3.5 3.5 3.5 8.5 l0 24 q0 5 -3.5 8.5 q-3.5 3.5 -8.5 3.5 Z" /><glyph glyph-name="chess-queen" unicode="&#xf445;" d="M436 -64 l-360 0 q-5 0 -8.5 3.5 q-3.5 3.5 -3.5 8.5 l0 24 q0 5 3.5 8.5 q3.5 3.5 8.5 3.5 l360 0 q5 0 8.5 -3.5 q3.5 -3.5 3.5 -8.5 l0 -24 q0 -5 -3.5 -8.5 q-3.5 -3.5 -8.5 -3.5 ZM256 448 q-24 0 -40 -16.5 q-16 -16.5 -16 -39.5 q0 -23 16 -39.5 q16 -16.5 39.5 -16.5 q23.5 0 40 16.5 q16.5 16.5 16.5 39.5 q0 23 -16.5 39.5 q-16.5 16.5 -39.5 16.5 ZM460 293 q-4 3 -9 1.5 q-5 -1.5 -7 -5.5 q-21 -38 -44 -38 q-20 0 -26 14 q-5 11 -6 43 q0 5 -3.5 8.5 q-3.5 3.5 -8.5 3.5 l-41 0 q-8 0 -11 -8 q-7 -20 -19.5 -30.5 q-12.5 -10.5 -28.5 -10.5 q-16 0 -28.5 10.5 q-12.5 10.5 -19.5 30.5 q-3 8 -11 8 l-41 0 q-5 0 -8.5 -3.5 q-3.5 -3.5 -3.5 -8.5 q-1 -32 -6 -43 q-6 -14 -26 -14 q-14 0 -26 12 q-8 8 -18 26 q-3 4 -7.5 5.5 q-4.5 1.5 -8.5 -1.5 l-40 -20 q-4 -3 -5.5 -7 q-1.5 -4 0.5 -9 l105 -257 l288 0 l105 257 q2 5 0.5 9 q-1.5 4 -5.5 7 l-40 20 Z" /><glyph glyph-name="chess-rook" unicode="&#xf447;" d="M81 233 q-1 -123 -33 -233 l288 0 q-32 110 -33 233 l45 42 q4 4 4 9 l0 120 q0 5 -3.5 8.5 q-3.5 3.5 -8.5 3.5 l-40 0 q-5 0 -8.5 -3.5 q-3.5 -3.5 -3.5 -8.5 l0 -44 l-48 0 l0 44 q0 5 -3.5 8.5 q-3.5 3.5 -8.5 3.5 l-72 0 q-5 0 -8.5 -3.5 q-3.5 -3.5 -3.5 -8.5 l0 -44 l-48 0 l0 44 q0 5 -3.5 8.5 q-3.5 3.5 -8.5 3.5 l-40 0 q-5 0 -8.5 -3.5 q-3.5 -3.5 -3.5 -8.5 l0 -120 q0 -5 4 -9 l45 -42 ZM160 192 q0 13 9.5 22.5 q9.5 9.5 22.5 9.5 q13 0 22.5 -9.5 q9.5 -9.5 9.5 -22.5 l0 -64 l-64 0 l0 64 ZM384 -28 l0 -24 q0 -5 -3.5 -8.5 q-3.5 -3.5 -8.5 -3.5 l-360 0 q-5 0 -8.5 3.5 q-3.5 3.5 -3.5 8.5 l0 24 q0 5 3.5 8.5 q3.5 3.5 8.5 3.5 l360 0 q5 0 8.5 -3.5 q3.5 -3.5 3.5 -8.5 Z" /><glyph glyph-name="chess" unicode="&#xf439;" d="M200 230 q2 0 4 -1.5 q2 -1.5 2 -4.5 l0 -20 q0 -3 -2 -4.5 q-2 -1.5 -4 -1.5 l-26 0 l0 -9 q0 -40 2 -65 q4 -46 15 -80 l-126 0 q11 35 15 80 q2 26 2 65 l0 9 l-26 0 q-2 0 -4 1.5 q-2 1.5 -2 4.5 l0 20 q0 3 2 4.5 q2 1.5 4 1.5 l144 0 ZM42 333 l34 -95 l104 0 l34 95 q3 6 -1 11 q-4 5 -10 5 l-51 0 l0 30 l22 0 q2 0 4 2 q2 2 2 4 l0 23 q0 2 -2 4 q-2 2 -4 2 l-29 0 l0 28 q0 2 -1.5 4 q-1.5 2 -4.5 2 l-22 0 q-3 0 -4.5 -2 q-1.5 -2 -1.5 -4 l0 -28 l-29 0 q-2 0 -4 -2 q-2 -2 -2 -4 l0 -23 q0 -2 2 -4 q2 -2 4 -2 l22 0 l0 -30 l-51 0 q-6 0 -10 -5 q-4 -5 -1 -11 ZM223 3 l0 28 q0 2 -2 4 q-2 2 -4 2 l-178 0 q-2 0 -4 -2 q-2 -2 -2 -4 l0 -28 l-22 -14 q-3 -2 -3 -5 l0 -42 q0 -2 2 -4 q2 -2 4 -2 l228 0 q2 0 4 2 q2 2 2 4 l0 42 q0 3 -3 5 l-22 14 ZM313 147 l25 -17 q0 -62 -12 -114 l148 0 q-12 52 -12 114 l25 17 q1 1 1 3 l0 70 q0 2 -1 3 q-1 1 -2 1 l-28 0 q-4 0 -4 -4 l0 -31 l-23 0 l0 31 q0 2 -1 3 q-1 1 -3 1 l-52 0 q-4 0 -4 -4 l0 -31 l-23 0 l0 31 q0 2 -1 3 q-1 1 -3 1 l-28 0 q-1 0 -2 -1 q-1 -1 -1 -3 l0 -70 q0 -2 1 -3 ZM385 95 q0 6 4.5 10.5 q4.5 4.5 10.5 4.5 q6 0 10.5 -4.5 q4.5 -4.5 4.5 -10.5 l0 -30 l-30 0 l0 30 ZM505 -22 l-14 11 l0 15 q0 2 -1 3 q-1 1 -3 1 l-174 0 q-2 0 -3 -1 q-1 -1 -1 -3 l0 -15 l-14 -11 q-1 -1 -1 -3 l0 -35 q0 -2 1 -3 q1 -1 3 -1 l204 0 q2 0 3 1 q1 1 1 3 l0 35 q0 2 -1 3 Z" /><glyph glyph-name="chevron-circle-down" unicode="&#xf13a;" d="M504 192 q0 -67 -33.5 -124 q-33.5 -57 -90.5 -90.5 q-57 -33.5 -124 -33.5 q-67 0 -124 33.5 q-57 33.5 -90.5 90.5 q-33.5 57 -33.5 124 q0 67 33.5 124 q33.5 57 90.5 90.5 q57 33.5 124 33.5 q67 0 124 -33.5 q57 -33.5 90.5 -90.5 q33.5 -57 33.5 -124 ZM273 78 l136 136 q7 7 7 17 q0 10 -7 17 l-17 17 q-8 7 -17.5 7 q-9.5 0 -16.5 -7 l-102 -102 l-102 102 q-7 7 -17 7 q-10 0 -16 -8 l-17 -16 q-8 -8 -8 -17.5 q0 -9.5 8 -16.5 l135 -136 q7 -7 17 -7 q10 0 17 7 Z" /><glyph glyph-name="chevron-circle-left" unicode="&#xf137;" d="M256 -56 q-67 0 -124 33.5 q-57 33.5 -90.5 90.5 q-33.5 57 -33.5 124 q0 67 33.5 124 q33.5 57 90.5 90.5 q57 33.5 124 33.5 q67 0 124 -33.5 q57 -33.5 90.5 -90.5 q33.5 -57 33.5 -124 q0 -67 -33.5 -124 q-33.5 -57 -90.5 -90.5 q-57 -33.5 -124 -33.5 ZM142 175 l136 -135 q7 -8 17 -8 q10 0 17 7 l17 18 q7 7 7 16.5 q0 9.5 -8 16.5 l-101 102 l102 102 q7 7 7 17 q0 10 -8 16 l-16 18 q-8 7 -17.5 7 q-9.5 0 -16.5 -7 l-136 -136 q-7 -7 -7 -17 q0 -10 7 -17 Z" /><glyph glyph-name="chevron-circle-right" unicode="&#xf138;" d="M256 440 q67 0 124 -33.5 q57 -33.5 90.5 -90.5 q33.5 -57 33.5 -124 q0 -67 -33.5 -124 q-33.5 -57 -90.5 -90.5 q-57 -33.5 -124 -33.5 q-67 0 -124 33.5 q-57 33.5 -90.5 90.5 q-33.5 57 -33.5 124 q0 67 33.5 124 q33.5 57 90.5 90.5 q57 33.5 124 33.5 ZM370 209 l-136 136 q-7 7 -17 7 q-10 0 -16 -7 l-17 -17 q-8 -8 -8 -17.5 q0 -9.5 8 -16.5 l101 -102 l-101 -102 q-8 -7 -8 -17 q0 -10 8 -17 l17 -16 q7 -8 16.5 -8 q9.5 0 16.5 7 l136 136 q7 7 7 17 q0 10 -7 17 Z" /><glyph glyph-name="chevron-circle-up" unicode="&#xf139;" d="M8 192 q0 67 33.5 124 q33.5 57 90.5 90.5 q57 33.5 124 33.5 q67 0 124 -33.5 q57 -33.5 90.5 -90.5 q33.5 -57 33.5 -124 q0 -67 -33.5 -124 q-33.5 -57 -90.5 -90.5 q-57 -33.5 -124 -33.5 q-67 0 -124 33.5 q-57 33.5 -90.5 90.5 q-33.5 57 -33.5 124 ZM239 306 l-135 -136 q-8 -7 -8 -17 q0 -10 8 -16 l17 -17 q7 -8 16.5 -8 q9.5 0 16.5 8 l102 101 l102 -101 q7 -8 17 -8 q10 0 17 8 l17 17 q7 7 7 16.5 q0 9.5 -7 16.5 l-136 136 q-7 7 -17 7 q-10 0 -17 -7 Z" /><glyph glyph-name="chevron-down" unicode="&#xf078;" d="M207 67 l-194 194 q-7 7 -7 17 q0 10 7 17 l22 22 q7 7 17 7.5 q10 0.5 17 -6.5 l155 -155 l155 155 q7 7 17 6.5 q10 -0.5 17 -7.5 l22 -22 q7 -7 7 -17 q0 -10 -7 -17 l-194 -194 q-7 -8 -17 -8 q-10 0 -17 8 Z" /><glyph glyph-name="chevron-left" unicode="&#xf053;" d="M35 209 l194 194 q7 7 17 7 q10 0 17 -7 l22 -22 q7 -7 7.5 -17 q0.5 -10 -6.5 -17 l-155 -155 l155 -155 q7 -7 6.5 -17 q-0.5 -10 -7.5 -17 l-22 -22 q-7 -7 -17 -7 q-10 0 -17 7 l-194 194 q-8 7 -8 17 q0 10 8 17 Z" /><glyph glyph-name="chevron-right" unicode="&#xf054;" d="M285 175 l-194 -194 q-7 -7 -17 -7 q-10 0 -17 7 l-22 22 q-7 7 -7.5 17 q-0.5 10 6.5 17 l155 155 l-155 155 q-7 7 -6.5 17 q0.5 10 7.5 17 l22 22 q7 7 17 7 q10 0 17 -7 l194 -194 q8 -7 8 -17 q0 -10 -8 -17 Z" /><glyph glyph-name="chevron-up" unicode="&#xf077;" d="M241 317 l194 -194 q7 -7 7 -17 q0 -10 -7 -17 l-22 -22 q-7 -7 -17 -7.5 q-10 -0.5 -17 6.5 l-155 155 l-155 -155 q-7 -7 -17 -6.5 q-10 0.5 -17 7.5 l-22 22 q-7 7 -7 17 q0 10 7 17 l194 194 q7 8 17 8 q10 0 17 -8 Z" /><glyph glyph-name="child" unicode="&#xf1ae;" d="M120 376 q0 30 21 51 q21 21 51 21 q30 0 51 -21 q21 -21 21 -51 q0 -30 -21 -51 q-21 -21 -51 -21 q-30 0 -51 21 q-21 21 -21 51 ZM375 375 q-10 9 -23 9 q-13 0 -23 -9 l-86 -87 l-102 0 l-86 87 q-10 9 -23 9 q-13 0 -22.5 -9.5 q-9.5 -9.5 -9.5 -22.5 q0 -13 9 -23 l95 -94 l0 -267 q0 -13 9.5 -22.5 q9.5 -9.5 22.5 -9.5 l16 0 q13 0 22.5 9.5 q9.5 9.5 9.5 22.5 l0 112 l16 0 l0 -112 q0 -13 9.5 -22.5 q9.5 -9.5 22.5 -9.5 l16 0 q13 0 22.5 9.5 q9.5 9.5 9.5 22.5 l0 267 l95 94 q9 10 9 23 q0 13 -9 23 Z" /><glyph glyph-name="circle-notch" unicode="&#xf1ce;" d="M288 409 l0 -17 q0 -8 5 -14.5 q5 -6.5 13 -8.5 q58 -16 96 -65 q38 -49 38 -112 q0 -50 -24.5 -92.5 q-24.5 -42.5 -67 -67 q-42.5 -24.5 -92.5 -24.5 q-50 0 -92.5 24.5 q-42.5 24.5 -67 67 q-24.5 42.5 -24.5 92.5 q0 63 38 112 q38 49 96 65 q8 2 13 8.5 q5 6.5 5 14.5 l0 17 q0 12 -9.5 19 q-9.5 7 -20.5 4 q-53 -14 -95.5 -49 q-42.5 -35 -66.5 -85 q-24 -50 -24 -107 q0 -68 33.5 -124.5 q33.5 -56.5 90.5 -89.5 q57 -33 124.5 -33 q67.5 0 124 33.5 q56.5 33.5 90 90.5 q33.5 57 33.5 124 q0 57 -24 107 q-24 50 -66.5 85 q-42.5 35 -95.5 48 q-12 3 -21 -4 q-9 -7 -9 -19 Z" /><glyph glyph-name="circle" unicode="&#xf111;" d="M256 440 q-67 0 -124 -33.5 q-57 -33.5 -90.5 -90.5 q-33.5 -57 -33.5 -124 q0 -67 33.5 -124 q33.5 -57 90.5 -90.5 q57 -33.5 124 -33.5 q67 0 124 33.5 q57 33.5 90.5 90.5 q33.5 57 33.5 124 q0 67 -33.5 124 q-33.5 57 -90.5 90.5 q-57 33.5 -124 33.5 Z" /><glyph glyph-name="clipboard" unicode="&#xf328;" d="M384 336 l0 -352 q0 -20 -14 -34 q-14 -14 -34 -14 l-288 0 q-20 0 -34 14 q-14 14 -14 34 l0 352 q0 20 14 34 q14 14 34 14 l80 0 q0 26 19 45 q19 19 45 19 q26 0 45 -19 q19 -19 19 -45 l80 0 q20 0 34 -14 q14 -14 14 -34 ZM192 408 q-10 0 -17 -7 q-7 -7 -7 -17 q0 -10 7 -17 q7 -7 17 -7 q10 0 17 7 q7 7 7 17 q0 10 -7 17 q-7 7 -17 7 ZM288 294 l0 20 q0 2 -2 4 q-2 2 -4 2 l-180 0 q-2 0 -4 -2 q-2 -2 -2 -4 l0 -20 q0 -2 2 -4 q2 -2 4 -2 l180 0 q2 0 4 2 q2 2 2 4 Z" /><glyph glyph-name="clock" unicode="&#xf017;" d="M256 440 q-67 0 -124 -33.5 q-57 -33.5 -90.5 -90.5 q-33.5 -57 -33.5 -124 q0 -67 33.5 -124 q33.5 -57 90.5 -90.5 q57 -33.5 124 -33.5 q67 0 124 33.5 q57 33.5 90.5 90.5 q33.5 57 33.5 124 q0 67 -33.5 124 q-33.5 57 -90.5 90.5 q-57 33.5 -124 33.5 ZM313 90 l-88 64 q-5 4 -5 10 l0 168 q0 5 3.5 8.5 q3.5 3.5 8.5 3.5 l48 0 q5 0 8.5 -3.5 q3.5 -3.5 3.5 -8.5 l0 -138 l64 -46 q4 -3 4.5 -8 q0.5 -5 -2.5 -9 l-28 -38 q-3 -4 -8 -5 q-5 -1 -9 2 Z" /><glyph glyph-name="clone" unicode="&#xf24d;" d="M464 448 q20 0 34 -14 q14 -14 14 -34 l0 -288 q0 -20 -14 -34 q-14 -14 -34 -14 l-288 0 q-20 0 -34 14 q-14 14 -14 34 l0 288 q0 20 14 34 q14 14 34 14 l288 0 ZM176 32 q-33 0 -56.5 23.5 q-23.5 23.5 -23.5 56.5 l0 208 l-48 0 q-20 0 -34 -14 q-14 -14 -14 -34 l0 -288 q0 -20 14 -34 q14 -14 34 -14 l288 0 q20 0 34 14 q14 14 14 34 l0 48 l-208 0 Z" /><glyph glyph-name="closed-captioning" unicode="&#xf20a;" d="M464 384 l-416 0 q-20 0 -34 -14 q-14 -14 -14 -34 l0 -288 q0 -20 14 -34 q14 -14 34 -14 l416 0 q20 0 34 14 q14 14 14 34 l0 288 q0 20 -14 34 q-14 14 -34 14 ZM218 160 q2 2 5 2 q3 0 4 -3 l20 -27 q3 -4 -1 -8 q-19 -21 -48.5 -27.5 q-29.5 -6.5 -58 2.5 q-28.5 9 -46.5 32 q-19 25 -19 61 q0 46 33 72 q30 24 72 23.5 q42 -0.5 67 -25.5 q3 -3 1 -6 l-17 -30 q-2 -3 -4.5 -3.5 q-2.5 -0.5 -5.5 1.5 q-19 16 -41.5 16.5 q-22.5 0.5 -37.5 -12.5 q-15 -13 -15 -36 q0 -23 14.5 -37.5 q14.5 -14.5 36 -13.5 q21.5 1 41.5 19 ZM409 160 q2 2 4.5 2 q2.5 0 4.5 -3 l19 -27 q3 -4 0 -8 q-20 -21 -49.5 -27.5 q-29.5 -6.5 -58 2.5 q-28.5 9 -46.5 32 q-19 25 -19 61 q0 46 33 72 q30 24 72 23.5 q42 -0.5 68 -25.5 q2 -3 0 -6 l-17 -30 q-1 -3 -4 -3.5 q-3 -0.5 -5 1.5 q-20 16 -42.5 16.5 q-22.5 0.5 -37.5 -12.5 q-15 -13 -15 -36 q0 -23 14.5 -37.5 q14.5 -14.5 36.5 -13.5 q22 1 42 19 Z" /><glyph glyph-name="cloud-download-alt" unicode="&#xf381;" d="M640 96 q0 -35 -17 -64.5 q-17 -29.5 -46.5 -46.5 q-29.5 -17 -64.5 -17 l-368 0 q-39 0 -72 19.5 q-33 19.5 -52.5 52.5 q-19.5 33 -19.5 72 q0 46 27 83.5 q27 37.5 69 52.5 l0 8 q0 43 21.5 80 q21.5 37 58.5 58.5 q37 21.5 80.5 21.5 q43.5 0 80.5 -22 q37 -22 58 -58 q24 16 53 16 q40 0 68 -28 q28 -28 28 -68 q0 -18 -6 -35 q44 -9 73 -44 q29 -35 29 -81 ZM393 160 l-65 0 l0 112 q0 7 -4.5 11.5 q-4.5 4.5 -11.5 4.5 l-48 0 q-7 0 -11.5 -4.5 q-4.5 -4.5 -4.5 -11.5 l0 -112 l-65 0 q-11 0 -15 -10 q-4 -10 3 -17 l106 -106 q4 -4 11 -4 q7 0 11 4 l106 106 q7 7 3 17 q-4 10 -15 10 Z" /><glyph glyph-name="cloud-upload-alt" unicode="&#xf382;" d="M640 96 q0 -35 -17 -64.5 q-17 -29.5 -46.5 -46.5 q-29.5 -17 -64.5 -17 l-368 0 q-39 0 -72 19.5 q-33 19.5 -52.5 52.5 q-19.5 33 -19.5 72 q0 46 27 83.5 q27 37.5 69 52.5 l0 8 q0 43 21.5 80 q21.5 37 58.5 58.5 q37 21.5 80.5 21.5 q43.5 0 80.5 -22 q37 -22 58 -58 q24 16 53 16 q40 0 68 -28 q28 -28 28 -68 q0 -18 -6 -35 q44 -9 73 -44 q29 -35 29 -81 ZM405 187 l-106 106 q-4 4 -11 4 q-7 0 -11 -4 l-106 -106 q-7 -7 -3 -17 q4 -10 15 -10 l65 0 l0 -112 q0 -7 4.5 -11.5 q4.5 -4.5 11.5 -4.5 l48 0 q7 0 11.5 4.5 q4.5 4.5 4.5 11.5 l0 112 l65 0 q11 0 15 10 q4 10 -3 17 Z" /><glyph glyph-name="cloud" unicode="&#xf0c2;" d="M538 221 q6 17 6 35 q0 40 -28 68 q-28 28 -68 28 q-29 0 -53 -16 q-21 36 -58 58 q-37 22 -80.5 22 q-43.5 0 -80.5 -21.5 q-37 -21.5 -58.5 -58.5 q-21.5 -37 -21.5 -80 l0 -8 q-42 -15 -69 -52.5 q-27 -37.5 -27 -83.5 q0 -39 19.5 -72 q19.5 -33 52.5 -52.5 q33 -19.5 72 -19.5 l368 0 q35 0 64.5 17 q29.5 17 46.5 46.5 q17 29.5 17 64.5 q0 46 -29 81 q-29 35 -73 44 Z" /><glyph glyph-name="code-branch" unicode="&#xf126;" d="M384 304 q0 33 -23.5 56.5 q-23.5 23.5 -56.5 23.5 q-33 0 -56.5 -23.5 q-23.5 -23.5 -23.5 -56.5 q0 -27 16 -48 q16 -21 42 -29 q-1 -24 -11.5 -37 q-10.5 -13 -34.5 -19 q-15 -3 -51 -6 q-28 -3 -42 -6 q-23 -4 -39 -11 l0 144 q25 7 40.5 28 q15.5 21 15.5 48 q0 33 -23.5 56.5 q-23.5 23.5 -56.5 23.5 q-33 0 -56.5 -23.5 q-23.5 -23.5 -23.5 -56.5 q0 -27 15.5 -48 q15.5 -21 40.5 -28 l0 -200 q-25 -7 -40.5 -28 q-15.5 -21 -15.5 -48 q0 -33 23.5 -56.5 q23.5 -23.5 56.5 -23.5 q33 0 56.5 23.5 q23.5 23.5 23.5 56.5 q0 25 -14 45.5 q-14 20.5 -37 29.5 q5 8 15 13 q10 5 29 9 q11 1 36 4 l1 0 q43 4 64 10 q35 10 54 33 q21 26 22 68 q24 8 39 29 q15 21 15 47 ZM80 384 q7 0 11.5 -4.5 q4.5 -4.5 4.5 -11.5 q0 -7 -4.5 -11.5 q-4.5 -4.5 -11.5 -4.5 q-7 0 -11.5 4.5 q-4.5 4.5 -4.5 11.5 q0 7 4.5 11.5 q4.5 4.5 11.5 4.5 ZM80 0 q-7 0 -11.5 4.5 q-4.5 4.5 -4.5 11.5 q0 7 4.5 11.5 q4.5 4.5 11.5 4.5 q7 0 11.5 -4.5 q4.5 -4.5 4.5 -11.5 q0 -7 -4.5 -11.5 q-4.5 -4.5 -11.5 -4.5 ZM304 320 q7 0 11.5 -4.5 q4.5 -4.5 4.5 -11.5 q0 -7 -4.5 -11.5 q-4.5 -4.5 -11.5 -4.5 q-7 0 -11.5 4.5 q-4.5 4.5 -4.5 11.5 q0 7 4.5 11.5 q4.5 4.5 11.5 4.5 Z" /><glyph glyph-name="code" unicode="&#xf121;" d="M279 -63 l-61 17 q-5 2 -7.5 6 q-2.5 4 -0.5 9 l136 470 q2 5 6 7.5 q4 2.5 9 1.5 l61 -18 q5 -2 7.5 -6 q2.5 -4 0.5 -9 l-136 -470 q-2 -5 -6 -7.5 q-4 -2.5 -9 -0.5 ZM165 49 l43 46 q4 4 3.5 9 q-0.5 5 -3.5 8 l-91 80 l91 80 q3 3 3.5 8 q0.5 5 -3.5 9 l-43 46 q-3 4 -8 4 q-5 0 -9 -3 l-144 -135 q-4 -4 -4 -9 q0 -5 4 -9 l144 -135 q4 -3 9 -3 q5 0 8 4 ZM492 48 l144 135 q4 4 4 9 q0 5 -4 9 l-144 135 q-4 3 -8.5 3 q-4.5 0 -8.5 -4 l-43 -46 q-4 -4 -3.5 -9 q0.5 -5 3.5 -8 l91 -80 l-91 -80 q-3 -3 -3.5 -8 q-0.5 -5 3.5 -9 l43 -46 q3 -4 8 -4 q5 0 9 3 Z" /><glyph glyph-name="coffee" unicode="&#xf0f4;" d="M192 64 l192 0 q40 0 68 28 q28 28 28 68 l32 0 q35 0 64.5 17 q29.5 17 46.5 46.5 q17 29.5 17 64.5 q0 35 -17 64.5 q-17 29.5 -46.5 46.5 q-29.5 17 -64.5 17 l-392 0 q-10 0 -17 -7 q-7 -7 -7 -17 l0 -232 q0 -40 28 -68 q28 -28 68 -28 ZM512 352 q26 0 45 -19 q19 -19 19 -45 q0 -26 -19 -45 q-19 -19 -45 -19 l-32 0 l0 128 l32 0 ZM560 -32 l-512 0 q-16 0 -29 10 q-11 9 -16 21.5 q-5 12.5 -2.5 22.5 q2.5 10 11.5 10 l584 0 q9 0 11.5 -10 q2.5 -10 -2.5 -22.5 q-5 -12.5 -16 -21.5 q-13 -10 -29 -10 Z" /><glyph glyph-name="cog" unicode="&#xf013;" d="M445 157 l42 -25 q4 -2 5.5 -6 q1.5 -4 0.5 -8 q-17 -53 -55 -94 q-3 -3 -7 -4 q-4 -1 -8 1 l-42 25 q-27 -23 -61 -35 l0 -49 q0 -4 -2.5 -7.5 q-2.5 -3.5 -6.5 -4.5 q-55 -12 -110 0 q-4 1 -6.5 4.5 q-2.5 3.5 -2.5 7.5 l0 49 q-34 12 -61 35 l-42 -25 q-4 -2 -8 -1 q-4 1 -7 4 q-38 41 -55 94 q-1 4 0.5 8 q1.5 4 5.5 6 l42 25 q-6 35 0 70 l-42 25 q-4 2 -5.5 6 q-1.5 4 -0.5 8 q17 53 55 94 q3 3 7 4 q4 1 8 -1 l42 -25 q27 23 61 35 l0 49 q0 4 2.5 7.5 q2.5 3.5 6.5 4.5 q55 12 110 0 q4 -1 6.5 -4.5 q2.5 -3.5 2.5 -7.5 l0 -49 q34 -12 61 -35 l42 25 q4 2 8 1 q4 -1 7 -4 q38 -41 55 -94 q1 -4 -0.5 -8 q-1.5 -4 -5.5 -6 l-42 -25 q6 -35 0 -70 ZM336 192 q0 33 -23.5 56.5 q-23.5 23.5 -56.5 23.5 q-33 0 -56.5 -23.5 q-23.5 -23.5 -23.5 -56.5 q0 -33 23.5 -56.5 q23.5 -23.5 56.5 -23.5 q33 0 56.5 23.5 q23.5 23.5 23.5 56.5 Z" /><glyph glyph-name="cogs" unicode="&#xf085;" d="M512 257 l-8 -14 q-2 -4 -6.5 -5.5 q-4.5 -1.5 -8.5 -0.5 q-18 7 -32 19 q-4 3 -4.5 7.5 q-0.5 4.5 1.5 8.5 l8 14 q-10 12 -16 27 l-16 0 q-5 0 -8.5 3 q-3.5 3 -3.5 8 q-4 18 -1 37 q1 4 4.5 7 q3.5 3 8.5 3 l16 0 q6 15 16 28 l-8 14 q-2 4 -1.5 8.5 q0.5 4.5 4.5 7.5 q14 11 32 18 q4 2 8.5 0.5 q4.5 -1.5 6.5 -5.5 l8 -15 q16 3 32 0 l8 15 q2 4 6.5 5.5 q4.5 1.5 8.5 -0.5 q18 -6 32 -18 q4 -3 4.5 -7.5 q0.5 -4.5 -1.5 -8.5 l-8 -14 q10 -13 16 -28 l16 0 q5 0 8.5 -3 q3.5 -3 3.5 -7 q4 -19 0 -37 q0 -5 -3.5 -8 q-3.5 -3 -8.5 -3 l-16 0 q-6 -15 -16 -27 l8 -14 q2 -4 1.5 -8.5 q-0.5 -4.5 -4.5 -7.5 q-14 -12 -32 -19 q-4 -1 -8.5 0.5 q-4.5 1.5 -6.5 5.5 l-8 14 q-16 -3 -32 0 ZM502 316 q18 -14 36.5 -8.5 q18.5 5.5 24 24 q5.5 18.5 -8.5 37.5 q-18 14 -36.5 8 q-18.5 -6 -24 -24.5 q-5.5 -18.5 8.5 -36.5 ZM386 162 l34 -17 q8 -4 11 -12.5 q3 -8.5 -1 -16.5 q-9 -26 -42 -66 q-6 -6 -14.5 -7.5 q-8.5 -1.5 -15.5 2.5 l-29 17 q-25 -21 -55 -32 l0 -34 q0 -8 -6 -15 q-6 -7 -14 -8 q-38 -7 -76 0 q-9 1 -14.5 8 q-5.5 7 -5.5 15 l0 34 q-31 11 -55 32 l-29 -17 q-8 -4 -16.5 -2.5 q-8.5 1.5 -13.5 7.5 q-32 39 -42 66 q-4 8 -1 16.5 q3 8.5 11 12.5 l33 17 q-6 32 0 63 l-33 17 q-8 5 -11 13 q-3 8 1 16 q10 27 42 66 q5 7 13.5 8.5 q8.5 1.5 16.5 -3.5 l29 -16 q25 21 55 31 l0 34 q0 9 5.5 15.5 q5.5 6.5 14.5 7.5 q38 7 76 1 q8 -2 14 -8.5 q6 -6.5 6 -15.5 l0 -34 q30 -11 55 -31 l29 16 q7 5 15.5 3.5 q8.5 -1.5 14.5 -8.5 q32 -38 42 -66 q3 -8 0.5 -16 q-2.5 -8 -10.5 -13 l-34 -17 q6 -31 0 -63 ZM269 141 q21 27 19 57 q-2 27 -21 46.5 q-19 19.5 -47 21.5 q-30 2 -57 -20 q-21 -27 -19 -57 q1 -27 20.5 -46.5 q19.5 -19.5 46.5 -20.5 q30 -2 58 19 ZM512 -42 l-8 -14 q-2 -4 -6.5 -5.5 q-4.5 -1.5 -8.5 -0.5 q-18 7 -32 19 q-4 3 -4.5 7.5 q-0.5 4.5 1.5 8.5 l8 14 q-10 12 -16 27 l-16 0 q-5 0 -8.5 3 q-3.5 3 -3.5 8 q-4 18 -1 37 q1 4 4.5 7 q3.5 3 8.5 3 l16 0 q6 15 16 28 l-8 14 q-2 4 -1.5 8.5 q0.5 4.5 4.5 7.5 q14 12 32 18 q4 2 8.5 0.5 q4.5 -1.5 6.5 -5.5 l8 -14 q16 2 32 -1 l8 15 q2 4 6.5 5.5 q4.5 1.5 8.5 -0.5 q18 -6 32 -18 q4 -3 4.5 -7.5 q0.5 -4.5 -1.5 -8.5 l-8 -14 q10 -13 16 -28 l16 0 q5 0 8.5 -3 q3.5 -3 3.5 -7 q4 -19 0 -37 q0 -5 -3.5 -8 q-3.5 -3 -8.5 -3 l-16 0 q-6 -15 -16 -27 l8 -14 q2 -4 1.5 -8.5 q-0.5 -4.5 -4.5 -7.5 q-14 -12 -32 -19 q-4 -1 -8.5 0.5 q-4.5 1.5 -6.5 5.5 l-8 14 q-16 -3 -32 0 ZM502 17 q18 -14 36.5 -8 q18.5 6 24 24 q5.5 18 -8.5 37 q-18 14 -36.5 8 q-18.5 -6 -24 -24.5 q-5.5 -18.5 8.5 -36.5 Z" /><glyph glyph-name="columns" unicode="&#xf0db;" d="M464 416 l-416 0 q-20 0 -34 -14 q-14 -14 -14 -34 l0 -352 q0 -20 14 -34 q14 -14 34 -14 l416 0 q20 0 34 14 q14 14 14 34 l0 352 q0 20 -14 34 q-14 14 -34 14 ZM224 32 l-160 0 l0 256 l160 0 l0 -256 ZM448 32 l-160 0 l0 256 l160 0 l0 -256 Z" /><glyph glyph-name="comment-alt" unicode="&#xf27a;" d="M576 208 q0 -57 -38.5 -104.5 q-38.5 -47.5 -105 -75.5 q-66.5 -28 -144.5 -28 q-71 0 -134 24 q-61 -48 -142 -56 q-4 0 -7.5 2 q-3.5 2 -4.5 6 q-1 4 6 11 l8 7 q18 16 26 29 q13 23 19 59 q-28 27 -43.5 59 q-15.5 32 -15.5 67 q0 57 39 104.5 q39 47.5 105 75.5 q66 28 144 28 q78 0 144 -28 q66 -28 105 -75.5 q39 -47.5 39 -104.5 ZM160 256 q-20 0 -34 -14 q-14 -14 -14 -34 q0 -20 14 -34 q14 -14 34 -14 q20 0 34 14 q14 14 14 34 q0 20 -14 34 q-14 14 -34 14 ZM288 256 q-20 0 -34 -14 q-14 -14 -14 -34 q0 -20 14 -34 q14 -14 34 -14 q20 0 34 14 q14 14 14 34 q0 20 -14 34 q-14 14 -34 14 ZM416 256 q-20 0 -34 -14 q-14 -14 -14 -34 q0 -20 14 -34 q14 -14 34 -14 q20 0 34 14 q14 14 14 34 q0 20 -14 34 q-14 14 -34 14 Z" /><glyph glyph-name="comment" unicode="&#xf075;" d="M576 208 q0 -57 -38.5 -104.5 q-38.5 -47.5 -105 -75.5 q-66.5 -28 -144.5 -28 q-71 0 -134 24 q-61 -48 -142 -56 q-4 0 -7.5 2 q-3.5 2 -4.5 6 q-1 4 6 11 l8 7 q18 16 26 29 q13 23 19 59 q-28 27 -43.5 59 q-15.5 32 -15.5 67 q0 57 39 104.5 q39 47.5 105 75.5 q66 28 144 28 q78 0 144 -28 q66 -28 105 -75.5 q39 -47.5 39 -104.5 Z" /><glyph glyph-name="comments" unicode="&#xf086;" d="M224 89 q-55 0 -104 19 q-48 -37 -111 -44 l-1 0 q-6 0 -8 6 q-1 4 5 9 l5 5 q15 13 21 24 q10 17 15 46 q-46 43 -46 99 q0 44 30 81.5 q30 37.5 81.5 59.5 q51.5 22 112.5 22 q61 0 112.5 -22 q51.5 -22 81.5 -59.5 q30 -37.5 30 -82 q0 -44.5 -30 -82 q-30 -37.5 -81.5 -59.5 q-51.5 -22 -112.5 -22 ZM571 -18 q-2 1 -5 4 q-13 12 -19 22 q-9 16 -13 42 q33 31 40 70 q7 39 -13.5 75.5 q-20.5 36.5 -64.5 61.5 l0 -4 q0 -61 -39 -111 q-38 -48 -103.5 -75.5 q-65.5 -27.5 -141.5 -25.5 q29 -23 69.5 -36.5 q40.5 -13.5 86.5 -13.5 q51 0 97 17 q44 -34 103 -40 q2 0 4.5 1.5 q2.5 1.5 3.5 4.5 q1 3 -4 7 l-1 1 Z" /><glyph glyph-name="compass" unicode="&#xf14e;" d="M504 192 q0 -67 -33.5 -124 q-33.5 -57 -90.5 -90.5 q-57 -33.5 -124 -33.5 q-67 0 -124 33.5 q-57 33.5 -90.5 90.5 q-33.5 57 -33.5 124 q0 67 33.5 124 q33.5 57 90.5 90.5 q57 33.5 124 33.5 q67 0 124 -33.5 q57 -33.5 90.5 -90.5 q33.5 -57 33.5 -124 ZM307 327 l-102 -98 q-5 -4 -7 -11 l-33 -138 q-3 -11 3.5 -19.5 q6.5 -8.5 17 -10 q10.5 -1.5 19.5 6.5 l102 98 q5 4 7 11 l33 138 q3 11 -3.5 19.5 q-6.5 8.5 -17 10 q-10.5 1.5 -19.5 -6.5 ZM256 224 q-13 0 -22.5 -9.5 q-9.5 -9.5 -9.5 -22.5 q0 -13 9.5 -22.5 q9.5 -9.5 22.5 -9.5 q13 0 22.5 9.5 q9.5 9.5 9.5 22.5 q0 13 -9.5 22.5 q-9.5 9.5 -22.5 9.5 Z" /><glyph glyph-name="compress" unicode="&#xf066;" d="M436 256 l-124 0 q-10 0 -17 7 q-7 7 -7 17 l0 124 q0 5 3.5 8.5 q3.5 3.5 8.5 3.5 l40 0 q5 0 8.5 -3.5 q3.5 -3.5 3.5 -8.5 l0 -84 l84 0 q5 0 8.5 -3.5 q3.5 -3.5 3.5 -8.5 l0 -40 q0 -5 -3.5 -8.5 q-3.5 -3.5 -8.5 -3.5 ZM160 280 l0 124 q0 5 -3.5 8.5 q-3.5 3.5 -8.5 3.5 l-40 0 q-5 0 -8.5 -3.5 q-3.5 -3.5 -3.5 -8.5 l0 -84 l-84 0 q-5 0 -8.5 -3.5 q-3.5 -3.5 -3.5 -8.5 l0 -40 q0 -5 3.5 -8.5 q3.5 -3.5 8.5 -3.5 l124 0 q10 0 17 7 q7 7 7 17 ZM160 -20 l0 124 q0 10 -7 17 q-7 7 -17 7 l-124 0 q-5 0 -8.5 -3.5 q-3.5 -3.5 -3.5 -8.5 l0 -40 q0 -5 3.5 -8.5 q3.5 -3.5 8.5 -3.5 l84 0 l0 -84 q0 -5 3.5 -8.5 q3.5 -3.5 8.5 -3.5 l40 0 q5 0 8.5 3.5 q3.5 3.5 3.5 8.5 ZM352 -20 l0 84 l84 0 q5 0 8.5 3.5 q3.5 3.5 3.5 8.5 l0 40 q0 5 -3.5 8.5 q-3.5 3.5 -8.5 3.5 l-124 0 q-10 0 -17 -7 q-7 -7 -7 -17 l0 -124 q0 -5 3.5 -8.5 q3.5 -3.5 8.5 -3.5 l40 0 q5 0 8.5 3.5 q3.5 3.5 3.5 8.5 Z" /><glyph glyph-name="copy" unicode="&#xf0c5;" d="M320 0 l0 -40 q0 -10 -7 -17 q-7 -7 -17 -7 l-272 0 q-10 0 -17 7 q-7 7 -7 17 l0 368 q0 10 7 17 q7 7 17 7 l72 0 l0 -296 q0 -23 16.5 -39.5 q16.5 -16.5 39.5 -16.5 l168 0 ZM320 344 l0 104 l-168 0 q-10 0 -17 -7 q-7 -7 -7 -17 l0 -368 q0 -10 7 -17 q7 -7 17 -7 l272 0 q10 0 17 7 q7 7 7 17 l0 264 l-104 0 q-10 0 -17 7 q-7 7 -7 17 ZM441 375 l-66 66 q-7 7 -17 7 l-6 0 l0 -96 l96 0 l0 6 q0 10 -7 17 Z" /><glyph glyph-name="copyright" unicode="&#xf1f9;" d="M256 440 q-67 0 -124 -33.5 q-57 -33.5 -90.5 -90.5 q-33.5 -57 -33.5 -124 q0 -67 33.5 -124 q33.5 -57 90.5 -90.5 q57 -33.5 124 -33.5 q67 0 124 33.5 q57 33.5 90.5 90.5 q33.5 57 33.5 124 q0 67 -33.5 124 q-33.5 57 -90.5 90.5 q-57 33.5 -124 33.5 ZM373 93 q-10 -12 -29 -23 q-37 -22 -81 -22 q-41 0 -74 19 q-33 19 -51.5 52 q-18.5 33 -18.5 73.5 q0 40.5 19 73.5 q19 33 51.5 51.5 q32.5 18.5 74 18.5 q41.5 0 75.5 -18 q18 -10 27 -20 q3 -3 3 -7.5 q0 -4.5 -2 -7.5 l-22 -35 q-3 -4 -8.5 -5 q-5.5 -1 -9.5 3 q-7 6 -18 12 q-22 12 -44 12 q-34 0 -54 -21.5 q-20 -21.5 -20 -54 q0 -32.5 19 -55.5 q20 -25 55 -25 q24 0 47 14 q12 8 19 15 q3 4 9 3.5 q6 -0.5 9 -4.5 l25 -34 q2 -3 2 -7.5 q0 -4.5 -3 -7.5 Z" /><glyph glyph-name="credit-card" unicode="&#xf09d;" d="M0 16 q0 -20 14 -34 q14 -14 34 -14 l480 0 q20 0 34 14 q14 14 14 34 l0 176 l-576 0 l0 -176 ZM192 84 q0 5 3.5 8.5 q3.5 3.5 8.5 3.5 l136 0 q5 0 8.5 -3.5 q3.5 -3.5 3.5 -8.5 l0 -40 q0 -5 -3.5 -8.5 q-3.5 -3.5 -8.5 -3.5 l-136 0 q-5 0 -8.5 3.5 q-3.5 3.5 -3.5 8.5 l0 40 ZM64 84 q0 5 3.5 8.5 q3.5 3.5 8.5 3.5 l72 0 q5 0 8.5 -3.5 q3.5 -3.5 3.5 -8.5 l0 -40 q0 -5 -3.5 -8.5 q-3.5 -3.5 -8.5 -3.5 l-72 0 q-5 0 -8.5 3.5 q-3.5 3.5 -3.5 8.5 l0 40 ZM576 368 l0 -48 l-576 0 l0 48 q0 20 14 34 q14 14 34 14 l480 0 q20 0 34 -14 q14 -14 14 -34 Z" /><glyph glyph-name="crop" unicode="&#xf125;" d="M488 96 l-40 0 l0 243 l57 57 q7 7 7 17 q0 10 -7 17 l-11 11 q-7 7 -17 7 q-10 0 -17 -7 l-57 -57 l-243 0 l0 40 q0 10 -7 17 q-7 7 -17 7 l-48 0 q-10 0 -17 -7 q-7 -7 -7 -17 l0 -40 l-40 0 q-10 0 -17 -7 q-7 -7 -7 -17 l0 -48 q0 -10 7 -17 q7 -7 17 -7 l40 0 l0 -264 q0 -10 7 -17 q7 -7 17 -7 l264 0 l0 -40 q0 -10 7 -17 q7 -7 17 -7 l48 0 q10 0 17 7 q7 7 7 17 l0 40 l40 0 q10 0 17 7 q7 7 7 17 l0 48 q0 10 -7 17 q-7 7 -17 7 ZM307 288 l-147 -147 l0 147 l147 0 ZM205 96 l147 147 l0 -147 l-147 0 Z" /><glyph glyph-name="crosshairs" unicode="&#xf05b;" d="M500 224 l-30 0 q-11 70 -61.5 120.5 q-50.5 50.5 -120.5 61.5 l0 30 q0 5 -3.5 8.5 q-3.5 3.5 -8.5 3.5 l-40 0 q-5 0 -8.5 -3.5 q-3.5 -3.5 -3.5 -8.5 l0 -30 q-70 -11 -120.5 -61.5 q-50.5 -50.5 -61.5 -120.5 l-30 0 q-5 0 -8.5 -3.5 q-3.5 -3.5 -3.5 -8.5 l0 -40 q0 -5 3.5 -8.5 q3.5 -3.5 8.5 -3.5 l30 0 q11 -70 61.5 -120.5 q50.5 -50.5 120.5 -61.5 l0 -30 q0 -5 3.5 -8.5 q3.5 -3.5 8.5 -3.5 l40 0 q5 0 8.5 3.5 q3.5 3.5 3.5 8.5 l0 30 q70 11 120.5 61.5 q50.5 50.5 61.5 120.5 l30 0 q5 0 8.5 3.5 q3.5 3.5 3.5 8.5 l0 40 q0 5 -3.5 8.5 q-3.5 3.5 -8.5 3.5 ZM288 43 l0 41 q0 5 -3.5 8.5 q-3.5 3.5 -8.5 3.5 l-40 0 q-5 0 -8.5 -3.5 q-3.5 -3.5 -3.5 -8.5 l0 -41 q-44 10 -75.5 41.5 q-31.5 31.5 -41.5 75.5 l41 0 q5 0 8.5 3.5 q3.5 3.5 3.5 8.5 l0 40 q0 5 -3.5 8.5 q-3.5 3.5 -8.5 3.5 l-41 0 q10 44 41.5 75.5 q31.5 31.5 75.5 41.5 l0 -41 q0 -5 3.5 -8.5 q3.5 -3.5 8.5 -3.5 l40 0 q5 0 8.5 3.5 q3.5 3.5 3.5 8.5 l0 41 q44 -10 75.5 -41.5 q31.5 -31.5 41.5 -75.5 l-41 0 q-5 0 -8.5 -3.5 q-3.5 -3.5 -3.5 -8.5 l0 -40 q0 -5 3.5 -8.5 q3.5 -3.5 8.5 -3.5 l41 0 q-10 -44 -41.5 -75.5 q-31.5 -31.5 -75.5 -41.5 ZM288 192 q0 -13 -9.5 -22.5 q-9.5 -9.5 -22.5 -9.5 q-13 0 -22.5 9.5 q-9.5 9.5 -9.5 22.5 q0 13 9.5 22.5 q9.5 9.5 22.5 9.5 q13 0 22.5 -9.5 q9.5 -9.5 9.5 -22.5 Z" /><glyph glyph-name="cube" unicode="&#xf1b2;" d="M239 442 l-208 -78 q-14 -6 -22.5 -18 q-8.5 -12 -8.5 -27 l0 -225 q0 -14 7 -25.5 q7 -11.5 20 -17.5 l208 -104 q10 -5 21 -5 q11 0 21 5 l208 104 q13 6 20 17.5 q7 11.5 7 25.5 l0 225 q0 15 -8.5 27 q-8.5 12 -22.5 18 l-208 78 q-17 6 -34 0 ZM256 380 l192 -72 l0 -1 l-192 -78 l-192 78 l0 1 l192 72 ZM288 24 l0 149 l160 65 l0 -134 l-160 -80 Z" /><glyph glyph-name="cubes" unicode="&#xf1b3;" d="M489 198 l-97 36 l0 109 q0 11 -6.5 20 q-6.5 9 -16.5 13 l-100 38 q-13 5 -26 0 l-100 -38 q-10 -4 -16.5 -13 q-6.5 -9 -6.5 -20 l0 -109 l-97 -36 q-10 -4 -16.5 -13.5 q-6.5 -9.5 -6.5 -20.5 l0 -110 q0 -10 5.5 -19 q5.5 -9 14.5 -13 l100 -50 q16 -8 32 0 l104 52 l104 -52 q16 -8 32 0 l100 50 q9 4 14.5 13 q5.5 9 5.5 19 l0 110 q0 11 -6.5 20.5 q-6.5 9.5 -16.5 13.5 ZM358 233 l-85 -32 l0 69 l85 37 l0 -74 ZM154 344 l102 38 l102 -38 l0 -1 l-102 -41 l-102 41 l0 1 ZM238 53 l-85 -43 l0 79 l85 39 l0 -75 ZM238 165 l-102 -42 l-102 42 l0 0 l102 39 l102 -39 l0 0 ZM478 53 l-85 -43 l0 79 l85 39 l0 -75 ZM478 165 l-102 -42 l-102 42 l0 0 l102 39 l102 -39 l0 0 Z" /><glyph glyph-name="cut" unicode="&#xf0c4;" d="M444 26 q4 -4 4 -9 q0 -5 -4 -8 q-24 -25 -59 -25 q-35 0 -59 25 l-116 115 l-25 -25 q7 -17 7 -35 q0 -40 -28 -68 q-28 -28 -68 -28 q-40 0 -68 28 q-28 28 -28 68 q0 40 28 68 q28 28 68 28 q7 0 13 -1 l33 33 l-33 33 q-6 -1 -13 -1 q-40 0 -68 28 q-28 28 -28 68 q0 40 28 68 q28 28 68 28 q40 0 68 -28 q28 -28 28 -68 q0 -18 -7 -35 l25 -25 l116 115 q24 25 59 25 q35 0 59 -25 q4 -3 4 -8 q0 -5 -4 -9 l-166 -166 l166 -166 ZM96 352 q-13 0 -22.5 -9.5 q-9.5 -9.5 -9.5 -22.5 q0 -13 9.5 -22.5 q9.5 -9.5 22.5 -9.5 q13 0 22.5 9.5 q9.5 9.5 9.5 22.5 q0 13 -9.5 22.5 q-9.5 9.5 -22.5 9.5 ZM96 96 q-13 0 -22.5 -9.5 q-9.5 -9.5 -9.5 -22.5 q0 -13 9.5 -22.5 q9.5 -9.5 22.5 -9.5 q13 0 22.5 9.5 q9.5 9.5 9.5 22.5 q0 13 -9.5 22.5 q-9.5 9.5 -22.5 9.5 ZM208 204 q-5 0 -8.5 -3.5 q-3.5 -3.5 -3.5 -8.5 q0 -5 3.5 -8.5 q3.5 -3.5 8.5 -3.5 q5 0 8.5 3.5 q3.5 3.5 3.5 8.5 q0 5 -3.5 8.5 q-3.5 3.5 -8.5 3.5 Z" /><glyph glyph-name="database" unicode="&#xf1c0;" d="M448 375 l0 -46 q0 -20 -30 -36.5 q-30 -16.5 -81.5 -26.5 q-51.5 -10 -112.5 -10 q-61 0 -112.5 10 q-51.5 10 -81.5 26.5 q-30 16.5 -30 36.5 l0 46 q0 20 30 36.5 q30 16.5 81.5 26.5 q51.5 10 112.5 10 q61 0 112.5 -10 q51.5 -10 81.5 -26.5 q30 -16.5 30 -36.5 ZM448 272 l0 -103 q0 -20 -30 -36.5 q-30 -16.5 -81.5 -26.5 q-51.5 -10 -112.5 -10 q-61 0 -112.5 10 q-51.5 10 -81.5 26.5 q-30 16.5 -30 36.5 l0 103 q35 -24 97 -37 q58 -12 127 -12 q69 0 127 12 q62 13 97 37 ZM448 112 l0 -103 q0 -20 -30 -36.5 q-30 -16.5 -81.5 -26.5 q-51.5 -10 -112.5 -10 q-61 0 -112.5 10 q-51.5 10 -81.5 26.5 q-30 16.5 -30 36.5 l0 103 q35 -24 97 -37 q58 -12 127 -12 q69 0 127 12 q62 13 97 37 Z" /><glyph glyph-name="deaf" unicode="&#xf2a4;" d="M216 188 q0 -12 -8 -20 q-8 -8 -20 -8 q-12 0 -20 8 q-8 8 -8 20 q0 33 23.5 56.5 q23.5 23.5 56.5 23.5 q33 0 56.5 -23.5 q23.5 -23.5 23.5 -56.5 q0 -12 -8 -20 q-8 -8 -20 -8 q-12 0 -20 8 q-8 8 -8 19 q0 11 -7 18 q-7 7 -17 7 q-10 0 -17 -7 q-7 -7 -7 -17 ZM240 364 q-48 0 -88.5 -23.5 q-40.5 -23.5 -64 -64 q-23.5 -40.5 -23.5 -88.5 q0 -12 8 -20 q8 -8 20 -8 q12 0 20 8 q8 8 8 20 q0 33 16 60.5 q16 27.5 43.5 43.5 q27.5 16 60.5 16 q33 0 60.5 -16 q27.5 -16 43.5 -43.5 q16 -27.5 16 -60.5 q0 -25 -11 -44 q-7 -11 -25 -28.5 q-18 -17.5 -25 -28.5 q-11 -18 -11 -43 l0 0 q0 -22 -15 -37 q-15 -15 -37 -15 q-12 0 -20 -8 q-8 -8 -8 -20 q0 -12 8 -20 q8 -8 20 -8 q29 0 54 14.5 q25 14.5 39.5 39.5 q14.5 25 14.5 54 q0 8 7 18 q4 5 16 17 q23 23 32 40 q17 29 17 69 q0 48 -23.5 88.5 q-23.5 40.5 -64 64 q-40.5 23.5 -88.5 23.5 ZM508 416 l-28 28 q-3 4 -8 4 q-5 0 -9 -4 l-87 -87 q-3 -3 -3 -8 q0 -5 3 -9 l28 -28 q4 -3 9 -3 q5 0 8 3 l87 87 q4 4 4 9 q0 5 -4 8 ZM169 133 q-4 4 -8.5 4 q-4.5 0 -8.5 -4 l-148 -148 q-4 -4 -4 -9 q0 -5 4 -8 l28 -28 q3 -4 8 -4 q5 0 9 4 l148 148 q4 4 4 8.5 q0 4.5 -4 8.5 l-28 28 Z" /><glyph glyph-name="desktop" unicode="&#xf108;" d="M528 448 l-480 0 q-20 0 -34 -14 q-14 -14 -14 -34 l0 -320 q0 -20 14 -34 q14 -14 34 -14 l192 0 l-16 -48 l-72 0 q-10 0 -17 -7 q-7 -7 -7 -17 q0 -10 7 -17 q7 -7 17 -7 l272 0 q10 0 17 7 q7 7 7 17 q0 10 -7 17 q-7 7 -17 7 l-72 0 l-16 48 l192 0 q20 0 34 14 q14 14 14 34 l0 320 q0 20 -14 34 q-14 14 -34 14 ZM512 96 l-448 0 l0 288 l448 0 l0 -288 Z" /><glyph glyph-name="dollar-sign" unicode="&#xf155;" d="M113 279 q0 17 15 27.5 q15 10.5 40 10.5 q37 0 77 -28 q4 -3 9.5 -2 q5.5 1 7.5 6 l24 43 q2 4 1 8 q-1 4 -4 7 q-17 15 -41.5 25 q-24.5 10 -49.5 13 l0 47 q0 5 -3.5 8.5 q-3.5 3.5 -8.5 3.5 l-40 0 q-5 0 -8.5 -3.5 q-3.5 -3.5 -3.5 -8.5 l0 -50 q-44 -10 -70.5 -39.5 q-26.5 -29.5 -26.5 -68.5 q0 -34 18 -59 q16 -21 45 -37 q18 -9 53.5 -23 q35.5 -14 48.5 -22 q19 -13 19 -29 q0 -16 -12 -28 q-15 -13 -40 -13 q-22 0 -46 10 q-21 10 -42 26 q-3 3 -8.5 2.5 q-5.5 -0.5 -8.5 -4.5 l-30 -41 q-3 -4 -2.5 -8.5 q0.5 -4.5 3.5 -7.5 q19 -18 44.5 -30.5 q25.5 -12.5 54.5 -17.5 l0 -48 q0 -5 3.5 -8.5 q3.5 -3.5 8.5 -3.5 l40 0 q5 0 8.5 3.5 q3.5 3.5 3.5 8.5 l0 47 q48 8 77 40.5 q29 32.5 29 76.5 q0 32 -18 56 q-15 19 -43 34 q-17 9 -53.5 23 q-36.5 14 -49.5 22 q-21 14 -21 32 Z" /><glyph glyph-name="dot-circle" unicode="&#xf192;" d="M256 440 q-67 0 -124 -33.5 q-57 -33.5 -90.5 -90.5 q-33.5 -57 -33.5 -124 q0 -67 33.5 -124 q33.5 -57 90.5 -90.5 q57 -33.5 124 -33.5 q67 0 124 33.5 q57 33.5 90.5 90.5 q33.5 57 33.5 124 q0 67 -33.5 124 q-33.5 57 -90.5 90.5 q-57 33.5 -124 33.5 ZM336 192 q0 -33 -23.5 -56.5 q-23.5 -23.5 -56.5 -23.5 q-33 0 -56.5 23.5 q-23.5 23.5 -23.5 56.5 q0 33 23.5 56.5 q23.5 23.5 56.5 23.5 q33 0 56.5 -23.5 q23.5 -23.5 23.5 -56.5 Z" /><glyph glyph-name="download" unicode="&#xf019;" d="M216 448 l80 0 q10 0 17 -7 q7 -7 7 -17 l0 -168 l88 0 q13 0 18 -12.5 q5 -12.5 -4 -21.5 l-152 -152 q-6 -6 -14 -6 q-8 0 -14 6 l-152 152 q-9 9 -4 21.5 q5 12.5 18 12.5 l88 0 l0 168 q0 10 7 17 q7 7 17 7 ZM512 72 l0 -112 q0 -10 -7 -17 q-7 -7 -17 -7 l-464 0 q-10 0 -17 7 q-7 7 -7 17 l0 112 q0 10 7 17 q7 7 17 7 l147 0 l49 -49 q15 -15 36 -15 q21 0 36 15 l49 49 l147 0 q10 0 17 -7 q7 -7 7 -17 ZM388 -16 q0 8 -6 14 q-6 6 -14 6 q-8 0 -14 -6 q-6 -6 -6 -14 q0 -8 6 -14 q6 -6 14 -6 q8 0 14 6 q6 6 6 14 ZM452 -16 q0 8 -6 14 q-6 6 -14 6 q-8 0 -14 -6 q-6 -6 -6 -14 q0 -8 6 -14 q6 -6 14 -6 q8 0 14 6 q6 6 6 14 Z" /><glyph glyph-name="edit" unicode="&#xf044;" d="M403 365 l90 -90 q3 -3 3 -7 q0 -4 -3 -7 l-219 -219 l-92 -10 q-10 -1 -16.5 5.5 q-6.5 6.5 -5.5 16.5 l10 92 l219 219 q3 3 7 3 q4 0 7 -3 ZM565 388 l-49 49 q-12 11 -28 11 q-16 0 -27 -11 l-36 -36 q-3 -3 -3 -7 q0 -4 3 -7 l90 -90 q3 -3 7 -3 q4 0 7 3 l36 36 q11 11 11 27 q0 16 -11 28 ZM384 102 l0 -102 l-320 0 l0 320 l230 0 q5 0 8 3 l40 41 q6 5 3 12.5 q-3 7.5 -11 7.5 l-286 0 q-20 0 -34 -14 q-14 -14 -14 -34 l0 -352 q0 -20 14 -34 q14 -14 34 -14 l352 0 q20 0 34 14 q14 14 14 34 l0 158 q0 8 -7.5 11 q-7.5 3 -12.5 -3 l-40 -40 q-4 -3 -4 -8 Z" /></font>
</defs>
</svg>
