<svg width="153" height="109" viewBox="0 0 153 109" xmlns="http://www.w3.org/2000/svg"><title>Wave</title><path d="M3.249 52.26a7.78 7.78 0 0 1 .482-.7c.43-.57.94-1.144 1.52-1.676 2.39-2.187 5.12-2.993 8.32-1.743 2.342.915 3.802 2.714 5.293 6.02.167.37.331.75.549 1.261l.269.637.27.635c1.849 4.296 3.443 6.163 6.71 6.163 2.823 0 4.067-3.38 5.346-10.723.82-4.716 1.406-9.625 2.55-20.522l.107-1.015c1.1-10.485 1.663-15.214 2.428-19.652.47-2.729.952-4.79 1.448-6.157.232-.642.457-1.098.643-1.344.043-.057.061-.074.04-.06a.806.806 0 0 1-.429.115c-.38 0-.642-.146-.772-.292.03.034.11.168.206.39.265.602.547 1.58.828 2.895.555 2.59 1.09 6.386 1.62 11.384.848 8.007 1.485 16.45 2.757 35.284l.098 1.446c1.27 18.797 1.893 27.122 2.738 35.321 1.228 11.92 2.315 17.483 4.432 18.723 1.345.788 2.632.168 3.414-1.075.448-.713.82-1.73 1.173-3.102.606-2.36 1.166-5.871 1.716-10.573.862-7.386 1.494-15.191 2.775-32.998l.073-1.013c1.201-16.695 1.784-24.02 2.571-31.296.946-8.737 2.051-14.264 2.688-14.761-.408.319-1.086.219-1.341-.062.113.125.33.575.564 1.286.53 1.618 1.059 4.267 1.587 7.896.858 5.904 1.53 12.534 2.81 26.814l.16 1.767c2.641 29.451 3.764 37.983 6.537 40.148 1.916 1.497 3.599.28 4.62-2.01.647-1.45 1.236-3.645 1.823-6.644.907-4.634 1.6-9.653 2.999-20.988l.088-.713c2.326-18.83 3.74-26.992 5.071-28.032-.244.192-.744.08-.762.059.327.402.738 1.314 1.165 2.658.782 2.459 1.512 5.855 2.584 11.68l.355 1.944.357 1.965c2.714 14.91 3.995 19.673 7.057 20.869 2.623 1.024 4.393-.919 5.874-4.67.926-2.345 1.636-4.925 2.99-10.453l.167-.687c1.209-4.94 1.807-7.18 2.561-9.352.855-2.457 1.684-3.857 2.133-4.032.097-.038.275.07.79.903.639 1.035 1.263 2.582 2.146 5.202.18.532.81 2.438.826 2.485 1.127 3.384 1.884 5.337 2.834 7.036 1.402 2.508 3.058 3.956 5.23 3.956 2.266 0 4.048-1.417 5.571-3.898 1.04-1.695 1.847-3.582 3.134-7.052.031-.083.513-1.386.653-1.76 1.662-4.458 2.77-6.495 3.734-6.872.59-.23 1.544.015 2.808.846 1.179.775 2.482 1.97 3.833 3.464a45.042 45.042 0 0 1 2.684 3.286 44.81 44.81 0 0 1 1.051 1.476 1.74 1.74 0 0 0 2.418.485 1.753 1.753 0 0 0 .484-2.426 48.291 48.291 0 0 0-1.16-1.628 48.476 48.476 0 0 0-2.894-3.543c-1.532-1.696-3.04-3.077-4.504-4.04-2.111-1.388-4.126-1.906-5.985-1.18-2.357.92-3.632 3.265-5.735 8.906l-.655 1.766c-2.303 6.208-3.815 8.671-5.436 8.671-1.312 0-2.748-2.57-4.758-8.603-.013-.038-.647-1.953-.83-2.496-.967-2.87-1.66-4.588-2.485-5.924-1.293-2.094-2.989-3.113-5.02-2.32-1.77.691-2.967 2.71-4.16 6.14-.804 2.316-1.418 4.615-2.654 9.67l-.168.687c-1.311 5.357-2 7.86-2.845 9.998-.482 1.22-.944 2.07-1.344 2.51a.99.99 0 0 1-.214.194.342.342 0 0 1 .191-.006c-.404-.158-1.341-2.138-2.241-5.485-.806-2.998-1.491-6.383-2.65-12.752l-.358-1.964c-.14-.778-.25-1.375-.356-1.95-1.099-5.975-1.848-9.46-2.69-12.11-.55-1.73-1.113-2.977-1.784-3.804-1.09-1.343-2.69-1.698-4.084-.61-2.572 2.01-3.672 8.358-6.39 30.363l-.088.713c-1.388 11.24-2.075 16.224-2.96 20.744-.54 2.758-1.072 4.742-1.583 5.888a4.057 4.057 0 0 1-.315.595c-.052.077-.077.105-.054.088.305-.22.818-.203 1.073-.004-.608-.475-1.666-4.98-2.606-12.124-.787-5.98-1.393-12.112-2.6-25.576l-.159-1.768C70.918 35.1 70.244 28.44 69.372 22.447c-.554-3.814-1.116-6.627-1.725-8.484-.374-1.142-.777-1.975-1.3-2.55-.915-1.006-2.27-1.206-3.377-.342-2.898 2.263-3.99 12.36-6.595 48.566l-.073 1.013c-1.277 17.748-1.907 25.53-2.76 32.843-.533 4.557-1.073 7.937-1.63 10.108-.27 1.047-.534 1.77-.745 2.106-.01.016.036-.032.203-.112.354-.17.784-.146 1.09.033.117.069.13.083.097.027a4.827 4.827 0 0 1-.352-.801c-.283-.794-.572-1.934-.857-3.397-.552-2.824-1.083-6.784-1.61-11.89-.838-8.141-1.46-16.446-2.727-35.198l-.098-1.445C45.638 34.04 45 25.576 44.143 17.506 42.788 4.703 41.782 0 38.796 0c-2.742 0-3.91 3.222-5.138 10.348-.784 4.545-1.35 9.312-2.46 19.882l-.107 1.015c-1.134 10.81-1.716 15.68-2.518 20.287-.494 2.84-1.003 4.988-1.53 6.419-.248.675-.49 1.156-.692 1.42-.052.067-.08.093-.068.086a.73.73 0 0 1 .38-.099c-1.36 0-2.176-.954-3.508-4.05l-.262-.616-.27-.64a65.802 65.802 0 0 0-.58-1.333c-1.832-4.06-3.827-6.519-7.206-7.839-4.582-1.789-8.648-.59-11.935 2.42C1.614 48.478.727 49.657.24 50.492a1.753 1.753 0 0 0 .624 2.394 1.74 1.74 0 0 0 2.386-.626z" fill="#419BF9"/></svg>